<svg height="41.14" viewBox="0 0 51.879 41.14" width="51.879" xmlns="http://www.w3.org/2000/svg"><g fill="currentColor"><path d="m50.99 41.14h-50.101a.9.9 0 0 1 -.889-.888v-39.363a.9.9 0 0 1 .889-.889h50.1a.9.9 0 0 1 .889.889v39.363a.9.9 0 0 1 -.888.888zm-49.213-39.363v37.586h48.323v-37.586z"/><path d="m5 10a5 5 0 1 1 5-5 4.961 4.961 0 0 1 -5 5zm0-8.186a3.185 3.185 0 1 0 3.184 3.186 3.188 3.188 0 0 0 -3.184-3.186z" transform="translate(9.295 9.813)"/><path d="m.932 20.552a.908.908 0 0 0 .592-.222l14.59-12.85 9.22 9.22a.89.89 0 0 0 1.259-1.259l-4.3-4.3 8.221-9 10.072 9.22a.918.918 0 0 0 1.259-.037.885.885 0 0 0 -.074-1.259l-10.734-9.843a1.006 1.006 0 0 0 -.629-.222.848.848 0 0 0 -.63.3l-8.778 9.587-4.256-4.258a.908.908 0 0 0 -1.222-.037l-15.222 13.408a.885.885 0 0 0 -.074 1.259.981.981 0 0 0 .7.3z" transform="translate(5.289 15.219)"/></g></svg>
