<svg height="76.175" viewBox="0 0 82.411 76.175" width="82.411" xmlns="http://www.w3.org/2000/svg"><g fill="currentColor"><path d="m67.023 38.3a23.872 23.872 0 0 0 -44.23-7.931 13.674 13.674 0 0 0 -2.508-.237 13.083 13.083 0 0 0 -13.066 13.061 14.282 14.282 0 0 0 .271 2.707 18.182 18.182 0 0 0 -7.49 14.663 19.438 19.438 0 0 0 4.931 12.862 17.6 17.6 0 0 0 12.2 6.135h14.71a2.288 2.288 0 1 0 0-4.576h-14.505c-6.931-.424-12.761-7.016-12.761-14.438a13.583 13.583 0 0 1 6.725-11.693 2.306 2.306 0 0 0 1-2.779 8.3 8.3 0 0 1 -.508-2.915 8.505 8.505 0 0 1 8.49-8.49 8.345 8.345 0 0 1 2.9.508 2.3 2.3 0 0 0 2.864-1.169 19.295 19.295 0 0 1 36.654 6.355 2.285 2.285 0 0 0 1.9 2.037c7.541 1.288 13.235 8.253 13.235 16.2 0 8.422-6.626 15.743-14.794 16.37h-12.49a2.288 2.288 0 1 0 0 4.576h12.749a20.275 20.275 0 0 0 13.591-6.711 21.092 21.092 0 0 0 -9.868-34.535z" transform="translate(0 -18.4)"/><path d="m186.352 201.431a2.281 2.281 0 0 0 0-3.237l-12.117-12.117a2.315 2.315 0 0 0 -1.61-.678 2.244 2.244 0 0 0 -1.61.678l-12.115 12.118a2.3 2.3 0 0 0 1.61 3.915 2.232 2.232 0 0 0 1.61-.678l8.219-8.219v37.774a2.288 2.288 0 0 0 4.576 0v-37.775l8.219 8.219a2.261 2.261 0 0 0 3.218 0z" transform="translate(-131.411 -157.099)"/></g></svg>
