<svg height="435.42027" viewBox="0 0 941.40412 435.42027" width="941.40412" xmlns="http://www.w3.org/2000/svg"><path d="m213.79147 646.81347-1.26717-.475c-.27846-.10493-27.99252-10.72312-40.975-34.79939-12.983-24.07742-6.62584-53.06672-6.56012-53.35613l.29921-1.32021 1.26659.475c.27846.10493 27.99194 10.72312 40.975 34.79939 12.983 24.07742 6.62585 53.06672 6.56012 53.35613zm-40.16325-36.39516c10.97621 20.35661 32.87672 30.79147 38.42564 33.17362 1.055-5.94729 4.36362-29.99705-6.60278-50.33406-10.96525-20.33472-32.87441-30.78572-38.42564-33.17363-1.05559 5.95076-4.36304 29.9982 6.60278 50.33407z" fill="#3f3d56" transform="translate(-129.29794 -232.28986)"/><path d="m181.47093 603.09347c23.33121 14.03683 32.3168 41.91784 32.3168 41.91784s-28.84178 5.12282-52.173-8.914-32.3168-41.91784-32.3168-41.91784 28.84179-5.12283 52.173 8.914z" fill="#d0cde1" transform="translate(-129.29794 -232.28986)"/><path d="m928.14845 237.65218h-260.1696v-5.36232h-117.971v5.36232h-261.24209a17.59851 17.59851 0 0 0 -17.59851 17.59852v356.25218a17.59856 17.59856 0 0 0 17.59851 17.59858h639.38269a17.59856 17.59856 0 0 0 17.59855-17.59858v-356.25218a17.5985 17.5985 0 0 0 -17.59855-17.59852z" fill="#3f3d56" transform="translate(-129.29794 -232.28986)"/><path d="m165.46352 36.46377h627.3913v353.91304h-627.3913z" fill="#3b86ff"/><circle cx="478.62294" cy="20.37681" fill="#3b86ff" r="6.43478"/><path d="m886.1358 313.7967h-29.74v-29.73995h29.74zm-28.44691-1.293h27.15387v-27.15391h-27.15387z" fill="#3f3d56" transform="translate(-129.29794 -232.28986)"/><path d="m963.36275 616.23188h-61.22931v-4.41154a.87468.87468 0 0 0 -.87471-.8747h-20.99291a.87468.87468 0 0 0 -.8747.8747v4.41154h-13.12057v-4.41154a.87468.87468 0 0 0 -.8747-.8747h-20.99291a.87468.87468 0 0 0 -.87471.8747v4.41154h-13.12056v-4.41154a.87468.87468 0 0 0 -.87471-.8747h-20.99296a.87468.87468 0 0 0 -.8747.8747v4.41154h-13.12052v-4.41154a.87468.87468 0 0 0 -.8747-.8747h-20.99291a.87468.87468 0 0 0 -.8747.8747v4.41154h-13.12057v-4.41154a.87468.87468 0 0 0 -.87471-.8747h-20.9929a.87468.87468 0 0 0 -.87471.8747v4.41154h-13.12058v-4.41154a.87467.87467 0 0 0 -.8747-.8747h-20.9929a.87468.87468 0 0 0 -.8747.8747v4.41154h-13.12057v-4.41154a.87468.87468 0 0 0 -.8747-.8747h-164.44443a.87468.87468 0 0 0 -.8747.8747v4.41154h-13.12059v-4.41154a.87468.87468 0 0 0 -.8747-.8747h-20.99291a.87468.87468 0 0 0 -.87471.8747v4.41154h-13.12056v-4.41154a.87468.87468 0 0 0 -.87471-.8747h-20.99291a.87468.87468 0 0 0 -.8747.8747v4.41154h-13.12057v-4.41154a.87468.87468 0 0 0 -.8747-.8747h-20.99291a.87468.87468 0 0 0 -.87471.8747v4.41154h-13.12056v-4.41154a.87468.87468 0 0 0 -.87471-.8747h-20.99291a.87468.87468 0 0 0 -.8747.8747v4.41154h-13.12057v-4.41154a.87468.87468 0 0 0 -.8747-.8747h-20.99291a.87468.87468 0 0 0 -.8747.8747v4.41154h-13.12057v-4.41154a.87468.87468 0 0 0 -.87471-.8747h-20.9929a.87468.87468 0 0 0 -.87471.8747v4.41154h-40.2364a20.99291 20.99291 0 0 0 -20.99291 20.9929v9.4925a20.99291 20.99291 0 0 0 20.99291 20.99286h698.01418a20.99292 20.99292 0 0 0 20.99291-20.99286v-9.4925a20.99292 20.99292 0 0 0 -20.99291-20.9929z" fill="#3f3d56" transform="translate(-129.29794 -232.28986)"/><path d="m28.71132 413.88349h912.69281v2.78529h-912.69281z" fill="#3f3d56"/><path d="m883.36954 465.96058h-202v-115h202zm-200-2h198v-111h-198z" fill="#3f3d56" transform="translate(-129.29794 -232.28986)"/><path d="m513.36954 488.96058h-180v-112h180zm-178-2h176v-108h-176z" fill="#3f3d56" transform="translate(-129.29794 -232.28986)"/><path d="m417.46378 445.96058-.17236-2.23633c-.51563-4.64356 1.03223-9.71777 5.332-14.87695 3.87012-4.5586 6.02-7.91211 6.02-11.78223 0-4.38574-2.75195-7.30957-8.16992-7.39551a15.28045 15.28045 0 0 0 -8.686 2.666l-2.064-5.418c2.83838-2.06445 7.74023-3.44043 12.29785-3.44043 9.89014 0 14.36182 6.10644 14.36182 12.6416 0 5.84863-3.26807 10.0625-7.396 14.96387-3.78369 4.47168-5.15967 8.25586-4.90186 12.6416l.08594 2.23633zm-1.89209 12.04a5.08415 5.08415 0 0 1 5.15967-5.418c3.01025 0 5.07422 2.23535 5.07422 5.418a5.12129 5.12129 0 1 1 -10.23389 0z" fill="#d0cde1" transform="translate(-129.29794 -232.28986)"/><path d="m776.46378 420.96058-.17236-2.23633c-.51563-4.64356 1.03223-9.71777 5.332-14.87695 3.87012-4.5586 6.02-7.91211 6.02-11.78223 0-4.38574-2.75195-7.30957-8.16992-7.39551a15.28045 15.28045 0 0 0 -8.686 2.666l-2.064-5.418c2.83838-2.06445 7.74023-3.44043 12.29785-3.44043 9.89014 0 14.36182 6.10644 14.36182 12.6416 0 5.84863-3.26807 10.0625-7.396 14.96387-3.78369 4.47168-5.15967 8.25586-4.90186 12.6416l.08594 2.23633zm-1.89209 12.04a5.08415 5.08415 0 0 1 5.15967-5.418c3.01025 0 5.07422 2.23535 5.07422 5.418a5.12129 5.12129 0 1 1 -10.23389 0z" fill="#d0cde1" transform="translate(-129.29794 -232.28986)"/><circle cx="482.69312" cy="260.84872" fill="#2f2e41" r="86.29225"/><path d="m449.365 379.018-25.797-4.67 8.367-53.864 25.796 4.67z" fill="#2f2e41"/><path d="m608.43233 564.07272h26.21537v46.9692h-26.21537z" fill="#2f2e41" transform="matrix(.98400633 .17813349 -.17813349 .98400633 -14.69358 -333.60977)"/><ellipse cx="626.08228" cy="611.19594" fill="#2f2e41" rx="8.1923" ry="21.84614" transform="matrix(.19788027 -.9802262 .9802262 .19788027 -226.21522 871.66478)"/><ellipse cx="572.1108" cy="611.25703" fill="#2f2e41" rx="8.1923" ry="21.84614" transform="matrix(.13132732 -.99133906 .99133906 .13132732 -238.2839 865.84819)"/><circle cx="488.73433" cy="239.74114" fill="#fff" r="29.49229"/><circle cx="500.85556" cy="229.16973" fill="#3f3d56" r="9.83076"/><path d="m543.91852 399.26184c-1.29768-31.94667 26.23575-59.00572 61.49764-60.43807s64.89929 23.30439 66.197 55.25107-23.21382 39.20523-58.47571 40.63758-67.92124-3.5039-69.21893-35.45058z" fill="#fff" transform="translate(-129.29794 -232.28986)"/><ellipse cx="691.67001" cy="477.41757" fill="#2f2e41" rx="43.14613" ry="13.5449" transform="matrix(.97472182 -.22342194 .22342194 .97472182 -218.47935 -65.68735)"/><ellipse cx="522.28158" cy="505.58661" fill="#2f2e41" rx="43.14613" ry="13.5449" transform="matrix(.97472182 -.22342194 .22342194 .97472182 -229.05476 -102.82038)"/><path d="m588.29085 527.14527a19.66153 19.66153 0 0 0 38.69415 7.00473c1.9343-10.68509-6.32706-14.46612-17.01215-16.40043s-19.74769-1.28939-21.682 9.3957z" fill="#fff" transform="translate(-129.29794 -232.28986)"/><path d="m154.5348 13.12227h141.88698v134.9673h-141.88698z" fill="#d0cde1"/><path d="m170.65832 29.24579h109.63994v83.84231h-109.63994z" fill="#fff"/><path d="m170.54973 122.97937h59.63671v3.13877h-59.63671z" fill="#f2f2f2"/><path d="m170.54973 132.3957h59.63671v3.13877h-59.63671z" fill="#f2f2f2"/><circle cx="190.16707" cy="71.18959" fill="#3f3d56" r="12.5551"/><circle cx="225.47829" cy="71.18959" fill="#3b86ff" r="12.5551"/><circle cx="260.7895" cy="71.18959" fill="#e6e6e6" r="12.5551"/><circle cx="225.47829" cy="20.9692" fill="#3f3d56" r="6.27755"/><path d="m222.02216 274.45884h141.88698v134.9673h-141.88698z" fill="#d0cde1"/><path d="m238.14568 290.58236h109.63994v83.84231h-109.63994z" fill="#fff"/><path d="m262.27176 304.36086h38.437v38.437h-38.437z" fill="#3b86ff"/><path d="m406.28392 546.26247v46.67353h46.67356v-46.67353zm44.64908 44.649h-42.62461v-42.62447h42.62461z" fill="#3f3d56" transform="translate(-129.29794 -232.28986)"/><path d="m238.0371 382.74656h59.63671v3.13877h-59.63671z" fill="#f2f2f2"/><circle cx="292.96565" cy="282.30578" fill="#3f3d56" r="6.27755"/><path d="m591.4365 234.05278h141.88698v134.9673h-141.88698z" fill="#d0cde1"/><path d="m607.56002 250.1763h109.63994v83.84231h-109.63994z" fill="#fff"/><g fill="#3f3d56"><path d="m650.5867 315.8124h23.58659v6.98967h-23.58659z"/><path d="m622.07157 261.39284h80.61684v2.99557h-80.61684z"/><path d="m622.07157 270.87882h80.61684v2.99557h-80.61684z"/><path d="m622.07157 280.36479h80.61684v2.99557h-80.61684z"/><path d="m622.07157 289.85077h80.61684v2.99557h-80.61684z"/><path d="m622.07157 299.33675h80.61684v2.99557h-80.61684z"/></g><path d="m607.45144 342.3405h59.63671v3.13877h-59.63671z" fill="#f2f2f2"/><path d="m607.45144 350.18743h83.17752v3.13877h-83.17752z" fill="#f2f2f2"/><circle cx="662.37999" cy="241.89971" fill="#3f3d56" r="6.27755"/></svg>