<svg height="241.442" viewBox="0 0 431.527 241.442" width="431.527" xmlns="http://www.w3.org/2000/svg"><path d="m256.213 23.572h123.744v66.831h-123.744z" fill="#fff"/><path d="m256.213 23.572h123.744v14.896h-123.744z" fill="#e0e4f0"/><path d="m1058.728 5842.095h-.521v-66.571h-123.223v32.047h-.521v-32.571h124.264z" fill="#e5e8f0" transform="translate(-678.511 -5751.691)"/><path d="m953.265 5863.666h108.321c-.166 0 .259-24.367-.058-26.818-3.729 1.96-6.571 5.713-10.528 7.67a17.933 17.933 0 0 1 -10.588 1.935c-3.338-.562-6.055-3.079-9.483-3.309-4.451-.3-7.464 3.328-10.644 5.816-4.463 3.494-10.124 7.731-15.873 8.607-3.709.566-6.7-1.094-9.008-3.885-2.987-3.616-4.512-6.9-9.577-7.6a15.864 15.864 0 0 0 -11.532 2.9c-3.881 3.025-6.2 8-10.653 10.082a10.127 10.127 0 0 1 -5.093.9c-1.136-.093-4.044-1.638-5.051-.756-.74.65-.233 3.468-.233 4.458z" fill="#53dbaa" opacity=".5" transform="translate(-688.324 -5784.264)"/><path d="m957.194 5789.277a1.631 1.631 0 1 1 -1.631-1.631 1.631 1.631 0 0 1 1.631 1.631z" fill="#fff" transform="translate(-688.764 -5758.35)"/><path d="m973.213 5789.277a1.631 1.631 0 1 1 -1.631-1.631 1.631 1.631 0 0 1 1.631 1.631z" fill="#fff" transform="translate(-697.201 -5758.35)"/><path d="m989.231 5789.277a1.632 1.632 0 1 1 -1.631-1.631 1.631 1.631 0 0 1 1.631 1.631z" fill="#fff" transform="translate(-705.638 -5758.35)"/><path d="m54.607 53.041h164.735v105h-164.735z" fill="#fff"/><path d="m673.769 5942.525h-.521v-104.74h-164.215v104.74h-.521v-105.26h165.257z" fill="#e5e8f0" transform="translate(-454.166 -5784.484)"/><path d="m54.607 53.041h164.735v14.897h-164.735z" fill="#e0e4f0"/><path d="m60.908 71.368h152.163v29.209h-152.163z" fill="#fff"/><path d="m68.362 78.051h67.523v1.718h-67.523z" fill="#f9f9fb"/><path d="m108.197 116.982h98.254v1.718h-98.254z" fill="#f9f9fb"/><path d="m108.344 126.006h98.254v1.718h-98.254z" fill="#f9f9fb"/><path d="m108.491 135.029h98.254v1.718h-98.254z" fill="#f9f9fb"/><path d="m108.639 144.052h54.771v1.718h-54.771z" fill="#f9f9fb"/><path d="m68.362 85.114h108.597v1.718h-108.597z" fill="#f9f9fb"/><path d="m68.362 92.176h138.089v1.718h-138.089z" fill="#f9f9fb"/><path d="m538.591 5852.411a2.172 2.172 0 1 1 -2.172-2.172 2.172 2.172 0 0 1 2.172 2.172z" fill="#fff" transform="translate(-467.72 -5791.317)"/><path d="m559.916 5852.411a2.172 2.172 0 1 1 -2.172-2.172 2.172 2.172 0 0 1 2.172 2.172z" fill="#fff" transform="translate(-478.952 -5791.317)"/><path d="m581.241 5852.411a2.172 2.172 0 1 1 -2.172-2.172 2.172 2.172 0 0 1 2.172 2.172z" fill="#fff" transform="translate(-490.183 -5791.317)"/><ellipse cx="19.768" cy="19.768" fill="#f0f1fe" rx="19.768" ry="19.768" transform="matrix(.92213346 -.38687191 .38687191 .92213346 60.8 119.267)"/><path d="m192.03 147.096h83.785v26.28h-83.785z" fill="#fff"/><path d="m195.757 150.22h20.077v20.033h-20.077z" fill="#f9f9fb"/><path d="m221.4 150.22h50.645v3.53h-50.645z" fill="#f9f9fb"/><path d="m221.4 156.747h50.645v3.53h-50.645z" fill="#f9f9fb"/><path d="m221.4 163.275h20.255v3.53h-20.255z" fill="#f9f9fb"/><path d="m883.164 6062.522h-.521v-26.022h-83.263v26.02h-.521v-26.54h84.305z" fill="#e5e8f0" transform="translate(-607.089 -5889.146)"/><path d="m106.478 19.764h87.902v27.571h-87.902z" fill="#fff"/><path d="m110.388 23.042h21.064v21.017h-21.064z" fill="#f9f9fb"/><path d="m137.291 23.042h53.134v3.704h-53.134z" fill="#f9f9fb"/><path d="m137.291 29.89h53.134v3.704h-53.134z" fill="#f9f9fb"/><path d="m137.291 36.738h21.25v3.704h-21.25z" fill="#f9f9fb"/><path d="m706.529 5794.79h-.521v-27.311h-87.381v27.311h-.521v-27.832h88.423z" fill="#e5e8f0" transform="translate(-511.888 -5747.454)"/><path d="m.26 100.813h81.343v35.53h-81.343z" fill="#fff"/><path d="m475.552 5974.248h-81.863v-36.048h81.863zm-81.343-.52h80.822v-35.011h-80.821z" fill="#e5e8f0" transform="translate(-393.689 -5837.644)"/><path d="m7.384 125.183h2.603v6.605h-2.603z" fill="#f2f3f7"/><path d="m12.024 118.579h2.603v13.21h-2.603z" fill="#f2f3f7"/><path d="m16.664 118.579h2.603v13.21h-2.603z" fill="#f2f3f7"/><path d="m21.139 110.9h2.603v20.888h-2.603z" fill="#f2f3f7"/><path d="m25.945 114.609h2.603v17.179h-2.603z" fill="#f2f3f7"/><path d="m30.585 125.802h2.603v5.986h-2.603z" fill="#ffc200"/><path d="m35.225 114.609h2.603v17.179h-2.603z" fill="#f2f3f7"/><path d="m39.865 123.85h2.603v7.939h-2.603z" fill="#f2f3f7"/><path d="m44.505 118.579h2.603v13.21h-2.603z" fill="#f2f3f7"/><path d="m49.145 113.568h2.603v18.22h-2.603z" fill="#f2f3f7"/><path d="m59.478 106.8h16.919v2.603h-16.919z" fill="#f0f1fe"/><path d="m59.478 114.088h16.919v1.301h-16.919z" fill="#f0f1fe"/><path d="m59.478 117.277h16.919v1.301h-16.919z" fill="#f0f1fe"/><path d="m59.478 120.466h16.919v1.301h-16.919z" fill="#f0f1fe"/><path d="m59.478 123.654h8.46v1.301h-8.46z" fill="#f0f1fe"/><path d="m247.744 67.603h93.272v67.154h-93.272z" fill="#fff"/><path d="m247.744 67.603h93.272v7.214h-93.272z" fill="#dfe2ec"/><path d="m252.411 69.566h3.907v3.289h-3.907z" fill="#fff"/><path d="m1010.363 5935.444h-.521v-66.893h-92.75v66.893h-.521v-67.414h93.792z" fill="#e5e8f0" transform="translate(-669.087 -5800.687)"/><path d="m0 0h18.026v17.991h-18.026z" fill="#f2f3f7" transform="matrix(-1 0 0 -1 272.472 96.846)"/><path d="m0 0h18.026v17.991h-18.026z" fill="#f2f3f7" transform="matrix(-1 0 0 -1 297.088 96.846)"/><path d="m0 0h30.466v17.991h-30.466z" fill="#f2f3f7" transform="matrix(-1 0 0 -1 334.143 96.846)"/><path d="m254.317 101.815h36.311v3.246h-36.311z" fill="#f2f3f7"/><path d="m253.936 110.53h80.207v1.623h-80.207z" fill="#f2f3f7"/><path d="m253.936 116.463h80.207v1.623h-80.207z" fill="#f2f3f7"/><path d="m254.277 122.396h80.207v1.623h-80.207z" fill="#f2f3f7"/><path d="m254.617 128.329h40.121v1.623h-40.121z" fill="#f2f3f7"/><path d="m346.827 97.876h84.44v26.485h-84.44z" fill="#fff"/><path d="m350.583 101.024h20.234v20.189h-20.234z" fill="#f9f9fb"/><path d="m376.427 101.024h51.04v3.558h-51.04z" fill="#f9f9fb"/><path d="m376.427 107.602h51.04v3.558h-51.04z" fill="#f9f9fb"/><path d="m376.427 114.181h20.413v3.558h-20.413z" fill="#f9f9fb"/><path d="m1210.872 5959h-84.96v-27.005h84.96zm-84.439-.521h83.919v-25.964h-83.919z" fill="#e5e8f0" transform="translate(-779.345 -5834.376)"/><path d="m199.434.261h53.204v60.844h-53.204z" fill="#fff"/><path d="m203.19 3.409h46.041v20.189h-46.041z" fill="#f0f1fe"/><path d="m203.756 26.746h45.475v1.779h-45.475z" fill="#f9f9fb"/><path d="m203.756 30.853h45.475v1.779h-45.475z" fill="#f9f9fb"/><path d="m203.756 34.959h45.475v1.779h-45.475z" fill="#f9f9fb"/><path d="m203.756 39.066h45.475v1.779h-45.475z" fill="#f9f9fb"/><path d="m868.227 5780.086h-.521v-53.816h-52.683v43.925h-.523v-44.446h53.724z" fill="#e5e8f0" transform="translate(-615.328 -5725.749)"/><path d="m288.563 197.663h49.766v43.518h-49.766z" fill="#fdfdfe"/><path d="m288.563 197.663h49.766v8.685h-49.766z" fill="#ec8a66"/><g fill="#dfe2ec"><path d="m309.455 209.919h5.082v5.082h-5.082z"/><path d="m317.626 209.919h5.082v5.082h-5.082z"/><path d="m325.798 209.919h5.082v5.082h-5.082z"/><path d="m293.111 217.261h5.082v5.082h-5.082z"/><path d="m301.283 217.261h5.082v5.082h-5.082z"/><path d="m309.455 217.261h5.082v5.082h-5.082z"/><path d="m317.626 217.261h5.082v5.082h-5.082z"/><path d="m325.798 217.261h5.082v5.082h-5.082z"/><path d="m293.111 224.603h5.082v5.082h-5.082z"/><path d="m301.283 224.603h5.082v5.082h-5.082z"/><path d="m309.455 224.603h5.082v5.082h-5.082z"/><path d="m317.626 224.603h5.082v5.082h-5.082z"/><path d="m325.798 224.603h5.082v5.082h-5.082z"/><path d="m293.111 231.945h5.082v5.082h-5.082z"/><path d="m301.283 231.945h5.082v5.082h-5.082z"/><path d="m309.455 231.945h5.082v5.082h-5.082z"/></g><path d="m1003.333 6186.6h-.521v-43.778h50.288v17.749h-.521v-17.228h-49.245z" fill="#191c3c" transform="translate(-714.51 -5945.419)"/><path d="m1063.859 5998.075v44.281h-33.275v-44.28z" fill="#fff" transform="translate(-729.136 -5869.181)"/><path d="m1063.829 6042.325h-33.8v-44.8h33.8zm-33.275-.52h32.755v-43.76h-32.755z" fill="#e5e8f0" transform="translate(-728.846 -5868.891)"/><path d="m303.999 140.728h5.505v5.505h-5.505z" fill="#f2f3f7"/><path d="m1073.471 6024.454h-20.871v-1.376h20.873z" fill="#f2f3f7" transform="translate(-740.731 -5882.35)"/><path d="m1060.97 6031.687h-8.37v-1.376h8.372z" fill="#f2f3f7" transform="translate(-740.731 -5886.16)"/><path d="m1073.471 6047.343h-20.871v-1.376h20.873z" fill="#f2f3f7" transform="translate(-740.731 -5894.405)"/><path d="m1060.97 6054.575h-8.37v-1.375h8.372z" fill="#f2f3f7" transform="translate(-740.731 -5898.215)"/><path d="m1073.471 6070.23h-20.871v-1.376h20.873z" fill="#f2f3f7" transform="translate(-740.731 -5906.46)"/><path d="m1060.97 6077.463h-8.37v-1.376h8.372v1.376z" fill="#f2f3f7" transform="translate(-740.731 -5910.27)"/><path d="m303.999 151.208h5.505v5.505h-5.505z" fill="#f2f3f7"/><path d="m303.999 161.689h5.505v5.505h-5.505z" fill="#f2f3f7"/><path d="m1038.937 6025.819-2.834-2.834.978-.979 1.856 1.855 4.9-4.9.978.979z" fill="#53dbaa" transform="translate(-732.042 -5880.184)"/><path d="m1038.937 6047.321-2.834-2.835.978-.978 1.856 1.856 4.9-4.9.978.978z" fill="#53dbaa" transform="translate(-732.042 -5891.509)"/><path d="m1038.937 6068.822-2.834-2.834.978-.979 1.856 1.857 4.9-4.9.978.978z" fill="#53dbaa" transform="translate(-732.042 -5902.833)"/><path d="m640.759 6136.4h4.525a1.658 1.658 0 0 0 1.657-1.66v-5.771a1.66 1.66 0 0 0 -1.66-1.658h-3.542a1.392 1.392 0 0 1 -1.3-.926q-.187-.5-.407-.978a1.4 1.4 0 0 1 .259-1.575l2.5-2.505a1.66 1.66 0 0 0 0-2.346l-4.083-4.08a1.659 1.659 0 0 0 -2.346 0l-2.523 2.525a1.37 1.37 0 0 1 -1.511.29c-.36-.154-.749-.31-1.084-.44a1.365 1.365 0 0 1 -.867-1.275v-3.577a1.659 1.659 0 0 0 -1.659-1.659h-5.772a1.658 1.658 0 0 0 -1.659 1.659v3.542a1.394 1.394 0 0 1 -.927 1.295q-.521.195-1.026.429a1.393 1.393 0 0 1 -1.575-.255l-2.513-2.5a1.658 1.658 0 0 0 -2.346.007l-4.07 4.093a1.659 1.659 0 0 0 .007 2.346l2.532 2.518a1.37 1.37 0 0 1 .293 1.51c-.153.36-.308.749-.438 1.084a1.363 1.363 0 0 1 -1.272.87l-3.578.01a1.658 1.658 0 0 0 -1.655 1.663l.014 5.771a1.659 1.659 0 0 0 1.663 1.655l3.543-.009a1.4 1.4 0 0 1 1.3.925q.187.5.408.978a1.394 1.394 0 0 1 -.256 1.575l-2.5 2.51a1.659 1.659 0 0 0 0 2.346l4.089 4.072a1.659 1.659 0 0 0 2.346 0l2.519-2.53a1.37 1.37 0 0 1 1.51-.292c.36.153.749.309 1.084.438a1.365 1.365 0 0 1 .869 1.273l.006 3.578a1.658 1.658 0 0 0 1.662 1.656l5.772-.009a1.659 1.659 0 0 0 1.656-1.662l-.006-3.542a1.392 1.392 0 0 1 .926-1.3q.5-.188.977-.408a1.394 1.394 0 0 1 1.575.257l2.509 2.5a1.658 1.658 0 0 0 2.346 0l4.076-4.086a1.658 1.658 0 0 0 0-2.345l-2.527-2.521a1.37 1.37 0 0 1 -.291-1.511c.373-.861.751-1.889.77-1.955zm-22.969-6a8.179 8.179 0 1 1 5.093 9.1 8.18 8.18 0 0 1 -5.093-9.1z" fill="#b2b8fa" transform="translate(-504.839 -5928.536)"/><path d="m633.348 6130.271a7.915 7.915 0 0 0 -15.592-.113l-.512-.1a8.435 8.435 0 0 1 16.616.119zm-29.172-.728v-.793a1.921 1.921 0 0 1 1.914-1.925l3.578-.007a1.1 1.1 0 0 0 1.031-.705c.13-.338.286-.729.44-1.092a1.109 1.109 0 0 0 -.237-1.225l-2.532-2.517a1.92 1.92 0 0 1 -.008-2.714l4.069-4.092a1.907 1.907 0 0 1 1.355-.566h.006a1.909 1.909 0 0 1 1.353.558l2.513 2.5a1.13 1.13 0 0 0 1.282.2q.513-.237 1.043-.436a1.132 1.132 0 0 0 .759-1.052v-3.542a1.921 1.921 0 0 1 1.919-1.92h5.771a1.922 1.922 0 0 1 1.919 1.92v3.577a1.1 1.1 0 0 0 .7 1.031c.338.132.729.289 1.092.443a1.1 1.1 0 0 0 1.224-.232l2.523-2.525a1.923 1.923 0 0 1 2.714 0l4.082 4.079a1.923 1.923 0 0 1 0 2.715l-2.5 2.5a1.134 1.134 0 0 0 -.206 1.284q.223.489.414.994a1.133 1.133 0 0 0 1.053.759h3.542a1.92 1.92 0 0 1 1.919 1.917v.863h-.521v-.863a1.4 1.4 0 0 0 -1.4-1.4h-3.542a1.648 1.648 0 0 1 -1.54-1.1c-.123-.324-.256-.646-.4-.961a1.65 1.65 0 0 1 .312-1.867l2.5-2.506a1.4 1.4 0 0 0 0-1.978l-4.082-4.08a1.4 1.4 0 0 0 -1.978 0l-2.523 2.526a1.616 1.616 0 0 1 -1.8.344c-.357-.151-.744-.306-1.076-.437a1.614 1.614 0 0 1 -1.033-1.516v-3.577a1.4 1.4 0 0 0 -1.4-1.4h-5.765a1.4 1.4 0 0 0 -1.4 1.4v3.542a1.647 1.647 0 0 1 -1.1 1.538q-.512.193-1.008.422a1.647 1.647 0 0 1 -1.867-.306l-2.513-2.5a1.39 1.39 0 0 0 -.986-.406 1.392 1.392 0 0 0 -.988.411l-4.069 4.093a1.4 1.4 0 0 0 .006 1.978l2.532 2.518a1.625 1.625 0 0 1 .349 1.8c-.151.357-.305.745-.434 1.077a1.617 1.617 0 0 1 -1.515 1.037l-3.578.009a1.4 1.4 0 0 0 -1.4 1.4v.792z" fill="#191c3c" transform="translate(-504.55 -5928.246)"/><path d="m604.74 6156.023a1.658 1.658 0 0 0 1.663 1.655l3.542-.009a1.4 1.4 0 0 1 1.3.925q.188.5.408.978a1.394 1.394 0 0 1 -.256 1.574l-2.5 2.511a1.659 1.659 0 0 0 0 2.346l4.089 4.072a1.658 1.658 0 0 0 2.346 0l2.519-2.53a1.37 1.37 0 0 1 1.51-.292c.36.153.749.308 1.084.438a1.363 1.363 0 0 1 .869 1.272l.006 3.579a1.657 1.657 0 0 0 1.661 1.655l5.772-.009a1.658 1.658 0 0 0 1.656-1.661l-.006-3.542a1.394 1.394 0 0 1 .926-1.3q.5-.187.977-.408a1.394 1.394 0 0 1 1.575.258l2.509 2.5a1.66 1.66 0 0 0 2.346 0l4.076-4.086a1.659 1.659 0 0 0 0-2.346l-2.527-2.521a1.369 1.369 0 0 1 -.291-1.51c.369-.864.747-1.892.766-1.952h4.525a1.659 1.659 0 0 0 1.657-1.66v-4.909h-13.228a7.912 7.912 0 0 1 .168 3.513 8.179 8.179 0 0 1 -16.09-2.945c.036-.195.091-.38.14-.568h-13.2z" fill="#414042" opacity=".3" transform="translate(-504.841 -5949.749)"/><path d="m98.559 202.656h49.777v38.423h-49.777z" fill="#f5f7f9"/><path d="m0 0h5.1v38.423h-5.1z" fill="#f5f7f9" transform="matrix(-1 0 0 -1 98.559 241.079)"/><path d="m651.671 6192.313h-50.3v-38.943h50.3zm-49.777-.52h49.256v-37.9h-49.256z" fill="#191c3c" transform="translate(-503.074 -5950.974)"/><path d="m596.218 6192.054h-.518v-38.163h-4.58v23.586h-.52v-24.106h5.621z" fill="#191c3c" transform="translate(-497.399 -5950.975)"/><path d="m591.147 6160.109h3.276l1.824-6.189-5.1 1.216z" fill="#231f20" opacity=".2" transform="translate(-497.688 -5951.264)"/><path d="m587.293 6157.65h5.1l1.824-3.73h-5.1z" fill="#f7f9fa" transform="translate(-495.658 -5951.264)"/><path d="m592.093 6157.62h-5.68l2.078-4.25h5.68zm-4.846-.521h4.521l1.57-3.209h-4.521z" fill="#191c3c" transform="translate(-495.195 -5950.974)"/><path d="m651.7 6160.109v-4.973l-49.777-1.216 2.736 6.189z" fill="#231f20" opacity=".2" transform="translate(-503.365 -5951.264)"/><path d="m654.437 6157.65h-49.777l-2.736-3.73h49.776z" fill="#f7f9fa" transform="translate(-503.365 -5951.264)"/><path d="m654.379 6157.62h-50.423l-3.119-4.25h50.423zm-50.16-.521h49.132l-2.351-3.208h-49.135z" fill="#191c3c" transform="translate(-502.792 -5950.974)"/><path d="m580.145 6211.568h1.666a.612.612 0 0 0 .611-.612v-2.124a.611.611 0 0 0 -.611-.611h-1.3a.513.513 0 0 1 -.478-.341c-.046-.123-.1-.242-.15-.36a.513.513 0 0 1 .1-.58l.922-.922a.612.612 0 0 0 0-.864l-1.5-1.5a.61.61 0 0 0 -.864 0l-.929.93a.506.506 0 0 1 -.557.107c-.133-.058-.275-.115-.4-.163a.5.5 0 0 1 -.319-.469v-1.317a.611.611 0 0 0 -.611-.611h-2.125a.611.611 0 0 0 -.611.611v1.3a.512.512 0 0 1 -.341.477q-.192.073-.378.158a.511.511 0 0 1 -.579-.094l-.925-.92a.611.611 0 0 0 -.864 0l-1.5 1.506a.612.612 0 0 0 0 .865l.932.926a.5.5 0 0 1 .108.557c-.056.132-.113.275-.161.4a.5.5 0 0 1 -.469.32h-1.317a.611.611 0 0 0 -.61.612l.006 2.125a.609.609 0 0 0 .612.609h1.3a.515.515 0 0 1 .478.341c.046.121.1.241.15.36a.511.511 0 0 1 -.094.579l-.921.925a.611.611 0 0 0 0 .864l1.506 1.5a.61.61 0 0 0 .863 0l.928-.932a.5.5 0 0 1 .556-.107c.133.057.276.114.4.161a.5.5 0 0 1 .32.469v1.317a.611.611 0 0 0 .612.61h2.125a.61.61 0 0 0 .61-.611v-1.3a.514.514 0 0 1 .341-.478c.122-.046.242-.1.36-.15a.511.511 0 0 1 .579.1l.924.921a.61.61 0 0 0 .864 0l1.5-1.5a.611.611 0 0 0 0-.863l-.931-.928a.5.5 0 0 1 -.107-.556c.134-.335.272-.714.279-.737zm-8.457-2.211a3.011 3.011 0 1 1 1.875 3.35 3.011 3.011 0 0 1 -1.875-3.35z" fill="#b2b8fa" transform="translate(-484.906 -5976.655)"/><path d="m538.673 6203.918h2.211a.81.81 0 0 0 .81-.811v-2.82a.809.809 0 0 0 -.811-.809h-1.73a.681.681 0 0 1 -.634-.452q-.091-.243-.2-.478a.683.683 0 0 1 .126-.771l1.224-1.225a.81.81 0 0 0 0-1.146l-2-1.993a.809.809 0 0 0 -1.146 0l-1.232 1.233a.67.67 0 0 1 -.738.141c-.176-.075-.365-.151-.529-.216a.665.665 0 0 1 -.424-.622v-1.749a.811.811 0 0 0 -.81-.812h-2.82a.811.811 0 0 0 -.81.812v1.73a.68.68 0 0 1 -.453.632c-.169.063-.337.134-.5.209a.68.68 0 0 1 -.769-.124l-1.228-1.221a.812.812 0 0 0 -1.146 0l-1.988 2a.809.809 0 0 0 0 1.146l1.237 1.23a.668.668 0 0 1 .143.737c-.075.176-.15.366-.214.53a.665.665 0 0 1 -.621.425h-1.748a.81.81 0 0 0 -.808.812l.007 2.82a.812.812 0 0 0 .812.809h1.731a.681.681 0 0 1 .634.452q.092.242.2.478a.681.681 0 0 1 -.125.77l-1.222 1.227a.81.81 0 0 0 0 1.146l2 1.989a.809.809 0 0 0 1.146 0l1.231-1.235a.668.668 0 0 1 .738-.143c.176.075.366.15.53.214a.667.667 0 0 1 .425.622v1.748a.811.811 0 0 0 .812.81h2.819a.81.81 0 0 0 .809-.812v-1.729a.679.679 0 0 1 .453-.634c.161-.062.321-.129.477-.2a.681.681 0 0 1 .769.126l1.226 1.223a.81.81 0 0 0 1.146 0l1.991-2a.811.811 0 0 0 0-1.146l-1.234-1.231a.669.669 0 0 1 -.142-.738c.181-.423.366-.925.375-.954zm-11.222-2.935a4 4 0 1 1 2.488 4.445 4 4 0 0 1 -2.488-4.445z" fill="#2e35a8" transform="translate(-460.779 -5971)"/><path d="m1107.094 6194.9a12.53 12.53 0 1 1 -12.53-12.53 12.529 12.529 0 0 1 12.53 12.53z" fill="#ffc200" transform="translate(-756.235 -5966.249)"/><path d="m1107.248 6196.426a11.161 11.161 0 1 1 -11.161-11.161 11.16 11.16 0 0 1 11.161 11.161z" fill="#fed248" transform="translate(-757.759 -5967.773)"/><path d="m1107.4 6197.883a9.85 9.85 0 1 1 -9.851-9.85 9.851 9.851 0 0 1 9.851 9.85z" fill="#ffc200" transform="translate(-759.217 -5969.231)"/><path d="m1140.655 6204.89a9.433 9.433 0 1 1 -9.434-9.435 9.433 9.433 0 0 1 9.434 9.435z" fill="#ffc200" transform="translate(-776.788 -5973.129)"/><path d="m1140.771 6206.037a8.4 8.4 0 1 1 -8.4-8.4 8.4 8.4 0 0 1 8.4 8.4z" fill="#fed248" transform="translate(-777.935 -5974.277)"/><path d="m1140.883 6207.134a7.416 7.416 0 1 1 -7.416-7.417 7.416 7.416 0 0 1 7.416 7.417z" fill="#ffc200" transform="translate(-779.033 -5975.374)"/><path d="m854.586 5850.532a39.741 39.741 0 1 0 -61.468 33.27v18.644h43.454v-18.646a39.7 39.7 0 0 0 18.014-33.268z" fill="#ffc200" transform="translate(-594.578 -5770.541)"/><path d="m793.088 5885.754h-.521v-2.1a40 40 0 1 1 43.975 0v2.1h-.521v-2.383l.118-.077a39.481 39.481 0 1 0 -43.169 0l.118.077z" fill="#191c3c" transform="translate(-594.288 -5770.251)"/><path d="m856.3 5990.206-14.45 12.084h-21.507l-13.13-12.084v-18.986h49.087z" fill="#2e35a8" transform="translate(-611.489 -5855.037)"/><rect fill="#3b86ff" height="3.643" rx=".543" width="53.249" x="193.588" y="117.917"/><rect fill="#3b86ff" height="3.642" rx=".543" width="53.249" x="193.588" y="124.001"/><path d="m.543 0h52.164a.543.543 0 0 1 .543.543v2.557a.543.543 0 0 1 -.543.543h-52.165a.542.542 0 0 1 -.542-.543v-2.557a.543.543 0 0 1 .543-.543z" fill="#3b86ff" transform="translate(193.588 130.084)"/><path d="m0 0h22.3a0 0 0 0 1 0 0v5.011a2.126 2.126 0 0 1 -2.126 2.126h-18.048a2.126 2.126 0 0 1 -2.126-2.126v-5.011a0 0 0 0 1 0 0z" fill="#191c3c" transform="translate(208.237 146.685)"/><path d="m855.8 5862.524a28.964 28.964 0 1 1 -28.964-28.964 28.965 28.965 0 0 1 28.964 28.964z" fill="#fed248" transform="translate(-606.57 -5782.532)"/><path d="m936.635 5936.084-12-7a5.354 5.354 0 0 1 -2.353-2.852l-9.335-24.5a3.36 3.36 0 0 1 -1.654-2.507l.158-1.129c.194-.85.075-1.619.74-2.087l.4-.282.342-2.081-.753-2.15-1.381-.863a1.508 1.508 0 0 1 -.68-2.068l.483.359 2.467 1.163a1.9 1.9 0 0 1 .866.825l.833 1.475 3.058 4.215a2.784 2.784 0 0 1 .471 2.091l-.168 6.581 8.351 16.267a7.347 7.347 0 0 0 2.994 2.732l11.43 5.631z" fill="#3b86ff" transform="translate(-665.598 -5811.502)"/><path d="m950.926 5964.008 11.574 3.992-4.809 9.115-9.5-3.873c1.304-1.815 2.735-9.234 2.735-9.234z" fill="#b2b8fa" transform="translate(-685.743 -5851.238)"/><path d="m273.142 226.52h5.447v7.939h-5.447z" fill="#3b86ff"/><path d="m0 0h5.447v7.939h-5.447z" fill="#3b86ff" transform="matrix(.98382256 -.17914564 .17914564 .98382256 286.617 226.648)"/><path d="m957.54 6058.05 1.27 41.3 4.63 30.542h6.633l-2.27-32.879-.289-23.345z" fill="#2e35a8" transform="translate(-690.665 -5900.769)"/><path d="m978.606 6045.6s3.948 5.726 0 15.618l.911 26.2 5.639 34.359h-6.551l-9.679-33.891-8.7-34.954v-10.286z" fill="#2e35a8" transform="translate(-692.078 -5892.659)"/><path d="m976.813 5977.808s-5.431 18.438.426 31.582c0 0-17.649 7.636-24.373 1.215 0 0 4.165-20.6 4.035-27.35a4.083 4.083 0 0 1 -2.944-6.166c2.425-3.981 5.665-9.066 7.563-11.1h12.82s4.226 5.322 2.473 11.819z" fill="#b2b8fa" transform="translate(-688.203 -5852.283)"/><path d="m968.676 5913.843.057-.025c-.033-.018-.076-.01-.057.025z" fill="#191c3c" transform="translate(-696.528 -5824.799)"/><path d="m972.355 5918.654a5.675 5.675 0 0 0 -.526-1.078q-1.616-2.785-3.346-5.5l-1.87.829c.018.006.039.011.038.031 0 .06-.07.092-.127.112a2.936 2.936 0 0 0 -1.872 2.85 4.977 4.977 0 0 0 1.359 2.745 9.5 9.5 0 0 1 1.779 2.539 6.473 6.473 0 0 0 .528 1.333 2.38 2.38 0 0 0 1.536.935 7.059 7.059 0 0 0 1.838.042.77.77 0 0 0 .4-.1.6.6 0 0 0 .2-.285 2.577 2.577 0 0 0 .13-.811l.081-1.535a5.818 5.818 0 0 0 -.148-2.107z" fill="#191c3c" transform="translate(-694.408 -5823.885)"/><path d="m977.893 5953.238h-8.132s1.084-5.233-1.179-9.658c-1-1.954 9.311-1.8 9.311-1.8z" fill="#3b86ff" transform="translate(-696.445 -5839.53)"/><path d="m970.485 5917.073c-1.305-1.668-3.607-2.892-5.53-2.006l-.049.538c-.833 3.043-3.833 5.159-4.545 8.233a6.2 6.2 0 0 0 3.946 7.033 12.016 12.016 0 0 0 4.205.355 1.877 1.877 0 0 0 .751-.129 1.755 1.755 0 0 0 .587-.536 12.191 12.191 0 0 0 2.653-6.662 10.056 10.056 0 0 0 -2.018-6.826z" fill="#3b86ff" transform="translate(-692.078 -5825.304)"/><path d="m977.809 5976.168 5 16.52a10.767 10.767 0 0 1 .306 4.94l-2.882 16.768-1.905 4.2a2.427 2.427 0 0 0 .49 2.713l.8.8.349 3.971a2.435 2.435 0 0 0 1.7 2.108l1.3-1.432 1.208-1.3a2.818 2.818 0 0 0 .663-1.208l.443-1.7a3 3 0 0 0 .06-1.227l-.813-5.107 5.152-20.837a4.905 4.905 0 0 0 -.046-2.528l-5.337-18.651a3.389 3.389 0 0 0 -3.269-2.495 3.39 3.39 0 0 0 -3.219 4.465z" fill="#3b86ff" transform="translate(-701.247 -5855.293)"/><path d="m976.787 5974.5 2.038 10.123c3.327-2.343 7.071-.137 8.406-1.822l-3.593-10.379a3.581 3.581 0 0 0 -3.454-2.636 3.581 3.581 0 0 0 -3.397 4.714z" fill="#b2b8fa" transform="translate(-700.704 -5854.28)"/><path d="m988.1 5939.834c-.32-1.417-.953-2.748-1.293-4.16a20.9 20.9 0 0 1 -.437-3.58 51.828 51.828 0 0 1 .028-10.289c.271-1.991.774-4.022.333-5.984-.628-2.79-3.1-4.87-5.8-5.823a25.56 25.56 0 0 0 -8.479-.986c-1.07 0-3.114-.047-3.776 1.033-.629 1.026.694 2.841 1.3 3.594a14.118 14.118 0 0 1 2.3 3.145 6.05 6.05 0 0 1 .3 3.408c-.2 1.137-.808 2.076-1.109 3.159a8.043 8.043 0 0 0 -.092 3.256 9.56 9.56 0 0 0 1.546 3.394 18.385 18.385 0 0 0 1.673 2.283c1.1 1.236 2.482 2.251 3.286 3.7 1.754 3.155.195 7.127.868 10.673a8.689 8.689 0 0 0 6.024 6.591 12.919 12.919 0 0 1 .721-3.649c.446-1.09 1.179-2.037 1.725-3.081a9.867 9.867 0 0 0 .882-6.684z" fill="#191c3c" transform="translate(-696.445 -5822.271)"/><path d="m987.865 6213.9-6.421 5.731-4.4 1.429a1.6 1.6 0 0 0 -1.055 1.861l.237.494 5.417-.067 13.167-1.879a1.908 1.908 0 0 0 1.451-2.276l-.32-1.441a9.808 9.808 0 0 0 -1.992-4.1l-.767-.935a2.168 2.168 0 0 1 -1.648 2.587l-1.082.24a2.169 2.169 0 0 1 -2.588-1.648z" fill="#191c3c" transform="translate(-700.362 -5982.234)"/><path d="m996.167 6225.482a1.9 1.9 0 0 1 -1.354 1.147l-13.167 1.878-5.418.068-.046-.1a1.592 1.592 0 0 0 -.191 1.164l.237.494 5.418-.068 13.167-1.878a1.908 1.908 0 0 0 1.451-2.276z" fill="#ffc200" transform="translate(-700.363 -5988.955)"/><path d="m955.454 6216.528-9.606 5.379-2.733.285a1.6 1.6 0 0 0 -1.432 1.588v1.641h18.917a1.909 1.909 0 0 0 1.908-1.909v-1.476a9.792 9.792 0 0 0 -1.058-4.429l-.547-1.079a2.169 2.169 0 0 1 -2.169 2.169h-1.109a2.169 2.169 0 0 1 -2.169-2.169z" fill="#191c3c" transform="translate(-682.313 -5984.238)"/><path d="m960.6 6229.929h-18.916v1.562h18.916a1.908 1.908 0 0 0 1.909-1.908v-1.476c0-.019 0-.037 0-.055a1.907 1.907 0 0 1 -1.909 1.877z" fill="#ffc200" transform="translate(-682.313 -5990.308)"/><path d="m177.347 227.7h4.402v6.701h-4.402z" fill="#3b86ff"/><path d="m765.621 6217.346a27.445 27.445 0 0 1 -1.013 5.175c-.1.3-.346.542-.346.862v2.47h10.412v-1.312a2.81 2.81 0 0 0 -.555-1.672c-.886-1.2-3.52-3.677-3.107-5.523z" fill="#ffc200" transform="translate(-588.867 -5984.671)"/><path d="m767.158 6217.345h-.025s.007.043.012.067c.004-.021.01-.046.013-.067z" fill="#191c3c" transform="translate(-590.379 -5984.67)"/><path d="m764.262 6231.556v1.78h10.412v-1.311a2.82 2.82 0 0 0 -.041-.47z" fill="#191c3c" transform="translate(-588.867 -5992.155)"/><rect fill="#191c3c" height=".643" rx=".271" width="2.868" x="178.534" y="234.08"/><rect fill="#191c3c" height=".643" rx=".271" width="2.868" x="178.88" y="235.514"/><path d="m148.714 227.7h4.402v6.701h-4.402z" fill="#3b86ff"/><path d="m732.509 6077.755c1.225 3.031 8.676 23.687 8.676 23.687l6.716 31.54h6.559l-3.384-35.791-2.473-38-14.218 1.691-2.571 12.712z" fill="#191c3c" transform="translate(-571.778 -5901.369)"/><path d="m701.8 6068.228.411 31.756 1.562 34.879h6.247l2.517-27.808 6.042-32.746v-11.548l-15.586 1.432z" fill="#191c3c" transform="translate(-555.969 -5903.252)"/><path d="m724.962 5964.425h-9.371v-12.342h10.25c-2.376 3.084-.879 12.342-.879 12.342z" fill="#3b86ff" transform="translate(-563.233 -5844.958)"/><path d="m704.281 6020.2c.3 7.309 23.947-4.471 29.1-1.735l-6.247-42.994s-5.723-2.276-8.148-.5c-3.341 2.451-9.371 0-9.371 0l-4.208 1.67s-1.386 37.314-1.126 43.559z" fill="#fff" transform="translate(-557.259 -5856.657)"/><path d="m734.417 5961.824s-1.7 28.376 12.339 46.343c0 0 4.291 10.605 7.761 11.126 0 0 3.623-9.2-.8-16.462-2.718-4.462-7.967-14.239-8.279-19.455l-.893-14.969z" fill="#2e35a8" transform="translate(-573.114 -5850.088)"/><path d="m701.866 5961.824s4.1 18.592 4.208 28.092c.087 7.722-11.906 33.475-11.906 33.475s-7.4-7.726-3.5-16.656c2.574-5.886 5.446-10.541 5.08-14.408l.1-26.573z" fill="#2e35a8" transform="translate(-549.508 -5850.088)"/><path d="m725.694 5933.858a19.654 19.654 0 0 0 -1.937-6.929c-.492-1.075-1.032-2.13-1.624-3.151a7.141 7.141 0 0 1 -.589-1.072 1.326 1.326 0 0 0 -1.1-.766 3.9 3.9 0 0 0 -1.392.159 26.116 26.116 0 0 0 -5.622 1.754 10.955 10.955 0 0 0 -1.958 1.138 5.931 5.931 0 0 0 -1.934 2.661 10.6 10.6 0 0 0 -.015 5.643 4.858 4.858 0 0 0 .408 1.328 4.95 4.95 0 0 0 2.058 1.794q1.575.907 3.2 1.721a11.714 11.714 0 0 0 1.969.826 12.381 12.381 0 0 0 3.77.3 5.968 5.968 0 0 0 2.867-.565 3.8 3.8 0 0 0 1.626-2.131 7.3 7.3 0 0 0 .273-2.71z" fill="#3b86ff" transform="translate(-559.837 -5829.074)"/><path d="m717.619 5910.61a12.236 12.236 0 0 1 -6.516 2.357 34.625 34.625 0 0 0 -6.925 1.115c-1.377.468-3.517 1.331-4.178 2.742-.926 1.978-.777 4.908-.27 6.967a10.359 10.359 0 0 0 2.162 4.255 11.77 11.77 0 0 0 4.108 2.754c.131.064.261.13.39.2a1.936 1.936 0 0 0 .407.235c.262.055.32-.4.318-.6a2.3 2.3 0 0 0 -.36-1.125 6.849 6.849 0 0 0 -.667-.816 4.668 4.668 0 0 1 -.683-2.745 3.476 3.476 0 0 1 .088-1.4 1.319 1.319 0 0 1 .98-.923 1.758 1.758 0 0 1 1.332.555 7.148 7.148 0 0 1 1.764 2.333l.077-2.47a6.049 6.049 0 0 1 .213-1.687c.231-.711.732-1.405.554-2.13a7.723 7.723 0 0 1 -.338-.965 1.286 1.286 0 0 1 .747-1.184 4.784 4.784 0 0 1 1.43-.379c.765-.136 1.485-.388 2.228-.593a4.689 4.689 0 0 0 1.933-.926 3.731 3.731 0 0 0 1.071-1.953 10.138 10.138 0 0 0 .19-2.25 11.143 11.143 0 0 0 -.055-1.367z" fill="#191c3c" transform="translate(-554.666 -5823.114)"/><path d="m765.644 5991.795 5.884 13.007a4.584 4.584 0 0 1 .179 3.317l-8.64 24.911-2.839-4.262 3.83-19.492a4.56 4.56 0 0 0 -.583-3.383l-4.122-6.627z" fill="#3b86ff" transform="translate(-586.282 -5865.874)"/><path d="m672.611 6004.558-5.034 12.987a4.583 4.583 0 0 0 .355 4.046l16 20.374 2.839-4.263-10.263-16.239a4.856 4.856 0 0 1 .109-4.428l4.972-8.746s-6.027 2.242-8.978-3.731z" fill="#3b86ff" transform="translate(-537.779 -5872.596)"/><path d="m705.324 6074.585 1.833.326 1.267 1.166a1.141 1.141 0 0 1 .088 1.59l-.376.432.567.906a1.047 1.047 0 0 1 -.076 1.217l-1.77 2.173a1.047 1.047 0 0 1 -1.365.229l-1.918-1.191a1.793 1.793 0 0 1 -.815-1.181l-.274-1.4z" fill="#3b86ff" transform="translate(-556.33 -5909.479)"/><path d="m757.4 6069.911-1.833.326-.928 1.116a1.632 1.632 0 0 0 .175 2.268l-.545.617a1.149 1.149 0 0 0 -.029 1.485l1.573 1.93a1.148 1.148 0 0 0 1.5.25l1.844-1.144a1.8 1.8 0 0 0 .815-1.181l.273-1.4z" fill="#3b86ff" transform="translate(-583.451 -5907.017)"/><path d="m704.547 6217.346a6.212 6.212 0 0 1 -1.534 5.175 1.31 1.31 0 0 0 -.346.862v2.47h9.891v-1.312a2.81 2.81 0 0 0 -.556-1.672c-.886-1.2-2.479-3.677-2.066-5.523z" fill="#ffc200" transform="translate(-556.426 -5984.671)"/><path d="m706.663 6217.345h-.025l.013.067c.003-.021.009-.046.012-.067z" fill="#191c3c" transform="translate(-558.517 -5984.67)"/><path d="m702.668 6231.556v1.78h9.891v-1.311a2.763 2.763 0 0 0 -.042-.47z" fill="#191c3c" transform="translate(-556.426 -5992.155)"/><rect fill="#191c3c" height=".643" rx=".271" width="2.868" x="149.902" y="234.08"/><rect fill="#191c3c" height=".643" rx=".271" width="2.868" x="150.248" y="235.514"/><path d="m694.688 5961.824-6.527 4.262-2.909 1.383a8.172 8.172 0 0 0 -4.1 4.413l-5.244 11.933c5.666 1.1 5.9 6.218 9.938 5.265l5.8-13.8 3.051-6.876z" fill="#2e35a8" transform="translate(-542.329 -5850.088)"/><path d="m734.489 5961.824 6.543 2.808 3.647.954a7.742 7.742 0 0 1 5.1 4.3l6.091 12.107c-3.9 0-7.962 5.231-8.59 4.221l-7.483-13.123z" fill="#2e35a8" transform="translate(-573.186 -5850.088)"/><path d="m38.868 240.922h195.074v.521h-195.074z" fill="#191c3c"/><path d="m17.357 240.922h18.992v.521h-18.992z" fill="#191c3c"/><path d="m241.995 240.922h163.243v.521h-163.243z" fill="#191c3c"/></svg>