<svg height="245.635" viewBox="0 0 300.504 245.635" width="300.504" xmlns="http://www.w3.org/2000/svg"><g fill="#ff0e18"><path d="m4026.083 4374.568.739-.226-.157-.526-.742.221zm-.984-3.529.75-.187c-.083-.334-.164-.667-.241-1l-.752.176c.077.338.159.672.244 1.012zm-.877-4.055.761-.138q-.092-.507-.174-1.008l-.763.124c.054.338.114.68.175 1.023zm-.591-4.109.77-.081q-.055-.513-.1-1.019l-.771.066q.045.515.1 1.034zm-.271-4.145.774-.019c-.008-.343-.013-.684-.014-1.021h-.774q.001.518.012 1.04zm.853-4.1c.021-.341.047-.682.076-1.018l-.771-.068c-.029.344-.055.688-.077 1.037zm.441-4.061q.08-.507.169-1.007l-.762-.136c-.06.339-.117.68-.169 1.025zm.807-4c.083-.333.167-.663.256-.99l-.747-.2c-.09.334-.177.669-.26 1.006zm1.148-3.924c.11-.325.223-.646.337-.967l-.728-.261q-.175.487-.342.979zm1.455-3.828c.132-.314.268-.629.4-.939l-.708-.312c-.139.316-.276.633-.41.953zm1.7-3.729c.151-.308.3-.614.458-.919l-.692-.349c-.155.308-.308.616-.46.928zm1.886-3.649q.245-.455.491-.9l-.677-.374q-.248.451-.494.909zm1.995-3.6.506-.9-.673-.381-.507.9zm2.02-3.6q.25-.455.5-.905l-.679-.371q-.246.45-.5.9zm1.948-3.65c.158-.309.312-.62.464-.928l-.7-.34c-.149.307-.3.611-.457.918zm1.754-3.761c.134-.322.265-.642.391-.965l-.72-.282q-.185.473-.383.948zm1.4-3.919c.1-.335.19-.67.276-1.006l-.749-.193c-.084.33-.174.656-.269.982zm.879-4.08c.046-.344.085-.691.118-1.039l-.77-.071q-.047.507-.114 1.007z" transform="translate(-3986.145 -4198.124)"/><path d="m4009.733 4368.8h.922c-11.65-27.493.921-49.487 9.538-60.011 7.286-8.9 14.884-13.71 16.59-13.354 1.542.315 12.077 25.457 13.977 36.467l.761-.131c-1.731-10.036-12.194-36.6-14.583-37.093-2.161-.446-9.992 4.641-17.344 13.621-8.726 10.659-21.67 32.635-9.861 60.501z" transform="translate(-3979.968 -4191.796)"/><path d="m4081.568 4332.873h.821c-6.95-7.869-7.861-14.882-8.915-23.006a71.915 71.915 0 0 0 -3.185-15.228c-3.552-10.22-.753-16.629 1.953-22.827 2.538-5.813 5.162-11.824 2.5-20.813-3.683-12.425 2.182-25.122 8.008-28.758 1.521-.948 3.737-1.709 5.654.056 1.579 1.452 1.316 5.631 1.039 10.056-.293 4.66-.594 9.477 1.064 12.421.777 1.379 1.685 2.742 2.645 4.184 3.971 5.969 8.474 12.732 5.771 23.957l.751.18c2.782-11.553-1.819-18.465-5.879-24.564-.952-1.43-1.852-2.781-2.614-4.135-1.547-2.746-1.253-7.448-.967-11.992.289-4.614.563-8.974-1.287-10.676-1.775-1.634-4.115-1.683-6.587-.141-6.035 3.764-12.127 16.859-8.34 29.634 2.584 8.718.131 14.335-2.465 20.284-2.767 6.333-5.626 12.884-1.976 23.388a71.321 71.321 0 0 1 3.149 15.075c1.025 7.903 1.753 14.86 8.86 22.905z" transform="translate(-4067.834 -4155.852)"/></g><g opacity=".5"><path d="m140.861 5.602h95.275v29.884h-95.275z" fill="#fff"/><g fill="#d4d4d5"><path d="m145.099 9.154h22.831v22.78h-22.831z" opacity=".3"/><path d="m174.258 9.154h57.59v4.015h-57.59z" opacity=".3"/><path d="m174.258 16.577h57.59v4.015h-57.59z" opacity=".3"/><path d="m174.258 23.999h23.032v4.015h-23.032z" opacity=".3"/></g></g><g opacity=".5"><path d="m151.666 53.517h148.838v80.383h-148.838z" fill="#fff"/><path d="m151.666 53.517h148.838v17.917h-148.838z" fill="#e0e4f0"/><path d="m953.3 5869.1h130.287c-.2 0 .311-29.308-.07-32.256-4.485 2.358-7.9 6.871-12.663 9.226-3.827 1.893-8.456 3.047-12.735 2.327-4.015-.676-7.283-3.7-11.406-3.98-5.354-.359-8.978 4-12.8 7-5.368 4.2-12.177 9.3-19.092 10.352-4.461.681-8.062-1.315-10.835-4.673-3.592-4.35-5.427-8.3-11.519-9.138a19.082 19.082 0 0 0 -13.871 3.493c-4.668 3.638-7.453 9.618-12.814 12.126a12.181 12.181 0 0 1 -6.126 1.079c-1.366-.112-4.865-1.97-6.075-.909-.891.777-.281 4.166-.281 5.353z" fill="#3b86ff" opacity=".5" transform="translate(-791.136 -5748.436)"/><g fill="#fff"><path d="m957.856 5789.608a1.962 1.962 0 1 1 -1.962-1.962 1.962 1.962 0 0 1 1.962 1.962z" transform="translate(-791.496 -5727.244)"/><path d="m973.874 5789.608a1.962 1.962 0 1 1 -1.962-1.962 1.962 1.962 0 0 1 1.962 1.962z" transform="translate(-798.395 -5727.244)"/><path d="m989.893 5789.608a1.962 1.962 0 1 1 -1.962-1.962 1.962 1.962 0 0 1 1.962 1.962z" transform="translate(-805.294 -5727.244)"/></g></g><g opacity=".5"><path d="m1079.629 5998.074v65.268h-49.045v-65.267z" fill="#fff" transform="translate(-989.629 -5990.364)"/><g fill="#f2f3f7"><path d="m44.715 25.153h8.114v8.114h-8.114z"/><path d="m1083.363 6025.105h-30.763v-2.028h30.765z" transform="translate(-996.286 -5997.924)"/><path d="m1064.938 6032.339h-12.338v-2.029h12.339z" transform="translate(-996.286 -6000.111)"/><path d="m1083.363 6047.994h-30.763v-2.028h30.765z" transform="translate(-996.286 -6004.845)"/><path d="m1064.938 6055.227h-12.338v-2.027h12.339z" transform="translate(-996.286 -6007.033)"/><path d="m1083.363 6070.881h-30.763v-2.027h30.765z" transform="translate(-996.286 -6011.766)"/><path d="m1064.938 6078.114h-12.338v-2.028h12.339v2.028z" transform="translate(-996.286 -6013.952)"/><path d="m44.715 40.601h8.114v8.114h-8.114z"/><path d="m44.715 56.048h8.114v8.114h-8.114z"/></g><path d="m1040.28 6029.068-4.178-4.178 1.442-1.442 2.736 2.735 7.219-7.219 1.442 1.444z" fill="#3b86ff" transform="translate(-991.298 -5996.68)"/><path d="m1040.28 6050.569-4.178-4.18 1.442-1.441 2.736 2.736 7.219-7.219 1.442 1.442z" fill="#3b86ff" transform="translate(-991.298 -6003.182)"/><path d="m1040.28 6072.071-4.178-4.178 1.442-1.442 2.736 2.736 7.219-7.22 1.442 1.441z" fill="#3b86ff" transform="translate(-991.298 -6009.683)"/></g><path d="m1208.9 6863.315-20.724 5.35-4.176 43.081 5.757 56.584 55.07 1.163 4.109-55.973-3.581-44.555-13.479-5.651z" fill="#acb4c3" transform="translate(-1090.058 -6820.515)"/><path d="m1208.9 6863.315-20.724 5.35-4.176 43.081 5.757 56.584 55.07 1.163 4.109-55.973-3.581-44.555-13.479-5.651z" fill="#ff0e18" transform="translate(-1090.058 -6820.515)"/><path d="m64.124 205.786h14.423v18.785h-14.423z" fill="#3b86ff"/><path d="m181.327 205.786h14.424v18.785h-14.424z" fill="#3b86ff"/><path d="m1170.492 6969.972 11.893 10.658a18.83 18.83 0 0 0 12.566 4.806h45.749a18.83 18.83 0 0 0 11.623-4.016l18.078-14.183-2.236-18.218-38.46 3.046h-25.842l-33.366-4.887-3.666 2.583z" fill="#b2b8fa" transform="translate(-1092.633 -6807.934)"/><path d="m1170.491 6985.592h99.909l-2.236-36.812-38.46 3.045h-25.842l-33.366-1.579-3.667 1.48z" fill="#8590a1" transform="translate(-1092.633 -6807.694)"/><path d="m1159.23 7018.243a41.861 41.861 0 0 1 -9.564 20.2v4.645h27.995l.544-6.476s-4.122-10.377-4.529-15.261c0 .001-1.424-7.089-14.446-3.108z" fill="#ff0e18" transform="translate(-1095.208 -6797.455)"/><path d="m1178.068 7035.552s-23.349-1.409-28.4.2v4.645h27.995z" fill="#cf1018" transform="translate(-1095.208 -6794.763)"/><path d="m64.124 225.459h7.833v2.497h-7.833z" fill="#fff"/><path d="m63.445 228.344h7.833v2.497h-7.833z" fill="#fff"/><path d="m61.919 232.026h7.836v2.498h-7.836z" fill="#fff"/><path d="m1274.8 7018.243a41.847 41.847 0 0 0 9.564 20.2v4.645h-28l-.543-6.476s4.121-10.377 4.528-15.261c.007.001 1.432-7.089 14.451-3.108z" fill="#ff0e18" transform="translate(-1079.282 -6797.455)"/><path d="m1255.947 7035.552s23.349-1.409 28.4.2v4.645h-28z" fill="#cf1018" transform="translate(-1079.264 -6794.763)"/><path d="m187.585 225.459h7.833v2.497h-7.833z" fill="#fff"/><path d="m188.263 228.344h7.833v2.497h-7.833z" fill="#fff"/><path d="m189.79 232.026h7.833v2.498h-7.833z" fill="#fff"/><path d="m1159.612 7026.958h15.668s3.887-50.01 2.083-75.159a5.071 5.071 0 0 0 -5.07-4.7h-5.586c-10.218 0-17.327 8.48-18.048 18.672-1.866 26.399 10.953 61.187 10.953 61.187z" fill="#8590a1" transform="translate(-1095.387 -6807.946)"/><path d="m1275.5 7028.5h-15.668s-9-50.993-7.682-75.736a4.343 4.343 0 0 1 4.338-4.121h6.219a18.048 18.048 0 0 1 18.048 18.674c-.881 25.041-5.255 61.183-5.255 61.183z" fill="#8590a1" transform="translate(-1079.854 -6807.714)"/><path d="m1278.236 6948.876h-6.219a4.282 4.282 0 0 0 -1.1.159l-38.46 3.046h-25.842l-29.473-1.395a5.072 5.072 0 0 0 -4.85-3.582h-5.586c-10.218 0-17.327 8.48-18.048 18.672-1.865 26.4 10.954 61.184 10.954 61.184h15.668s1.555-20.032 2.242-41.114h91.8c2.3 21.691 6.043 42.889 6.043 42.889h15.668s4.378-36.144 5.255-61.183a18.047 18.047 0 0 0 -18.052-18.676z" fill="#2e35a8" transform="translate(-1095.387 -6807.946)"/><path d="m1282.744 7024.976s-11.154-26.784-13.716-50.9l-34.945.948a29.08 29.08 0 0 0 -10.388 2.224l-2.14.89-4.142-1.717a30.518 30.518 0 0 0 -11.682-2.325h-33.507c-.762 23.441-7.533 48.73-7.533 48.73l8.157.086s1.555-20.032 2.241-41.114h91.8c2.3 21.691 6.043 42.89 6.043 42.89z" fill="#191c3c" opacity=".1" transform="translate(-1092.954 -6803.9)"/><path d="m1199.106 6929.809-3.509-.14-6.189 6.036-12.275-6.808 5.255-16.461-17.527-2.883-7.834 27.857a4.481 4.481 0 0 0 4.377 5.846l27.135 5.9 7.669 2.49 7.923-2.442 7.135-3.866.654-6.54a1.462 1.462 0 0 0 -1.455-1.606h-7.542l-4.884-2.329h1.067z" fill="#3b86ff" transform="translate(-1094.136 -6813.578)"/><path d="m1161.89 6916.9 19.334-1.119.4-3.347-17.527-2.883z" fill="#191c3c" opacity=".15" transform="translate(-1093.374 -6813.578)"/><path d="m1196.493 6883.051 15.757-19.736-24.925 6.435a18.936 18.936 0 0 0 -13.118 12.016l-12.507 34.324 23.053 3.792z" fill="#ff0e18" transform="translate(-1093.403 -6820.515)"/><path d="m1265.343 6909.553 7.834 30.128a4.479 4.479 0 0 1 -4.377 5.844l-26.32 4.763-7.669 2.491-7.922-2.442-7.135-3.866-.654-6.54a1.463 1.463 0 0 1 1.455-1.607h7.542l4.884-2.328h-2.1l-2.617.392a2.623 2.623 0 0 1 -3.012-2.595l5.084-2.786 5.09-.2 6.189 6.036 11.461-5.674-5.256-18.73z" fill="#3b86ff" transform="translate(-1084.793 -6813.578)"/><path d="m1261.6 6909.553-17.527 2.883.982 2.441 18.521 2.276z" fill="#191c3c" opacity=".15" transform="translate(-1081.046 -6813.578)"/><path d="m1234.074 6883.051-15.757-19.736 24.925 6.435a18.936 18.936 0 0 1 13.118 12.016l12.509 34.325-23.053 3.792z" fill="#ff0e18" transform="translate(-1084.909 -6820.515)"/><path d="m1214.546 6886.984a10.208 10.208 0 0 1 -10.207-10.208v-17.709h20.415v17.709a10.208 10.208 0 0 1 -10.208 10.208z" fill="#3b86ff" transform="translate(-1087.006 -6821.151)"/><path d="m1233.47 6846.724c-.415 5.2-.633 11.295-5.719 14.243a4.147 4.147 0 0 1 -1.252.521 4.251 4.251 0 0 1 -1.125.042 11.122 11.122 0 0 1 -4.384-1.237 5.644 5.644 0 0 0 -1.465-.636c-1.7-.339-3.084 1.258-4.521 2.236-2.708 1.843-6.327 1.584-9.49.732-1.8-.485-3.838-1.454-4.124-3.3-.145-.932.206-1.935-.167-2.8a4.689 4.689 0 0 0 -1.569-1.589c-1.346-1.081-1.242-3.192-1.278-4.8q-.043-1.942-.087-3.884a10.971 10.971 0 0 0 -.154-1.916c-.153-.762-.468-1.493-.547-2.267-.1-.95.39-1.247.7-2 .26-.639.14-1.362.5-2.005a23.157 23.157 0 0 1 1.579-2.094c.658-.913.931-1.927 1.5-2.878.857-1.428 1.8-3.252 3.531-3.762a4.37 4.37 0 0 1 1.26-.138 10.919 10.919 0 0 1 2.024.206 1.7 1.7 0 0 0 .591.053 1.426 1.426 0 0 0 .681-.366 6.2 6.2 0 0 0 1.058-1.141 2.789 2.789 0 0 1 .865-.992 7.245 7.245 0 0 1 5.44-.549 8.272 8.272 0 0 0 1 .337 5.272 5.272 0 0 0 1.528.009 9.9 9.9 0 0 1 1.546.067 9.56 9.56 0 0 1 1.558.1c.567.126 1.115.322 1.681.451.768.175 1.56.225 2.335.375a4.3 4.3 0 0 1 2.131.952 4.539 4.539 0 0 1 .623.747c1.034 1.474 2.155 3.618 2.075 5.464a3.455 3.455 0 0 0 .085 1.346c.237.645.9 1.035 1.245 1.628.805 1.376-.34 3.117-.106 4.694.068.461.255.9.369 1.351a8.708 8.708 0 0 1 .083 2.8z" transform="translate(-1088.021 -6826.098)"/><path d="m1206 6861.041a4.684 4.684 0 0 1 -5.162-3.57s-3.129-8.435 0-8.841c0 0 6.587 4.3 6.587 6.22a29.844 29.844 0 0 1 -1.425 6.191z" fill="#3b86ff" transform="translate(-1087.741 -6822.718)"/><path d="m1223.516 6861.041a4.684 4.684 0 0 0 5.162-3.57s3.129-8.435 0-8.841c0 0-6.587 4.3-6.587 6.22a29.846 29.846 0 0 0 1.425 6.191z" fill="#3b86ff" transform="translate(-1084.343 -6822.718)"/><path d="m1222.183 6876.88-.367.208a12.484 12.484 0 0 1 -6.194 1.645 12.477 12.477 0 0 1 -6.453-1.8 15.122 15.122 0 0 1 -7.307-12.948v-24.914h27.938v24.673a15.129 15.129 0 0 1 -7.617 13.136z" fill="#3b86ff" transform="translate(-1087.378 -6824.151)"/><path d="m1232.567 6835.056a6.848 6.848 0 0 0 -2.352-1.9 23.7 23.7 0 0 0 -28.16 4.543 12.463 12.463 0 0 0 -2.379 3.5c-1.276 3.031-.7 6.5.025 9.7l-.422.12a16.824 16.824 0 0 0 3.574-.592 2.192 2.192 0 0 0 .382-.149 1.329 1.329 0 0 0 .636-1.09c.029-.48-.389-.94-.148-1.394.252-.475 1.088-.586 1.55-.755a8.1 8.1 0 0 0 1.967-.927 7.456 7.456 0 0 0 1.816-2.137 7.317 7.317 0 0 0 1.158-2.542c.046-.259-.033-.788.446-.526a1.056 1.056 0 0 1 .355.413 3.455 3.455 0 0 0 2.19 1.806c.467.078.885.272 1.347.375a4.357 4.357 0 0 0 2.531-.473c-.15.061.138.906.185 1.009.535 1.172 1.986 1.976 3.032 2.621a5.9 5.9 0 0 0 .942.5 5.529 5.529 0 0 0 2.055.269c.779-.006 1.554-.05 2.33-.1a7.536 7.536 0 0 1 3.288.225 2.862 2.862 0 0 1 .9.523 2.056 2.056 0 0 1 .664 1.33.637.637 0 0 0 .09.351.443.443 0 0 0 .421.114c.63-.1 1.042-.7 1.318-1.275a10.269 10.269 0 0 0 .676-1.83 9.4 9.4 0 0 1 .7-1.645 8.7 8.7 0 0 0 .656-2.363 15.258 15.258 0 0 0 -1.773-7.701z" transform="translate(-1087.819 -6825.452)"/><path d="m1193.878 6950.786 7.922-2.441 7.135-3.866.654-6.54a1.462 1.462 0 0 0 -1.455-1.606h-7.542l-4.884-2.329h1.067v-5.052l-3.509-.141-6.189 6.036-12.275-6.808 4.075-12.763h-1.577a4.955 4.955 0 0 0 -4.957 4.956v25.05l13.865 3.014z" fill="#191c3c" opacity=".15" transform="translate(-1091.806 -6812.72)"/><path d="m1259.6 6920.232a4.955 4.955 0 0 0 -4.956-4.956h-5.789l4.218 15.032-11.461 5.674-6.189-6.036-5.09.2-5.084 2.786a2.623 2.623 0 0 0 3.012 2.595l2.617-.392h2.1l-4.884 2.328h-7.542a1.463 1.463 0 0 0 -1.455 1.607l.654 6.54 7.135 3.866 7.922 2.442 7.669-2.491 17.119-3.1v-26.1z" fill="#191c3c" opacity=".15" transform="translate(-1084.793 -6812.72)"/><path d="m1257.835 6968.188h-77.485a6.242 6.242 0 0 1 -5.651-3.588l-1.918-4.084h92.619l-1.918 4.084a6.24 6.24 0 0 1 -5.647 3.588z" fill="#f1f2f2" transform="translate(-1091.741 -6805.934)"/><rect fill="#fff" height="53.026" rx="2.047" width="87.149" x="83.777" y="102.204"/><path d="m1220.053 6941.753a6.193 6.193 0 1 1 -6.194-6.192 6.194 6.194 0 0 1 6.194 6.192z" fill="#d3d6dd" transform="translate(-1086.508 -6809.677)"/></svg>