<svg height="189.061" viewBox="0 0 390.463 189.061" width="390.463" xmlns="http://www.w3.org/2000/svg"><path d="m15.444 43.782h99.36v58.592h-99.36z" fill="#fff"/><path d="m15.444 43.782h99.36v13.06h-99.36z" fill="#e0e4f0"/><path d="m1628.646 6679.967h89.946c-.145 0 .227-21.363-.051-23.512-3.27 1.719-5.761 5.009-9.23 6.725a15.72 15.72 0 0 1 -9.282 1.7c-2.927-.493-5.308-2.7-8.313-2.9-3.9-.262-6.545 2.917-9.332 5.1-3.913 3.063-8.876 6.778-13.916 7.546-3.252.5-5.876-.959-7.9-3.407-2.618-3.17-3.956-6.051-8.4-6.661-3.43-.471-10.516 1.742-15.558 5.982-3.397 2.647-7.964 8.56-7.964 9.427z" fill="#ffc200" transform="translate(-1609.658 -6587.238)"/><path d="m1655.468 6634.454h-38.417v-59.048h70.642v.456h-70.186v58.138h37.96z" fill="#191c3c" transform="translate(-1601.836 -6531.852)"/><path d="m257.728 11.059h67.906v21.299h-67.906z" fill="#fff"/><path d="m268.268 15.566h12.314v12.287h-12.314z" fill="#53dbaa" opacity=".2"/><path d="m283.995 16.566h31.062v2.165h-31.062z" fill="#f9f9fb"/><path d="m283.995 20.569h31.062v2.165h-31.062z" fill="#f9f9fb"/><path d="m283.995 24.573h12.423v2.165h-12.423z" fill="#f9f9fb"/><path d="m2465.865 6493.585h-.456v-21.071h-60.831v-.456h61.287z" fill="#191c3c" transform="translate(-2140.003 -6461.227)"/><path d="m254.083 34.662h81.773v58.875h-81.773z" fill="#fff"/><path d="m254.083 34.662h81.773v6.325h-81.773z" fill="#dfe2ec"/><path d="m258.175 36.383h3.426v2.884h-3.426z" fill="#fff"/><path d="m2474.461 6591.094h-.461v-44.036h-71.8v-.457h72.265z" fill="#191c3c" transform="translate(-2138.376 -6512.168)"/><path d="m278.273 93.31h42.97v.456h-42.97z" fill="#191c3c"/><path d="m0 0h15.804v15.773h-15.804z" fill="#f2f3f7" transform="matrix(-1 0 0 -1 275.763 60.3)"/><path d="m0 0h15.804v15.773h-15.804z" fill="#f2f3f7" transform="matrix(-1 0 0 -1 297.344 60.3)"/><path d="m0 0h26.71v15.773h-26.71z" fill="#f2f3f7" transform="matrix(-1 0 0 -1 329.831 60.3)"/><path d="m259.846 64.657h31.835v2.846h-31.835z" fill="#f2f3f7"/><path d="m259.512 72.297h70.319v1.423h-70.319z" fill="#f2f3f7"/><path d="m259.512 77.499h70.319v1.423h-70.319z" fill="#f2f3f7"/><path d="m259.81 82.7h70.319v1.423h-70.319z" fill="#f2f3f7"/><path d="m260.109 87.902h35.175v1.423h-35.175z" fill="#f2f3f7"/><path d="m87.979.228h174.168v95.533h-174.168z" fill="#fff"/><path d="m119.739 58.038h15.872v21.958h-15.872z" fill="#53dbaa"/><path d="m119.739 42.038h15.872v15.958h-15.872z" fill="#3b86ff"/><path d="m142.034 40.041h15.872v39.884h-15.872z" fill="#53dbaa"/><path d="m142.034 27.041h15.872v23.19h-15.872z" fill="#3b86ff"/><path d="m163.476 32.177h15.872v47.748h-15.872z" fill="#53dbaa"/><path d="m163.476 24.177h15.872v20.45h-15.872z" fill="#3b86ff"/><path d="m184.918 45.564h15.872v34.361h-15.872z" fill="#53dbaa"/><path d="m184.918 30.564h15.872v23.278h-15.872z" fill="#3b86ff"/><path d="m206.359 29.133h15.872v50.792h-15.872z" fill="#53dbaa"/><path d="m206.359 24.133h15.872v22.237h-15.872z" fill="#3b86ff"/><path d="m126.811 95.533h103.989v.456h-103.989z" fill="#191c3c"/><path d="m107.109 17.268h.456v69.742h-.456z" fill="#191c3c"/><path d="m100.565 79.768h125.483v.456h-125.483z" fill="#191c3c"/><path d="m87.979.228h174.168v7.759h-174.168z" fill="#dfe2ec"/><path d="m1846.59 6495.891h-.456v-58.038h174.625v43.74h-.456v-43.283h-173.713z" fill="#191c3c" transform="translate(-1758.383 -6437.853)"/><path d="m15.445 10.269h69.124v30.193h-69.124z" fill="#fff"/><path d="m1686.632 6500.215h-69.581v-30.649h69.581zm-69.124-.457h68.668v-29.736h-68.668z" fill="#191c3c" transform="translate(-1601.835 -6459.524)"/><path d="m21.498 30.978h2.212v5.613h-2.212z" fill="#f2f3f7"/><path d="m25.441 25.366h2.212v11.225h-2.212z" fill="#f2f3f7"/><path d="m29.384 25.366h2.212v11.225h-2.212z" fill="#f2f3f7"/><path d="m33.187 18.84h2.212v17.751h-2.212z" fill="#f2f3f7"/><path d="m37.271 21.993h2.212v14.599h-2.212z" fill="#f2f3f7"/><path d="m41.214 31.504h2.212v5.087h-2.212z" fill="#3b86ff"/><path d="m45.157 21.993h2.212v14.599h-2.212z" fill="#f2f3f7"/><path d="m49.1 29.845h2.212v6.746h-2.212z" fill="#f2f3f7"/><path d="m53.044 25.366h2.212v11.225h-2.212z" fill="#f2f3f7"/><path d="m56.987 21.108h2.212v15.483h-2.212z" fill="#f2f3f7"/><path d="m65.767 21.357h14.378v2.212h-14.378z" fill="#f2f3f7"/><path d="m65.767 27.55h14.378v1.106h-14.378z" fill="#3b86ff"/><path d="m65.767 30.26h14.378v1.106h-14.378z" fill="#f2f3f7"/><path d="m65.767 32.97h14.378v1.106h-14.378z" fill="#f2f3f7"/><path d="m65.767 35.679h7.189v1.106h-7.189z" fill="#f2f3f7"/><path d="m0 0h4.251v6.473h-4.251z" fill="#3b86ff" transform="matrix(-1 0 0 -1 231.945 182.285)"/><path d="m2284.47 7008.278a26.584 26.584 0 0 0 .979 5c.1.294.334.523.334.833v2.385h-10.056v-1.267a2.708 2.708 0 0 1 .536-1.614c.855-1.158 3.4-3.553 3-5.335z" fill="#ffc200" transform="translate(-2051.951 -6827.661)"/><path d="m2303.266 7008.278h.024l-.012.065c-.003-.021-.009-.043-.012-.065z" fill="#191c3c" transform="translate(-2070.771 -6827.661)"/><path d="m2285.782 7028.795v1.72h-10.056v-1.267a2.691 2.691 0 0 1 .04-.453z" fill="#191c3c" transform="translate(-2051.951 -6841.682)"/><rect fill="#191c3c" height=".621" rx=".271" transform="matrix(-1 0 0 -1 230.8 182.595)" width="2.771"/><rect fill="#191c3c" height=".621" rx=".271" transform="matrix(-1 0 0 -1 230.465 183.98)" width="2.771"/><path d="m0 0h4.251v6.473h-4.251z" fill="#3b86ff" transform="matrix(-1 0 0 -1 259.601 182.285)"/><path d="m2306.456 6797.866c-1.184 2.928-8.38 22.879-8.38 22.879l-6.487 30.462h-6.335l3.268-34.569 2.388-36.706 13.733 1.634 2.484 12.278z" fill="#2e35a8" transform="translate(-2058.462 -6671.617)"/><path d="m2362.694 6790.373-.4 30.672-1.509 33.689h-6.034l-2.431-26.859-5.835-31.627v-11.155l15.054 1.383z" fill="#2e35a8" transform="translate(-2100.308 -6675.144)"/><path d="m2347.338 6637.22h9.051v-11.92h-9.9c2.295 2.977.849 11.92.849 11.92z" fill="#3b86ff" transform="translate(-2100.308 -6565.946)"/><path d="m2333.369 6701.707c-.294 7.06-23.13-4.318-28.108-1.676l6.034-41.526s5.528-2.2 7.869-.48c3.227 2.368 9.051 0 9.051 0l4.064 1.613s1.342 36.035 1.09 42.069z" fill="#fff" transform="translate(-2072.134 -6587.861)"/><path d="m2305.662 6639.361s1.641 27.409-11.917 44.761c0 0-4.144 10.244-7.5 10.746 0 0-3.5-8.883.775-15.9 2.625-4.311 7.7-13.753 8-18.792l.862-14.458z" fill="#191c3c" transform="translate(-2058.22 -6575.556)"/><path d="m2368.983 6639.361s-3.962 17.958-4.065 27.133c-.084 7.459 11.5 32.333 11.5 32.333s7.151-7.462 3.379-16.087c-2.486-5.686-5.26-10.182-4.906-13.917l-.094-25.666z" fill="#191c3c" transform="translate(-2112.901 -6575.556)"/><path d="m2336.538 6593.283a18.978 18.978 0 0 1 1.871-6.692c.475-1.039 1-2.058 1.568-3.044a6.905 6.905 0 0 0 .569-1.035 1.279 1.279 0 0 1 1.062-.74 3.77 3.77 0 0 1 1.344.153 25.238 25.238 0 0 1 5.43 1.695 10.565 10.565 0 0 1 1.891 1.1 5.735 5.735 0 0 1 1.868 2.571 10.234 10.234 0 0 1 .014 5.45 4.686 4.686 0 0 1 -.394 1.283 4.78 4.78 0 0 1 -1.988 1.732q-1.522.876-3.093 1.662a11.292 11.292 0 0 1 -1.9.8 11.989 11.989 0 0 1 -3.642.292 5.77 5.77 0 0 1 -2.769-.547 3.665 3.665 0 0 1 -1.57-2.059 7.042 7.042 0 0 1 -.261-2.621z" fill="#3b86ff" transform="translate(-2093.494 -6536.19)"/><path d="m2345.324 6565.421a11.812 11.812 0 0 0 6.293 2.277 33.323 33.323 0 0 1 6.689 1.078c1.33.451 3.4 1.285 4.036 2.648a11.17 11.17 0 0 1 .26 6.729 10.015 10.015 0 0 1 -2.089 4.109 11.361 11.361 0 0 1 -3.968 2.66c-.127.063-.253.126-.377.193a1.9 1.9 0 0 1 -.393.228c-.253.052-.309-.384-.308-.579a2.222 2.222 0 0 1 .348-1.087 6.528 6.528 0 0 1 .645-.789 4.512 4.512 0 0 0 .66-2.652 3.372 3.372 0 0 0 -.085-1.356 1.277 1.277 0 0 0 -.947-.892 1.7 1.7 0 0 0 -1.287.537 6.891 6.891 0 0 0 -1.7 2.253q-.037-1.194-.074-2.387a5.823 5.823 0 0 0 -.205-1.628c-.223-.686-.707-1.357-.535-2.057a7.346 7.346 0 0 0 .327-.932 1.24 1.24 0 0 0 -.721-1.143 4.568 4.568 0 0 0 -1.382-.366c-.739-.13-1.434-.375-2.152-.573a4.515 4.515 0 0 1 -1.867-.894 3.6 3.6 0 0 1 -1.035-1.886 9.779 9.779 0 0 1 -.183-2.173 10.647 10.647 0 0 1 .05-1.318z" fill="#191c3c" transform="translate(-2099.475 -6525.028)"/><path d="m2401.7 6701.06 4.862 12.542a4.428 4.428 0 0 1 -.343 3.91l-15.456 19.678-2.743-4.117 9.913-15.685a4.689 4.689 0 0 0 -.105-4.276l-4.8-8.448s5.818 2.166 8.672-3.604z" fill="#3b86ff" transform="translate(-2128.687 -6617.719)"/><path d="m2380.644 6802.164-1.77.315-1.223 1.126a1.1 1.1 0 0 0 -.084 1.536l.363.417-.547.876a1.011 1.011 0 0 0 .073 1.175l1.71 2.1a1.012 1.012 0 0 0 1.318.221l1.853-1.151a1.734 1.734 0 0 0 .787-1.14l.264-1.357z" fill="#3b86ff" transform="translate(-2121.314 -6686.81)"/><path d="m2373.981 7008.278a6 6 0 0 0 1.481 5 1.265 1.265 0 0 1 .334.833v2.385h-9.553v-1.267a2.71 2.71 0 0 1 .536-1.614c.856-1.158 2.394-3.553 2-5.335z" fill="#ffc200" transform="translate(-2113.807 -6827.661)"/><path d="m2390.607 7008.278h.024s-.007.041-.012.065c-.003-.021-.009-.043-.012-.065z" fill="#191c3c" transform="translate(-2130.457 -6827.661)"/><path d="m2375.8 7028.795v1.72h-9.553v-1.267a2.691 2.691 0 0 1 .04-.453z" fill="#191c3c" transform="translate(-2113.807 -6841.682)"/><rect fill="#191c3c" height=".621" rx=".271" transform="matrix(-1 0 0 -1 258.455 182.595)" width="2.771"/><rect fill="#191c3c" height=".621" rx=".271" transform="matrix(-1 0 0 -1 258.121 183.98)" width="2.771"/><path d="m2377.756 6639.361 6.3 4.116 2.81 1.338a7.89 7.89 0 0 1 3.963 4.262l5.065 11.524c-5.473 1.062-5.7 6.006-9.6 5.084l-5.6-13.325-2.947-6.642z" fill="#191c3c" transform="translate(-2121.675 -6575.556)"/><path d="m2305.9 6639.361-6.32 2.712-3.523.921a7.479 7.479 0 0 0 -4.924 4.154l-5.883 11.694c3.771 0 7.69 5.052 8.3 4.078l7.228-12.675z" fill="#191c3c" transform="translate(-2058.462 -6575.556)"/><path d="m2337.832 6615.4a1.775 1.775 0 0 1 .876-1.766.948.948 0 0 0 .42-.5l.558-1.542a2.591 2.591 0 0 0 .126-1.26l-.178-1.194a1 1 0 0 0 -1.4-.762l-2.033.917-1.254 1.23-.008.018a8.228 8.228 0 0 0 .268 3.213 4.09 4.09 0 0 0 1.751 2.3 3.815 3.815 0 0 0 1 .38z" fill="#231f20" opacity=".15" transform="translate(-2092.388 -6554.324)"/><path d="m2286.174 6638.923 13.732-22.071v-3.689a1.72 1.72 0 0 1 .516-1.229l1.548-1.518 1.822-.822a.893.893 0 0 1 1.251.682l.159 1.071a2.315 2.315 0 0 1 -.113 1.129l-.5 1.382a.853.853 0 0 1 -.376.448 1.591 1.591 0 0 0 -.785 1.583l.134 1.04 2.422.478-3.034 2.335-9.889 22.791a3.9 3.9 0 0 1 -5.231 1.978 3.9 3.9 0 0 1 -1.656-5.588z" fill="#3b86ff" transform="translate(-2058.688 -6555.16)"/><path d="m2481.369 6810.776a.285.285 0 0 1 -.388-.109l-9.021-16.066a.285.285 0 0 1 .109-.388.284.284 0 0 1 .388.109l9.022 16.066a.286.286 0 0 1 -.11.388z" fill="#191c3c" transform="translate(-2186.021 -6681.351)"/><path d="m.96 0h22.384a.96.96 0 0 1 .96.96.96.96 0 0 1 -.96.96h-22.384a.96.96 0 0 1 -.96-.96.96.96 0 0 1 .96-.96z" fill="#474963" transform="translate(293.349 129.294)"/><path d="m2519.76 6847.773a.875.875 0 0 0 -.217-.565.893.893 0 0 1 -.892.89l-22.516.012a.879.879 0 0 1 -.677-.329v.137a.893.893 0 0 0 .894.893l22.516-.012a.894.894 0 0 0 .893-.894z" fill="#191c3c" transform="translate(-2202.107 -6717.592)"/><path d="m309.594 129.804h1.766v.677h-1.766z" fill="#75778a"/><path d="m311.687 129.803h1.767v.677h-1.767z" fill="#75778a"/><path d="m296.825 129.811h1.766v.677h-1.766z" fill="#75778a"/><path d="m2646.733 6824.868v-.457a8.339 8.339 0 0 0 8.33-8.329v-34.443h.456v34.443a8.8 8.8 0 0 1 -8.786 8.786z" fill="#191c3c" transform="translate(-2305.484 -6672.785)"/><path d="m4.794 0h28.693a4.794 4.794 0 0 1 4.794 4.794v.271a0 0 0 0 1 0 0h-38.281a0 0 0 0 1 0 0v-.271a4.794 4.794 0 0 1 4.794-4.794z" fill="#2e35a8" transform="translate(306.829 149.321)"/><path d="m2667.3 6769.667v28.872a4.376 4.376 0 0 1 -4.376-4.376v-20.12a4.376 4.376 0 0 1 4.376-4.375z" fill="#2e35a8" transform="translate(-2316.546 -6664.604)"/><path d="m2552.5 6939.178-.455-.038 1.109-13.759.455.037z" fill="#191c3c" transform="translate(-2240.777 -6771.014)"/><path d="m0 0h.456v34.473h-.456z" fill="#191c3c" transform="matrix(.99622203 -.08684277 .08684277 .99622203 340.25 154.407)"/><path d="m2442.109 7000.141-3.695 2.372-6.073-.646-.668 3.174 13.678 4.508 1.835-7.735z" fill="#3b86ff" transform="translate(-2158.52 -6822.102)"/><path d="m2425.241 7004.435-4.051-.767-.613.341a1 1 0 0 0 -.508.98v.035a2.715 2.715 0 0 0 1.055 1.866l2.641 2.012 13.477 4.441 1.032-3.132a2.4 2.4 0 0 0 .121-.711l.031-1.807-.59.892-5.36.415a11.606 11.606 0 0 1 -4.352-.491l-1.461-.455a3.085 3.085 0 0 1 -1.492-1.019 1.877 1.877 0 0 1 -.23-1.976z" fill="#191c3c" transform="translate(-2150.585 -6824.512)"/><path d="m2421.272 7007.94a2.713 2.713 0 0 1 -1.053-1.865v-.035a.934.934 0 0 1 .008-.192.985.985 0 0 0 -.153.631v.035a2.713 2.713 0 0 0 1.054 1.865l2.642 2.013 13.477 4.441.145-.439-13.477-4.441z" fill="#191c3c" transform="translate(-2150.587 -6826.002)"/><path d="m2492.9 6890.641-12.389 3.875-13.608 26.169-7.186-1.544 11.84-27.008a29.157 29.157 0 0 1 12.424-11.928l4.049-.058z" fill="#ffc200" transform="translate(-2177.68 -6740.102)"/><path d="m2517.644 7004.889-2.767 3.41-5.97 1.287.36 3.224h14.4l-.678-7.92z" fill="#3b86ff" transform="translate(-2211.298 -6825.346)"/><path d="m2501.146 7017.142-4.087.539-.476.516a1 1 0 0 0 -.176 1.09l.014.032a2.718 2.718 0 0 0 1.586 1.443l3.138 1.083h14.19v-3.3a2.407 2.407 0 0 0 -.108-.713l-.536-1.726-.281 1.033-4.961 2.071a11.624 11.624 0 0 1 -4.286.9l-1.531.024a3.083 3.083 0 0 1 -1.736-.5 1.875 1.875 0 0 1 -.837-1.8z" fill="#191c3c" transform="translate(-2202.694 -6833.013)"/><path d="m2498.019 7025.76a2.714 2.714 0 0 1 -1.585-1.442l-.014-.032a1.016 1.016 0 0 1 -.053-.185.987.987 0 0 0 .053.647l.014.032a2.713 2.713 0 0 0 1.585 1.442l3.139 1.084h14.19v-.462h-14.19z" fill="#191c3c" transform="translate(-2202.707 -6838.475)"/><path d="m2518.144 6880.147-4.05.058a29.137 29.137 0 0 0 -10.309 8.672l3.157 12.719 3.682-7.081 3.971-1.242a2.4 2.4 0 0 1 2.352-1.844l3.436.034 2.63-.822z" fill="#231f20" opacity=".1" transform="translate(-2207.798 -6740.102)"/><path d="m2540.25 6853.647-3.967 4.049-23.154 2.462a7.375 7.375 0 0 0 -6.378 9.11l8.175 32.933h6.79l-3.925-26.5a2.4 2.4 0 0 1 2.4-2.757l23.229.229a10.688 10.688 0 0 0 7.616-3.12 10.345 10.345 0 0 0 2.544-9.954l-1.83-7z" fill="#ffc200" transform="translate(-2209.675 -6721.618)"/><path d="m2598.932 6714.853a40.937 40.937 0 0 0 -5.2-11 8.346 8.346 0 0 0 -1.51-1.711 6.726 6.726 0 0 0 -1.337-.817 13.551 13.551 0 0 0 -6.748-1.15 2.525 2.525 0 0 0 -.977.226 2.025 2.025 0 0 0 -.556.457c-1.269 1.417-1.311 4.469.176 5.766a4.748 4.748 0 0 0 .692.482c.711.428.9.608.878 1.438a13.365 13.365 0 0 0 .137 2.566 5.415 5.415 0 0 0 1.384 2.92 8.055 8.055 0 0 0 1.665 1.187c.51.3 1.232.552 1.545 1.072.685 1.137.4 2.79.881 4.047a4.322 4.322 0 0 0 1.99 2.366 5.709 5.709 0 0 0 2.179.482c1.608.109 3.3.293 4.416-1.077a5.244 5.244 0 0 0 1.07-2.258 9.9 9.9 0 0 0 -.685-4.996z" fill="#2e35a8" transform="translate(-2261.013 -6617.084)"/><path d="m331.412 94.907h6.031v5.733h-6.031z" fill="#3b86ff"/><path d="m2613.15 6789.368s-3.712-13.037-3.772-14.215a10.829 10.829 0 0 1 .7-5.12l2.962-6.942c.907-3.15.179-6.612-.975-9.68l-2.84-7.548-4.84 1.848-5.9 1.267-1.813 5.778-5.2 9.235a1.639 1.639 0 0 0 -.019 1.6c.564 1.016 1.689 2.223 2.086 2.907.69 3.837-3.021 16.255-3.021 16.255 6.782 1.763 19.582 10.147 22.632 4.615z" fill="#191c3c" transform="translate(-2267.067 -6648.337)"/><path d="m2592.455 6703.374c-.052.309-.06.651-.09 1.053a14.183 14.183 0 0 0 1.624 7.685c.379.708.818 1.382 1.256 2.054a1.764 1.764 0 0 0 .412.491 1.536 1.536 0 0 0 .594.23 6.91 6.91 0 0 0 4.034-.468 13.588 13.588 0 0 0 2.285-1.282c.354-.23.331-.093.452-.55.223-.847.419-1.7.628-2.551l1.093-4.437-1.787-4.69-8.153.391a5.912 5.912 0 0 0 -1.52.782 1.845 1.845 0 0 0 -.828 1.292z" fill="#3b86ff" transform="translate(-2268.305 -6617.616)"/><path d="m2559.2 6775.514s-1.229 11-1.444 16.046a2.777 2.777 0 0 1 -2.906 2.649l-11.411-.518c-1.3.457-3.257-2.691-4.578-3.1a8.688 8.688 0 0 0 -2.582.014.84.84 0 0 0 -.554.305l-.272.268a2.017 2.017 0 0 0 -.583 1.154l-1.831 4.526.64-.042a2.725 2.725 0 0 0 1.44-1l.485-1.6.951-.342 3.925 2.408s2.659.784 3.454.9c2.924.429 9.653 1.9 13.085 2.6a5.55 5.55 0 0 0 4.655-1.144 4.655 4.655 0 0 0 1.959-3.213l2.868-19.466z" fill="#3b86ff" transform="translate(-2227.792 -6668.599)"/><path d="m2607.814 6779.917.753-4.846c.258-2.435 1.485-4.09 2.952-6.049l6.635.7a29.753 29.753 0 0 1 .257 8.133l-.218 2.059s-8.693 1.974-10.379.003z" fill="#191c3c" transform="translate(-2278.888 -6664.163)"/><path d="m2603.888 6705.5a0 0 0 0 0 0-.006 0 0 0 1 0 0 .006z" fill="#191c3c" opacity=".1" transform="translate(-2276.203 -6620.75)"/><path d="m2609.489 6705.683c.21-1.533.872-3.032.682-4.567-.267-2.159-2.12-3.769-2.856-5.815a31.175 31.175 0 0 1 -.711-3.277 4.162 4.162 0 0 0 -1.754-2.75c-.984-.558-2.2-.426-3.3-.686-1.521-.36-2.857-1.479-4.421-1.472-1.36.006-2.562.869-3.893 1.151-1.548.329-3.234-.136-4.7.461a2.189 2.189 0 0 0 -.937.672 2.7 2.7 0 0 0 -.062 2.569 8.087 8.087 0 0 0 7.5 5.031l-.128-.083a3.7 3.7 0 0 1 1.44.926c1.04 1.144 1.022 2.928 1.918 4.188.87 1.224 2.48 1.783 3.272 3.059.836 1.347.531 3.093.94 4.625a10.3 10.3 0 0 0 2.843 4.181 4.759 4.759 0 0 1 .83 1.059 7.051 7.051 0 0 1 .416 2.653 7.526 7.526 0 0 0 1.527 3.88c.474.621 1.738 2.519 2.681 1.63a1.747 1.747 0 0 0 .392-.676c2.179-5.776-2.468-10.982-1.679-16.759z" fill="#2e35a8" transform="translate(-2264.831 -6608.192)"/><path d="m2544.317 6834.883-2.539 1.084.047.247a1.033 1.033 0 0 0 1.283.8l2.72-.736z" fill="#3b86ff" transform="translate(-2233.761 -6709.17)"/><path d="m0 0h5.268v8.833h-5.268z" fill="#3b86ff" transform="matrix(.69932658 -.71480231 .71480231 .69932658 167.979 177.346)"/><path d="m0 0h5.268v8.833h-5.268z" fill="#3b86ff" transform="matrix(.95598782 .29340635 -.29340635 .95598782 141.856 174.315)"/><path d="m4.794 0h34.111a4.794 4.794 0 0 1 4.795 4.794v.295a0 0 0 0 1 0 0h-43.7a0 0 0 0 1 0 0v-.295a4.794 4.794 0 0 1 4.794-4.794z" fill="#191c3c" transform="translate(108.859 149.197)"/><path d="m0 0h34.633v.456h-34.633z" fill="#191c3c" transform="matrix(.08602554 -.99629293 .99629293 .08602554 109.645 188.769)"/><path d="m0 0h.456v34.633h-.456z" fill="#191c3c" transform="matrix(.99622355 -.08682539 .08682539 .99622355 147.52 154.306)"/><path d="m1918.513 6863.561 32.725 15.061 28.069 25.273 5.249-5.221-24.154-26.948-24.321-17.294z" fill="#2e35a8" transform="translate(-1807.843 -6722.528)"/><path d="m1912.314 6859.958v6.161a9.661 9.661 0 0 0 9.661 9.661h30.5c-5.477 6.618-8.615 27.958-8.615 27.958l6.87 1.876 12.13-31.045a8.755 8.755 0 0 0 -8.181-11.873h-21.834l.157-2.738z" fill="#383fac" transform="translate(-1803.607 -6726.305)"/><path d="m1920.876 6766.572 5.693 1.074a11.291 11.291 0 0 1 8.037 6.108l4.659 9.467-4.664 10.488-.474 4.715s-22.6 10.017-28.151 5.477l-.258-24.1 8.531-12.477z" fill="#b2b8fa" transform="translate(-1799.1 -6662.488)"/><path d="m1928.607 6744.528s1.8 8.111 1.425 12.827h6.618s-.683-8.049.685-9.375z" fill="#3b86ff" transform="translate(-1814.741 -6647.423)"/><path d="m1936.77 6711.225a12.289 12.289 0 0 0 -1.3-4.229l-.247.12a6.024 6.024 0 0 0 -5.677-1.308 8.057 8.057 0 0 0 -4.654 3.7 9.678 9.678 0 0 0 -.722 8.337 9.455 9.455 0 0 0 6.188 5.613 3.758 3.758 0 0 0 3.313-.349 4.547 4.547 0 0 0 .9-1.068 8.92 8.92 0 0 0 1.565-3.2 20.4 20.4 0 0 0 .114-2.835c.072-1.606.611-3.179.52-4.781z" fill="#3b86ff" transform="translate(-1811.281 -6620.812)"/><path d="m1927.542 6697.882a18.681 18.681 0 0 0 -2.448-1.787 9.074 9.074 0 0 0 -2.231-.766c-1.942-.446-3.251-.32-4.735 1.124a6.219 6.219 0 0 0 -1.909 4.167 3.979 3.979 0 0 1 -.1 1.06 3.85 3.85 0 0 1 -.661 1.062 7.1 7.1 0 0 0 -.823 6.541 4.744 4.744 0 0 0 1.8 2.545c.723.415 2.6.729 2.951 1.6a8.966 8.966 0 0 1 -.619-4.2 2.254 2.254 0 0 1 .3-1.057.922.922 0 0 1 .948-.431 2.016 2.016 0 0 1 .659.432 2.235 2.235 0 0 0 1.325.454.932.932 0 0 0 .536-.129.989.989 0 0 0 .349-.649 7.636 7.636 0 0 0 -.563-3.736c-.331-.962-.394-2.22.887-2.14 1.151.073 2.328.779 3.558.846a10.277 10.277 0 0 0 7.013-2.2 14.593 14.593 0 0 1 -6.237-2.736z" fill="#2e35a8" transform="translate(-1804.889 -6613.647)"/><path d="m1947.52 6771.435 1.922-6.3 1.136.214 1.2 10.121z" fill="#fff" transform="translate(-1827.666 -6661.503)"/><path d="m1889.845 6766.572-6.054 1.146a8.989 8.989 0 0 0 -6.615 5.348l-6.762 16.084a3.457 3.457 0 0 0 3.187 4.8l24.185-1.208 1.116-3.424-2.663.9-15.138-1.283a1.6 1.6 0 0 1 -1.158-2.526l10.134-13.991s1.823-4.999-.232-5.846z" fill="#3b86ff" transform="translate(-1774.787 -6662.488)"/><path d="m1894.95 6766.572-6.054 1.146a8.99 8.99 0 0 0 -6.615 5.348l-4.671 9.927c3.652-.38 7.438 3.417 10.041 1.37l7.531-11.943s1.818-5.001-.232-5.848z" fill="#b2b8fa" transform="translate(-1779.892 -6662.488)"/><path d="m1928.581 6765.329 4.85 6.241-3.423 4.488-3.105-10.335z" fill="#fff" transform="translate(-1813.576 -6661.638)"/><path d="m2002.167 7010.11-1.684 4.267v3.369h20.662v-.931a1.8 1.8 0 0 0 -1.387-1.756l-3.329-.793-6.962-4.155h-1.235l-.561 1.235h-3.594l-.337-1.235z" fill="#b2b8fa" transform="translate(-1863.859 -6828.913)"/><path d="m2000.483 7028.552v1.8h20.662v-.932a1.8 1.8 0 0 0 -.221-.865z" fill="#191c3c" transform="translate(-1863.859 -6841.516)"/><path d="m2113.971 6990.446 2.414 3.9 2.7 2.015 12.352-16.564-.747-.557a1.8 1.8 0 0 0 -2.237.062l-2.625 2.195-7.492 3.1-.739.99.655 1.188-2.148 2.881-1.192-.469z" fill="#b2b8fa" transform="translate(-1941.413 -6807.573)"/><path d="m2125.574 6995.327 1.44 1.075 12.352-16.564-.747-.557a1.792 1.792 0 0 0 -.825-.34z" fill="#191c3c" transform="translate(-1949.342 -6807.613)"/><path d="m0 0h53.705v.457h-53.705z" fill="#191c3c" transform="matrix(.19123729 -.98154383 .98154383 .19123729 82.67 188.747)"/><path d="m0 0h.456v53.705h-.456z" fill="#191c3c" transform="matrix(.981 -.192 .192 .981 304.369 136.122)"/><path d="m75.514 131.366h244.386v4.855h-244.386z" fill="#fff"/><path d="m2051.608 6857.323h-244.842v-5.312h244.842zm-244.386-.457h243.929v-4.4h-243.929z" fill="#191c3c" transform="translate(-1731.48 -6720.873)"/><path d="m106.082 129.28h14.795v1.94h-14.795z" fill="#f2f3f7"/><path d="m1918.556 6847.823h-15.256v-2.4h15.251zm-14.8-.457h14.344v-1.485h-14.339z" fill="#191c3c" transform="translate(-1797.451 -6716.374)"/><path d="m1964.866 6810.572h-30.455l7.465-19.323h30.455z" fill="#f2f3f7" transform="translate(-1818.708 -6679.351)"/><path d="m1965.022 6810.31h-30.612v-.457h30.3l7.288-18.866h-29.965l-6.9 17.869-.426-.164 7.016-18.162h30.944z" fill="#191c3c" transform="translate(-1818.707 -6678.859)"/><path d="m1992.09 6817.665a1.9 1.9 0 1 1 -1.9-1.9 1.9 1.9 0 0 1 1.9 1.9z" fill="#fff" transform="translate(-1855.529 -6696.106)"/><path d="m0 0h6.665v6.884h-6.665z" fill="#3b86ff" transform="matrix(-.91032281 -.41389899 .41389899 -.91032281 45.656 181.668)"/><path d="m1726.085 6817.718-6.295 15.465-14.935 23.923-7.277-3.286 14.994-28.2 1.424-34.374z" fill="#191c3c" transform="translate(-1656.865 -6679.352)"/><path d="m1694.758 6993.547.508.225 2.376 5.771 1.318 2.02 4.133 1.134-.007 1.694-4.874.094-15.009-6.326-.313-2.027 2.069-4.685 1.311-.231 1.021.451 1.324 3.418 4.71 2.013z" fill="#191c3c" transform="translate(-1646.827 -6816.001)"/><path d="m1682.907 6996.12 2.064-4.674 1.311-.231 1.021.451 1.324 3.418 4.71 2.013 1.433-3.55.508.225 2.376 5.771 1.319 2.02 4.133 1.134v.43h-3.584z" fill="#2e35a8" transform="translate(-1646.839 -6816.001)"/><path d="m0 0h6.215v6.42h-6.215z" fill="#3b86ff" transform="matrix(-1 0 0 -1 69.76 184.447)"/><path d="m1772.292 7007.288h.518l4.2 4.028 6.676 2.532v1.727h-19.514l-1.031-1.611v-4.777l1.031-.69h1.041l2.417 2.417 4.777-.057z" fill="#191c3c" transform="translate(-1701.668 -6826.985)"/><path d="m1765.213 7008.5 2.417 2.417 4.777-.057-.115-3.568h.518l4.2 4.028 6.561 2.489h-20.43v-4.618l1.031-.69z" fill="#2e35a8" transform="translate(-1701.668 -6826.985)"/><path d="m1852.919 6676.695c-.861-1.558-1.887-3.03-2.6-4.662-1.589-3.654-1.474-7.791-1.331-11.773l-.536-1.5a11.129 11.129 0 0 0 -5.194.008 3.988 3.988 0 0 0 -3.526 2.384 16.6 16.6 0 0 0 -1.542 2.8c-1 2.537-.047 4.99-.343 7.554a75.042 75.042 0 0 1 -1.9 8.14 22.72 22.72 0 0 0 -.655 3.738 11.531 11.531 0 0 0 2.3 7.525 27 27 0 0 0 2.524 2.565 1.382 1.382 0 0 0 2.29-.573c.755-2.295 2.157-4.594 3.82-5.015-.246-1.63.88-2.856 1.656-4.168a10.21 10.21 0 0 0 1.137-5.254c1.721.018 4.2 2.191 5.462 3.274a10.479 10.479 0 0 0 -1.562-5.043z" fill="#191c3c" transform="translate(-1750.961 -6588.6)"/><path d="m1747.538 6805.708c.07.2.141.39.208.59l5.184 20.7v7.784l1-1.6 6.295-15.465-12.088-26.469z" fill="#231f20" opacity=".1" transform="translate(-1691.005 -6679.352)"/><path d="m1738.775 6773.059-2.081 5.27c0 6.137 3.07 9.717 5.011 15.539l5.184 20.7v33.116h7.307l2.767-33.559-.458-33.556z" fill="#191c3c" transform="translate(-1683.595 -6666.922)"/><path d="m1841.909 6701.58 9.019 12.7a5.021 5.021 0 0 0 .484.546l6.768 5.689 3.179-1.136a2.594 2.594 0 0 1 2.01.111l4.208 2.979-1.283.3-1.726.611.26.545 1.578-.091a1.322 1.322 0 0 1 1.353.983l.068.258-3.322.433c-1.331.646-2.851-.285-4.126-.457l-2.4-.175-.6-.2-8.19-5.3a9.171 9.171 0 0 1 -2.307-1.854l-6.925-6.8z" fill="#3b86ff" transform="translate(-1754.158 -6618.075)"/><path d="m1828.172 6686.741-2.686 11.977 8.822 8.08c2.664-.565 3.029-8.874 3.029-8.874z" fill="#2e35a8" transform="translate(-1744.272 -6607.934)"/><path d="m1850.1 6665.639s-4.845 2.367-5.522 4.395l-2.141-7.662 6.761-4.62z" fill="#3b86ff" transform="translate(-1755.859 -6588.124)"/><path d="m1765.318 6663.3-.037.021a58.635 58.635 0 0 0 -18.365 16.94l-11.682 16.677c-1.521 11.633 11.554 16.866 21.3 13.523l3.925-13.132a7.984 7.984 0 0 1 3.44-4.5l2.174-1.35a9.991 9.991 0 0 0 3.874-4.316 21.5 21.5 0 0 0 1.637-12.335l-.346-2.12-2.141-11.043z" fill="#2e35a8" transform="translate(-1682.514 -6590.799)"/><path d="m1812.873 6701.189c-2.323.106-3.425 1.852-3.425 4.178l-.728 18.7a3 3 0 0 0 .057.581l.749 3.808 1.233-4.126a7.984 7.984 0 0 1 3.44-4.5l.432-.269 2.74-13.375a4.35 4.35 0 0 0 -4.498-4.997z" fill="#231f20" opacity=".1" transform="translate(-1732.815 -6617.805)"/><path d="m1811.052 6698.331v19.446a3.185 3.185 0 0 0 .059.61l3.42 17.38a3.955 3.955 0 0 1 -.257 2.349l-1.87 4.275-1.385 1.565 7.921.012 1.014-5.521-3.626-20.878 3.8-18.549a4.564 4.564 0 0 0 -4.719-5.249 4.564 4.564 0 0 0 -4.357 4.56z" fill="#3b86ff" transform="translate(-1734.386 -6612.736)"/><path d="m1812.886 6692.327c-2.437.111-4.389 1.123-4.389 3.563l-1.169 13.911s7.844 3.688 9.281.841l1.838-13.646c.434-2.848-2.684-4.796-5.561-4.669z" fill="#2e35a8" transform="translate(-1731.864 -6611.748)"/><path d="m1834.7 6829.688 3.043 7.152-2.057.012-2.106-3.971z" fill="#545671" transform="translate(-1749.803 -6705.62)"/><path d="m1857.032 6647.888c1.949-1.572 6.919-2.48 8.754-.14 2.027 2.586-1.174 7.326-2.674 9.382a5.1 5.1 0 0 1 -2.359 2.041 3.7 3.7 0 0 1 -3.732-1.254 9.113 9.113 0 0 1 -1.761-3.735 8.681 8.681 0 0 1 -.333-1.681 5.57 5.57 0 0 1 2.105-4.613z" fill="#3b86ff" transform="translate(-1764.383 -6580.316)"/><path d="m1841.907 6637.75c-1.248.837-1.523 2.578-2.567 3.659a5.794 5.794 0 0 1 -4.251 1.333 6.653 6.653 0 0 1 -4.023-1.016 4.866 4.866 0 0 1 -1.8-3.357 8.742 8.742 0 0 1 .546-3.844 14.716 14.716 0 0 1 3.118-5.168 6.462 6.462 0 0 1 2.451-1.778 8.3 8.3 0 0 1 3.742-.144 20.034 20.034 0 0 1 6.387 1.459 9.111 9.111 0 0 1 2.755 1.883l1.189 1.41c.178.211.356.423.512.65a3.177 3.177 0 0 1 .59 1.67 2.15 2.15 0 0 1 -.625 1.625 2.78 2.78 0 0 1 -1.211.612 17.274 17.274 0 0 1 -3.254.464c-1.209.074-2.48-.181-3.559.542z" fill="#191c3c" transform="translate(-1746.829 -6567.31)"/><path d="m5.179 188.604h183.02v.456h-183.02z" fill="#191c3c"/><path d="m0 188.56h3.353v.456h-3.353z" fill="#191c3c"/><path d="m384.989 188.56h5.473v.456h-5.473z" fill="#191c3c"/><path d="m215.507 188.56h167.73v.456h-167.73z" fill="#191c3c"/><path d="m207.139 188.56h5.173v.456h-5.173z" fill="#191c3c"/><g fill="#a0a9af"><path d="m3493.415 4406.25h-.09l-3.518-.041a5.591 5.591 0 0 1 -5.585-5.585v-4.045h14.878v3.987a5.684 5.684 0 0 1 -5.682 5.685zm-8.9-9.383v3.756a5.3 5.3 0 0 0 5.3 5.3l3.519.041a5.4 5.4 0 0 0 5.479-5.395v-3.7z" transform="translate(-3469.531 -4217.343)"/><path d="m3514.493 4169.822-.275-.092c.585-1.756 2.687-4.489 5-6.5a17.137 17.137 0 0 0 3.56-4.421c.557-.926.894-1.485 1.344-1.215 1.657.995 1.521 3.831 1.376 6.833-.054 1.126-.11 2.291-.068 3.362l-.29.011c-.043-1.084.014-2.255.068-3.387.14-2.914.273-5.666-1.236-6.571-.2-.121-.514.4-.946 1.115a17.4 17.4 0 0 1 -3.618 4.491c-2.278 1.982-4.344 4.661-4.915 6.374z" transform="translate(-3493.734 -4024.457)"/><path d="m3532.016 4275.8c-.692-4.271.76-6 2.3-7.835a8.93 8.93 0 0 0 2.6-5.652 35.718 35.718 0 0 1 1.751-8.648 45.416 45.416 0 0 0 1.48-5.981l.286.047a45.63 45.63 0 0 1 -1.488 6.018 35.437 35.437 0 0 0 -1.74 8.584 9.174 9.174 0 0 1 -2.663 5.819c-1.493 1.781-2.9 3.462-2.232 7.6z" transform="translate(-3507.951 -4097.198)"/><path d="m3447.651 4179.783c-1.875-2.572-1.234-7.121-.556-11.937.9-6.393 1.922-13.639-2.424-18.336-5.266-5.693-5.086-12.737-4.979-16.946.053-2.083.091-3.587-.531-3.82-.721-.27-2.631.562-4.458 2.375-2.225 2.209-6.965 8.541-2.923 19.6a13.174 13.174 0 0 1 .5 4.568c-.012 3.43-.025 7.317 4.859 11.043 1.259.96 1.962 2.738 2.776 4.8 1.08 2.73 2.3 5.824 5.189 7.961l-.173.233c-2.952-2.187-4.192-5.322-5.286-8.088-.8-2.018-1.487-3.761-2.682-4.672-5-3.813-4.985-7.777-4.973-11.275a12.98 12.98 0 0 0 -.481-4.468c-4.1-11.22.726-17.66 2.991-19.908 1.935-1.92 3.941-2.749 4.764-2.442s.778 1.814.719 4.1c-.106 4.165-.284 11.135 4.9 16.742 4.439 4.8 3.408 12.116 2.5 18.573-.67 4.756-1.3 9.249.5 11.727z" transform="translate(-3425.707 -4000.962)"/><path d="m3459.4 4179.159c-.014-.127-.028-.254-.044-.382l.288-.036c.016.129.031.258.045.387zm-.215-1.521q-.033-.188-.07-.377l.284-.056c.025.127.049.255.071.383zm-.322-1.5q-.047-.186-.1-.371l.28-.077q.051.188.1.376zm-.433-1.471q-.062-.182-.126-.363l.272-.1q.066.184.128.368zm-.55-1.432q-.076-.176-.156-.351l.263-.12q.081.178.158.356zm-.666-1.381q-.09-.168-.185-.335l.252-.142q.1.17.188.341zm-.781-1.318c-.07-.106-.14-.213-.213-.318l.239-.164c.073.107.146.216.216.324zm-.849-1.294c-.068-.111-.135-.222-.2-.333l.25-.147q.1.165.2.329zm-.767-1.353q-.09-.174-.176-.347l.26-.129c.056.114.115.228.174.342zm-.665-1.406c-.051-.12-.1-.24-.149-.359l.269-.109q.071.177.147.354zm-.555-1.453q-.063-.185-.121-.37l.276-.088q.058.182.12.364zm-.441-1.492c-.032-.126-.062-.253-.092-.378l.282-.065q.043.185.091.373zm-.323-1.522q-.033-.193-.062-.384l.286-.044c.019.125.04.252.062.378zm-.206-1.542c-.012-.13-.023-.259-.033-.388l.289-.021q.014.19.033.382zm-.089-1.553c0-.13 0-.26 0-.389h.29v.383zm.314-1.54-.29-.015q.01-.2.023-.388l.289.02c-.008.127-.016.255-.022.383zm.132-1.529-.287-.035q.023-.194.05-.385l.287.04q-.027.189-.051.381zm.236-1.518-.284-.054q.037-.193.075-.381l.284.059q-.04.187-.076.377zm.334-1.5-.28-.072c.032-.127.066-.252.1-.375l.279.077q-.053.183-.1.372zm.429-1.475-.275-.09q.062-.189.124-.369l.274.095c-.042.12-.083.241-.124.366zm.524-1.444-.269-.108q.076-.189.148-.36l.267.113q-.072.17-.147.357zm.626-1.4-.259-.129c.115-.229.184-.35.184-.35l.252.143s-.068.121-.178.337z" transform="translate(-3443.961 -4016.798)"/><path d="m3538.979 4356.626-.129-.259c2.864-1.435 3.859-4.025 4.632-6.556l.277.084c-.759 2.479-1.813 5.246-4.78 6.731z" transform="translate(-3513.609 -4179.609)"/><path d="m3466.519 4339.425c-5.888-2.279-5.195-8.582-5.187-8.645l.288.035c-.007.061-.67 6.144 5 8.34z" transform="translate(-3451.037 -4164.252)"/><path d="m4029.75 4335.008-.3-.092.065-.214.3.09zm.4-1.441-.306-.076q.051-.205.1-.407l.307.072q-.051.205-.1.411zm.358-1.655-.311-.056c.025-.138.049-.276.071-.412l.312.051q-.032.205-.07.417zm.241-1.678-.314-.033q.022-.209.04-.416l.314.027q-.015.21-.038.422zm.111-1.692-.316-.008q.005-.21.006-.417h.316c.001.141-.001.283-.004.425zm-.348-1.676q-.013-.209-.031-.416l.315-.027q.018.21.031.423zm-.18-1.658q-.032-.207-.069-.412l.311-.055q.037.207.07.418zm-.329-1.635q-.051-.2-.1-.4l.3-.083q.055.2.106.411zm-.469-1.6q-.067-.2-.137-.395l.3-.106q.071.2.14.4zm-.594-1.562c-.054-.128-.109-.257-.165-.384l.289-.127c.057.129.113.259.167.389zm-.7-1.522q-.093-.189-.187-.375l.282-.142q.094.188.188.378zm-.77-1.49-.2-.369.277-.152q.1.184.2.371zm-.814-1.471-.207-.366.275-.155.207.367zm-.825-1.469q-.1-.185-.2-.37l.277-.151.2.368zm-.8-1.49q-.1-.19-.189-.379l.284-.139c.061.125.124.25.187.375zm-.716-1.536c-.055-.131-.108-.262-.159-.394l.294-.115q.075.193.156.387zm-.574-1.6q-.06-.205-.113-.411l.306-.079c.034.134.071.268.11.4zm-.359-1.666q-.028-.211-.048-.424l.314-.029q.019.207.047.411z" transform="translate(-3678.292 -4146.752)"/><path d="m4019.432 4324.951-.291-.123c4.757-11.225-.435-20.109-3.953-24.406-2.975-3.634-6.077-5.6-6.773-5.452-.629.129-2.277 2.832-3.053 7.327l-.311-.053c.707-4.1 2.325-7.383 3.3-7.583.882-.182 4.08 1.9 7.081 5.561 3.568 4.352 8.821 13.351 4 24.729z" transform="translate(-3663.848 -4136.438)"/><path d="m4075.474 4266.567-.237-.209c2.838-3.212 3.209-6.076 3.64-9.393a29.371 29.371 0 0 1 1.3-6.218c1.45-4.173.308-6.789-.8-9.32-1.036-2.374-2.108-4.828-1.02-8.5 1.5-5.073-.891-10.258-3.27-11.742a1.811 1.811 0 0 0 -2.309.022c-.645.593-.537 2.3-.424 4.106.12 1.9.243 3.869-.435 5.071-.317.563-.688 1.12-1.08 1.708-1.622 2.437-3.46 5.2-2.356 9.781l-.307.074c-1.136-4.717.743-7.539 2.4-10.029.389-.584.756-1.136 1.068-1.689.632-1.121.511-3.04.395-4.9-.118-1.884-.23-3.664.525-4.358a2.089 2.089 0 0 1 2.69-.058c2.464 1.537 4.951 6.883 3.405 12.1-1.055 3.559-.053 5.853 1.007 8.281 1.129 2.586 2.3 5.26.806 9.549a29.13 29.13 0 0 0 -1.286 6.155c-.414 3.236-.81 6.285-3.712 9.569z" transform="translate(-3713.416 -4077.867)"/></g></svg>