<svg height="123" viewBox="0 0 142 123" width="142" xmlns="http://www.w3.org/2000/svg"><path d="m0 0h123v30h-123z" fill="#3473d9" transform="matrix(0 -1 1 0 0 123)"/><path d="m0 0h123v114h-123z" fill="#f2f2f2" transform="matrix(0 -1 1 0 28 123)"/><path d="m0 0h123v114h-123z" fill="#f2f2f2" transform="matrix(0 -1 1 0 28 123)"/><rect fill="#89b6ff" height="6" rx="3" width="6" x="11.6" y="2.4"/><rect fill="#d8d8d8" height="6" rx="3" width="6" x="127.6" y="2.4"/><path d="m4.6 16.4h19v2h-19z" fill="#89b6ff"/><path d="m105.6 4.4h19v2h-19z" fill="#d8d8d8"/><g fill="#89b6ff"><path d="m4.6 23.54h13v2h-13z"/><path d="m4.6 29.04h16v2h-16z"/><path d="m4.6 34.54h10v2h-10z"/><path d="m4.6 40.04h14v2h-14z"/></g></svg>