<svg height="124" viewBox="0 0 142 124" width="142" xmlns="http://www.w3.org/2000/svg"><path d="m0 0h124v30h-124z" fill="#3473d9" transform="matrix(0 -1 1 0 0 124)"/><path d="m0 0h124v114h-124z" fill="#f2f2f2" transform="matrix(0 -1 1 0 28 124)"/><path d="m0 0h124v129h-124z" fill="#f2f2f2" transform="matrix(0 -1 1 0 13 124)"/><rect fill="#f2f2f2" height="6" rx="3" width="6" x="3.6" y="2.4"/><rect fill="#89b6ff" height="6" rx="3" width="6" x="3.6" y="113.4"/><path d="m3.6 41.4h6v6h-6z" fill="#f2f2f2"/><path d="m3.6 51.4h6v6h-6z" fill="#f2f2f2"/><path d="m3.6 61.4h6v6h-6z" fill="#f2f2f2"/><path d="m3.6 71.4h6v6h-6z" fill="#f2f2f2"/><path d="m0 0h124v30h-124z" fill="#d4d4d4" transform="matrix(0 -1 1 0 13 124)"/><g fill="#f2f2f2"><path d="m16.6 42.4h19v2h-19z"/><path d="m16.6 48.4h13v2h-13z"/><path d="m16.6 53.4h16v2h-16z"/><path d="m16.6 70.4h16v2h-16z"/><path d="m16.6 59.4h10v2h-10z"/><path d="m16.6 75.4h10v2h-10z"/><path d="m16.6 64.4h14v2h-14z"/></g></svg>