<svg height="21" viewBox="0 0 20 21" width="20" xmlns="http://www.w3.org/2000/svg"><path d="m18.326 17.187h-5.959c0 1.3166468-1.0673532 2.384-2.384 2.384-1.31664684 0-2.384-1.0673532-2.384-2.384h-5.959c-.50181392-.0127395-.93681722-.3508502-1.073-.834-.1436743-.4694692-.0043407-.9797104.358-1.311 1.19647978-.9036996 1.90192815-2.3145964 1.907-3.814v-3.577c.06526627-3.90221923 3.24723501-7.03141321 7.15-7.03141321 3.902765 0 7.0847337 3.12919398 7.15 7.03141321v3.576c.0050718 1.4994036.7105202 2.9103004 1.907 3.814.3984351.3082024.5444932.8430689.358 1.311-.1355982.4828549-.5696547.821265-1.071.835z" fill="none" stroke="currentColor" stroke-width="2"/></svg>