<svg height="12" viewBox="0 0 11 12" width="11" xmlns="http://www.w3.org/2000/svg"><g fill="none" fill-rule="evenodd" transform="translate(-6 -6)"><path d="m0 0h22.613v22.613h-22.613z"/><path d="m6.309 16.774c-.36719676-.3680803-.36719676-.9639197 0-1.332l7.053-7.052h-5.72c-.52052838 0-.9425-.42197162-.9425-.9425s.42197162-.9425.9425-.9425h7.992c.5036901.00054436.9180324.39683357.941.9l.333 7.662c.0226437.5199761-.3805239.9598563-.9005.9825s-.9598563-.3805239-.9825-.9005l-.24-5.522-7.143 7.147c-.17669213.1769074-.41646733.2763111-.6665.2763111s-.48980787-.0994037-.6665-.2763111z" fill="currentColor" fill-rule="nonzero"/></g></svg>
