<svg height="15.484" viewBox="0 0 14.383 15.484" width="14.383" xmlns="http://www.w3.org/2000/svg"><g fill="currentColor"><path d="m26.2 1.873h-1.18v-.8a1.07 1.07 0 0 0 -1.07-1.073h-.043a1.07 1.07 0 0 0 -1.07 1.07v.8h-5.522v-.8a1.07 1.07 0 0 0 -1.07-1.07h-.045a1.07 1.07 0 0 0 -1.07 1.07v.8h-1.175a1.07 1.07 0 0 0 -1.07 1.07v11.475a1.07 1.07 0 0 0 1.07 1.07h12.245a1.07 1.07 0 0 0 1.07-1.07v-11.471a1.07 1.07 0 0 0 -1.07-1.071zm-.728 11.921h-10.789v-8.689h10.786z" transform="translate(-12.885)"/><path d="m85.307 161.84h1.862a.171.171 0 0 0 .171-.171v-1.862a.171.171 0 0 0 -.171-.171h-1.862a.171.171 0 0 0 -.171.171v1.862a.171.171 0 0 0 .171.171z" transform="translate(-81.043 -152.803)"/><path d="m85.307 231.84h1.862a.171.171 0 0 0 .171-.171v-1.862a.171.171 0 0 0 -.171-.171h-1.862a.171.171 0 0 0 -.171.171v1.862a.171.171 0 0 0 .171.171z" transform="translate(-81.043 -219.807)"/><path d="m155.307 231.84h1.862a.171.171 0 0 0 .171-.171v-1.862a.171.171 0 0 0 -.171-.171h-1.862a.171.171 0 0 0 -.171.171v1.862a.171.171 0 0 0 .171.171z" transform="translate(-147.047 -222.807)"/><path d="m225.307 231.84h1.862a.171.171 0 0 0 .171-.171v-1.862a.171.171 0 0 0 -.171-.171h-1.862a.171.171 0 0 0 -.171.171v1.862a.171.171 0 0 0 .171.171z" transform="translate(-217.051 -219.807)"/></g></svg>