<svg height="123" viewBox="0 0 142 123" width="142" xmlns="http://www.w3.org/2000/svg"><path d="m0 0h112v114h-112z" fill="#f2f2f2" transform="matrix(0 -1 1 0 28 123)"/><path d="m0 0h112v142h-112z" fill="#f2f2f2" transform="matrix(0 -1 1 0 0 123)"/><path d="m0 0h11v142h-11z" fill="#3473d9" transform="matrix(0 -1 1 0 0 11)"/><rect fill="#89b6ff" height="6" rx="3" width="6" x="11.6" y="2.4"/><rect fill="#89b6ff" height="6" rx="3" width="6" x="127.6" y="2.4"/><path d="m4.6 27.4h19v2h-19z" fill="#d8d8d8"/><path d="m105.6 4.4h19v2h-19z" fill="#89b6ff"/><g fill="#d8d8d8"><path d="m4.6 32.4h13v2h-13z"/><path d="m4.6 37.4h16v2h-16z"/><path d="m4.6 42.4h10v2h-10z"/><path d="m4.6 47.4h14v2h-14z"/></g></svg>