<svg height="124" viewBox="0 0 142 124" width="142" xmlns="http://www.w3.org/2000/svg"><path d="m0 0h124v30h-124z" fill="#3473d9" transform="matrix(0 -1 1 0 0 124)"/><path d="m0 0h124v114h-124z" fill="#f2f2f2" transform="matrix(0 -1 1 0 28 124)"/><path d="m0 0h124v114h-124z" fill="#f2f2f2" transform="matrix(0 -1 1 0 28 124)"/><path d="m0 0h11v114h-11z" fill="#3b86ff" transform="matrix(0 -1 1 0 28 11)"/><rect fill="#f2f2f2" height="6" rx="3" width="6" x="11.6" y="2.4"/><g fill="#89b6ff"><rect height="6" rx="3" width="6" x="127.6" y="2.4"/><path d="m4.6 16.4h19v2h-19z"/><path d="m105.6 4.4h19v2h-19z"/><path d="m4.6 23.4h13v2h-13z"/><path d="m4.6 29.4h16v2h-16z"/><path d="m4.6 34.4h10v2h-10z"/><path d="m4.6 40.4h14v2h-14z"/></g></svg>