<svg height="224.968" viewBox="0 0 430.912 224.968" width="430.912" xmlns="http://www.w3.org/2000/svg"><path d="m48.406 60.526h114.226v148.791h-114.226z" fill="#eceff6"/><path d="m1626.57 5212.086h-.5v-149.043h88.1v.5h-87.6z" fill="#191c3c" transform="translate(-1577.912 -5002.769)"/><path d="m52.414 75.258h106.28v133.807h-106.28z" fill="#fff"/><path d="m1658.9 5083.818a1.746 1.746 0 1 1 -1.746-1.746 1.746 1.746 0 0 1 1.746 1.746z" fill="#fff" transform="translate(-1597.422 -5015.421)"/><path d="m1683.114 5083.818a1.746 1.746 0 1 1 -1.746-1.746 1.746 1.746 0 0 1 1.746 1.746z" fill="#fff" transform="translate(-1613.52 -5015.421)"/><path d="m1707.325 5083.818a1.746 1.746 0 1 1 -1.746-1.746 1.746 1.746 0 0 1 1.746 1.746z" fill="#fff" transform="translate(-1629.617 -5015.421)"/><path d="m60.449 149.538h59.021v3.619h-59.021z" fill="#f9f9fb"/><path d="m60.449 155.441h59.021v3.619h-59.021z" fill="#f9f9fb"/><path d="m60.449 161.344h58.763v3.619h-58.763z" fill="#f9f9fb"/><path d="m60.449 167.344h58.763v3.619h-58.763z" fill="#f9f9fb"/><path d="m60.33 81.723h65.976v37.883h-65.976z" fill="#38d997"/><path d="m2392 5052.556a2.357 2.357 0 0 0 -2.358-2.357h-86.431a2.358 2.358 0 0 0 -2.358 2.357v150.99h91.147z" fill="#fff" transform="translate(-2026.556 -4994.229)"/><path d="m274.293 62.208h87.055v146.872h-87.055z" fill="#eceff6"/><path d="m2411.729 5202.94h-.5v-150.89a2.1 2.1 0 0 0 -2.1-2.1h-78.929v-.5h78.927a2.607 2.607 0 0 1 2.6 2.6z" fill="#191c3c" transform="translate(-2046.069 -4993.729)"/><path d="m48.341 26.746h85.888v26.94h-85.888z" fill="#fff"/><path d="m78.448 33.538h51.916v3.619h-51.916z" fill="#f9f9fb"/><path d="m78.448 39.442h51.916v3.619h-51.916z" fill="#f9f9fb"/><path d="m78.448 45.344h20.763v3.619h-20.763z" fill="#f9f9fb"/><path d="m1712.267 4989.688h-86.392v-27.443h86.392zm-85.888-.5h85.385v-26.436h-85.385z" fill="#191c3c" transform="translate(-1577.786 -4935.75)"/><path d="m285.576 26.746h78.284v24.555h-78.284z" fill="#fff"/><path d="m2412.554 4987.3h-78.787v-25.058h78.787zm-78.283-.5h77.78v-24.05h-77.78z" fill="#191c3c" transform="translate(-2048.442 -4935.75)"/><path d="m2399.259 4988.416h3.651v9.018h-1.935v-7.3h-1.716z" fill="#191c3c" transform="translate(-2091.986 -4953.152)"/><path d="m2415.467 4990.132v-1.716h5.521v1.394l-1.845 2.1a2.625 2.625 0 0 1 1.677.91 2.59 2.59 0 0 1 .594 1.683 2.748 2.748 0 0 1 -.961 2.226 3.692 3.692 0 0 1 -2.458.806 5.331 5.331 0 0 1 -3.031-1.058l.826-1.6a4.11 4.11 0 0 0 2.283.9 1.618 1.618 0 0 0 1-.3 1.01 1.01 0 0 0 .394-.858 1.046 1.046 0 0 0 -.452-.891 2.1 2.1 0 0 0 -1.251-.329 4.3 4.3 0 0 0 -1.2.246v-1.483l1.729-2.038z" fill="#191c3c" transform="translate(-2102.428 -4953.152)"/><path d="m2444.11 4988.416v1.742h-3.561v1.509a3.3 3.3 0 0 1 .916-.116 3.388 3.388 0 0 1 2.244.787 2.623 2.623 0 0 1 .942 2.122 2.829 2.829 0 0 1 -.974 2.206 3.48 3.48 0 0 1 -2.406.871 3.951 3.951 0 0 1 -3.057-1.354l1.058-1.471q.116.116.31.284a4.3 4.3 0 0 0 .709.445 2.158 2.158 0 0 0 1.032.278 1.457 1.457 0 0 0 .916-.311 1.085 1.085 0 0 0 .4-.916 1.107 1.107 0 0 0 -.432-.936 1.8 1.8 0 0 0 -1.116-.329 3.434 3.434 0 0 0 -1.587.49l-.839-.9v-4.4z" fill="#191c3c" transform="translate(-2117.887 -4953.152)"/><path d="m134.23 60.22h14.019v148.563h-14.019z" fill="#231f20" opacity=".15"/><path d="m270.731 55.969h14.019v152.813h-14.019z" fill="#231f20" opacity=".15"/><path d="m137.559.252h144.377v188.066h-144.377z" fill="#eceff6"/><path d="m2036.975 5129.132h-.5v-182.777h-143.875v173.206h-.5v-173.71h144.88z" fill="#191c3c" transform="translate(-1754.787 -4945.852)"/><path d="m142.625 18.873h134.333v169.126h-134.333z" fill="#fff"/><path d="m1933.4 4971.912a2.207 2.207 0 1 1 -2.207-2.207 2.207 2.207 0 0 1 2.207 2.207z" fill="#fff" transform="translate(-1779.316 -4961.711)"/><path d="m1964 4971.912a2.207 2.207 0 1 1 -2.207-2.207 2.207 2.207 0 0 1 2.207 2.207z" fill="#fff" transform="translate(-1799.662 -4961.711)"/><path d="m1994.6 4971.912a2.207 2.207 0 1 1 -2.207-2.207 2.207 2.207 0 0 1 2.207 2.207z" fill="#fff" transform="translate(-1820.008 -4961.711)"/><path d="m2501.51 5307.987a.79.79 0 0 1 -.79-.79v-19.327a.79.79 0 0 1 .79-.79.79.79 0 0 1 .79.79v19.33a.79.79 0 0 1 -.79.787z" fill="#191c3c" transform="translate(-2159.444 -5151.725)"/><path d="m2501.275 5475.789 6.149 4.454h-10.843l-3.305-5.185 5.225-3.331z" fill="#3b86ff" transform="translate(-2154.495 -5274.492)"/><path d="m2342.448 5423.063 2.251 2.846a8.234 8.234 0 0 0 6.457 3.125h4.2a8.233 8.233 0 0 0 6.584-3.29l16.867-21.038 13.585 16.308h10.3l-17.53-28.511a6.75 6.75 0 0 0 -9.944-1.669l-20.8 16.725z" fill="#23287e" transform="translate(-2054.214 -5219.718)"/><path d="m2493.745 5494.518h23.525v-.859a2.2 2.2 0 0 0 -1.622-2.121l-7.735-2.1-2.762-1.6h-11.406z" fill="#3e49b4" transform="translate(-2154.807 -5285.201)"/><path d="m2493.745 5504.586v1.069h23.525v-.859c0-.071-.011-.141-.018-.21z" fill="#f5f7f9" transform="translate(-2154.807 -5296.339)"/><path d="m2494.893 5475.789 6.148 4.454h-10.841l-3.305-5.185 5.225-3.331z" fill="#3b86ff" transform="translate(-2150.252 -5274.492)"/><path d="m2366.413 5313.4-2.693 6.861 9.589 4.545s-.086-4.39 2.53-5.792z" fill="#3b86ff" transform="translate(-2068.357 -5169.227)"/><path d="m2388.778 5284.605-1.139-1.514a16.2 16.2 0 0 0 -11.252 2.005 6.191 6.191 0 0 0 -2.753 2.843 5.461 5.461 0 0 0 -.317 2.021 9.914 9.914 0 0 0 7.594 9.339 5.874 5.874 0 0 0 7.1-3.85 16.7 16.7 0 0 0 1.085-5.749 15.7 15.7 0 0 0 -.318-5.095z" fill="#3b86ff" transform="translate(-2074.737 -5148.889)"/><path d="m2366.814 5322.31c.007-.03 0-.058.008-.086l-.027.005z" fill="#e03c00" transform="translate(-2070.401 -5175.091)"/><path d="m2381.744 5268.638c-.223-.208-.508-.345-.717-.568-.608-.652-.36-1.776-.908-2.48a2.137 2.137 0 0 0 -1.886-.617 10.9 10.9 0 0 1 -2.058.168c-1.508-.169-2.726-1.593-4.241-1.514-1.2.063-2.218 1.075-3.42 1.051-.492-.009-.966-.2-1.457-.235a2.566 2.566 0 0 0 -2.6 2.909 2.883 2.883 0 0 0 -3.2 2.718c0 1.255.832 2.368.991 3.612.243 1.9-1.123 3.819-.6 5.667.385 1.371 1.756 2.537 1.493 3.912l2.02-.4c1.086-.216 2.35-.578 2.719-1.622.542-1.534-1.328-2.955-1.293-4.582a1.32 1.32 0 0 1 .582-1.134 1.656 1.656 0 0 1 .878-.155 3.145 3.145 0 0 1 2.734 1.375c.2.365.282.785.49 1.144a.992.992 0 0 0 1.013.563.958.958 0 0 0 .58-1.067 6.762 6.762 0 0 0 -.409-1.257 3.248 3.248 0 0 1 1.652-3.795 6.64 6.64 0 0 1 3.516-.244 5.561 5.561 0 0 0 3.479-.43c1.022-.619 1.511-2.205.642-3.019z" fill="#2e35a8" transform="translate(-2066.725 -5136.13)"/><path d="m2336.067 5423.063 2.25 2.846a8.233 8.233 0 0 0 6.457 3.125h5.268a8.233 8.233 0 0 0 6.584-3.29l15.8-21.038 13.584 16.308h10.3l-17.531-28.511a6.749 6.749 0 0 0 -9.944-1.669l-20.8 16.725z" fill="#2e35a8" transform="translate(-2049.971 -5219.718)"/><path d="m2334.758 5333.878s-10.958 10.785-13.176 19.875c-.036.147-.07.3-.1.442-1.961 9.178-1.159 34.931-1.159 34.931 6.7 3.466 17.571-9.607 24.071-18.168a15.552 15.552 0 0 0 2.944-6.813l.981-5.8a27.225 27.225 0 0 0 -2.153-16.013l-1.817-3.912z" fill="#191c3c" transform="translate(-2039.394 -5182.84)"/><path d="m2487.363 5494.518h23.525v-.859a2.2 2.2 0 0 0 -1.622-2.121l-7.734-2.1-2.762-1.6h-11.406z" fill="#191c3c" transform="translate(-2150.563 -5285.201)"/><path d="m2487.363 5504.586v1.069h23.525v-.859c0-.071-.011-.141-.017-.21z" fill="#f5f7f9" transform="translate(-2150.563 -5296.339)"/><path d="m2362.378 5328.361 12.482 8.266-.252 3.363-13.343-9.78z" fill="#fff" transform="translate(-2066.725 -5179.172)"/><path d="m2359.539 5330.792a4.772 4.772 0 0 0 3.666 5.893l21.641 4.388a5.472 5.472 0 0 0 4.489-.913l18.026-13.211a1.6 1.6 0 0 0 .427-.444l2.052-3.192a1.16 1.16 0 0 0 .185-.628v-9.016a1.6 1.6 0 0 0 -1.6 1.647l.081 4.679-1.426 2.763h-1.337l.239-2.291.525-.774a1.373 1.373 0 0 0 -.36-1.9l-.254-.174-1.426 2.049-.952 3.45-.535 2.584-17.466 8.376-19.861-6.6a4.772 4.772 0 0 0 -6.118 3.312z" fill="#3b86ff" transform="translate(-2065.471 -5169.404)"/><path d="m2374.379 5355.6-10.674-3.384a5.38 5.38 0 1 0 -2.765 10.378l12.857 3.432c2.069-1.738-.621-7.321.582-10.426z" fill="#191c3c" transform="translate(-2063.64 -5194.848)"/><path d="m1532.1 5441.935h-.008a.492.492 0 0 1 -.669-.188l-15.546-27.686a.492.492 0 0 1 .188-.67h.008a.491.491 0 0 1 .669.188l15.547 27.688a.492.492 0 0 1 -.189.668z" fill="#191c3c" transform="translate(-1504.609 -5235.663)"/><path d="m1.042 0h39.8a1.041 1.041 0 0 1 1.041 1.041v1.227a1.042 1.042 0 0 1 -1.043 1.041h-39.799a1.041 1.041 0 0 1 -1.041-1.041v-1.226a1.042 1.042 0 0 1 1.042-1.042z" fill="#474963" transform="translate(24.048 206.047)"/><path d="m1596.02 5500.648a1.517 1.517 0 0 0 -.374-.974 1.539 1.539 0 0 1 -1.538 1.533l-38.8.021a1.515 1.515 0 0 1 -1.167-.565s0 0 0 .007v.229a1.541 1.541 0 0 0 1.541 1.54l38.8-.021a1.54 1.54 0 0 0 1.539-1.541z" fill="#191c3c" transform="translate(-1530.09 -5293.072)"/><path d="m52.042 206.927h3.044v1.167h-3.044z" fill="#75778a"/><path d="m55.65 206.925h3.044v1.167h-3.044z" fill="#75778a"/><path d="m30.037 206.939h3.044v1.167h-3.044z" fill="#75778a"/><path d="m0 0h6.281v9.155h-6.281z" fill="#3b86ff" transform="matrix(-.02638632 -.99965182 .99965182 -.02638632 185.31 209.118)"/><path d="m2054.848 5490.106 6.493 10.909.411 3.142a1.842 1.842 0 0 0 1.875 1.6l1.891-.05-.575-21.8a2.2 2.2 0 0 0 -2.258-2.142l-1.7.045a11.293 11.293 0 0 0 -5.074 1.354l-1.227.663a2.5 2.5 0 0 1 2.567 2.435l.034 1.278a2.5 2.5 0 0 1 -2.434 2.567z" fill="#2e35a8" transform="translate(-1862.887 -5281.163)"/><path d="m2075.521 5483.99.564 21.39a.771.771 0 0 0 .792.751l1.029-.027-.584-22.161a2.219 2.219 0 0 0 -2.26-2.178l-1.7.044c-.021 0-.041 0-.062.005a2.218 2.218 0 0 1 2.221 2.176z" fill="#38d997" transform="translate(-1875.264 -5281.163)"/><path d="m1901.394 5480.343 14.814-3.72 33.087 3.326v7.234h-35.732l-13.881-1.657z" fill="#b2b8fa" transform="translate(-1759.831 -5277.745)"/><path d="m0 0h6.281v9.155h-6.281z" fill="#3b86ff" transform="matrix(-.97590915 .21817731 -.21817731 -.97590915 149.665 179.786)"/><path d="m1905.3 5373.551 9.457-8.471 3-1.008a1.842 1.842 0 0 0 1.212-2.148l-.413-1.846-21.285 4.759a2.2 2.2 0 0 0 -1.668 2.629l.372 1.661a11.3 11.3 0 0 0 2.305 4.719l.887 1.076a2.5 2.5 0 0 1 1.9-2.987l1.248-.279a2.5 2.5 0 0 1 2.987 1.9z" fill="#2e35a8" transform="translate(-1757.087 -5200.258)"/><path d="m1897.667 5366.306 20.982-4.734a.78.78 0 0 0 .59-.932l-.223-1-21.743 4.9a2.2 2.2 0 0 0 -1.668 2.629l.371 1.661c0 .021.013.039.018.06a2.2 2.2 0 0 1 1.673-2.584z" fill="#38d997" transform="translate(-1757.087 -5199.969)"/><path d="m1901.394 5480.343-1.713 5.183 13.836 1.651h.453a7.221 7.221 0 0 0 6.833-9.957l-.06-.146-4.536-.456z" fill="#231f20" opacity=".1" transform="translate(-1759.831 -5277.745)"/><path d="m1822.316 5418.277 2.574.23a48.309 48.309 0 0 1 17.694 5.106l10.343 5.29a1.135 1.135 0 0 0 1.61-1.313l-6.566-23.7h8.163l10.227 24.977a7.222 7.222 0 0 1 -6.833 9.957l-39.459-.318z" fill="#b2b8fa" transform="translate(-1706.899 -5229.389)"/><path d="m1703.737 5426.8 3.925 6.37a6.15 6.15 0 0 0 8.057 2.239l1.962-1.013 11.736 5.2a18.169 18.169 0 0 0 6.519 1.537l9.679 1.284s5.284-12.892 1.089-21.059a32.45 32.45 0 0 1 -28-5.791l-8.208-6.373z" fill="#2e35a8" transform="translate(-1629.554 -5232.912)"/><path d="m1674.644 5416.8 8.511 6.23 1.238-5.55-6.122-5.771z" fill="#3b86ff" transform="translate(-1610.211 -5234.584)"/><path d="m1657.758 5402.227a6.326 6.326 0 0 0 -3.031-2.529 23.63 23.63 0 0 0 -12.388-2.28l-1.013.246a11.775 11.775 0 0 0 1.662 5.564l2.146 4.359a5.616 5.616 0 0 0 .856 1.382c1.121 1.206 3.012 1.195 4.642.966a10.8 10.8 0 0 0 5.685-2.169c1.552-1.349 2.383-3.71 1.441-5.539z" fill="#3b86ff" transform="translate(-1588.055 -5225.023)"/><path d="m1615.865 5437.071-2.683 15.48a1.943 1.943 0 0 1 -1.655 1.594l-23.089 2.511-4.9.775-4.476 1.172-3.536.112c0 .939.669 2.01 1.609 2.01h2.607l6.214-.309 28.17.695a4.69 4.69 0 0 0 4.527-3.035l7.662-20.334z" fill="#3b86ff" transform="translate(-1544.31 -5251.449)"/><g fill="#191c3c"><path d="m1673.742 5388.456a12.293 12.293 0 0 0 -2.544-3.562 16.88 16.88 0 0 0 -3.315-2.848c-1.788-1.1-3.589-1.42-5.192-2.843a17.189 17.189 0 0 1 -3.713-4.683c-.494-.916-.9-1.877-1.446-2.765a12.59 12.59 0 0 0 -8.088-5.443 26.549 26.549 0 0 0 -5.726-.885 20.48 20.48 0 0 0 -6.489 1.149 10.627 10.627 0 0 0 -4.159 2.179 5.109 5.109 0 0 0 -1.2 5.261 5.542 5.542 0 0 0 .91 2.017c1.656 2.194 5.2 2.321 7.687 2.871 1.538.339 3.158-.152 4.641.463a9.809 9.809 0 0 1 3.223 2.8 26.076 26.076 0 0 1 3.68 4.788c.524.958.925 1.977 1.371 2.973a17.851 17.851 0 0 0 5.959 7.759 10.434 10.434 0 0 0 10.825.613c3.288-1.929 5.053-6.331 3.576-9.844z" transform="translate(-1581.613 -5203.814)"/><path d="m259.993 209.065h162.943v.504h-162.943z"/><path d="m5.714 209.115h140.948v.504h-140.948z"/><path d="m-.001 209.065h3.7v.504h-3.7z"/><path d="m424.87 209.065h6.04v.504h-6.04z"/><path d="m245.554 209.065h11.417v.504h-11.417z"/></g><path d="m1839.865 5285.271a8.8 8.8 0 1 1 8.8-8.8 8.812 8.812 0 0 1 -8.8 8.8zm0-16.781a7.979 7.979 0 1 0 7.979 7.979 7.989 7.989 0 0 0 -7.979-7.979z" fill="#38d997" transform="translate(-1776.837 -5235.226)"/><path d="m7.212 2.747v-.915a1.817 1.817 0 0 0 -1.803-1.832h-3.609a1.817 1.817 0 0 0 -1.8 1.832v.916" style="fill:none;stroke:#38d997;stroke-linecap:round;stroke-linejoin:round;stroke-miterlimit:10;stroke-width:.7" transform="translate(59.225 41.971)"/><ellipse cx="62.831" cy="38.308" rx="1.803" ry="1.832" style="stroke-width:.7;stroke:#38d997;stroke-linecap:round;stroke-linejoin:round;stroke-miterlimit:10;fill:none"/><path d="m1838.053 5281.647a6.99 6.99 0 1 1 6.99-6.99 7 7 0 0 1 -6.99 6.99zm0-13.327a6.337 6.337 0 1 0 6.337 6.337 6.344 6.344 0 0 0 -6.337-6.336z" fill="#38d997" transform="translate(-1676.651 -5236.04)"/><path d="m5.727 2.182v-.728a1.443 1.443 0 0 0 -1.427-1.454h-2.868a1.443 1.443 0 0 0 -1.432 1.454v.727" style="fill:none;stroke:#38d997;stroke-linecap:round;stroke-linejoin:round;stroke-miterlimit:10;stroke-width:.6" transform="translate(158.382 39.195)"/><ellipse cx="161.246" cy="36.286" rx="1.432" ry="1.454" style="fill:none;stroke:#38d997;stroke-linecap:round;stroke-linejoin:round;stroke-miterlimit:10;stroke-width:.6"/><path d="m1838.053 5281.647a6.99 6.99 0 1 1 6.99-6.99 7 7 0 0 1 -6.99 6.99zm0-13.327a6.337 6.337 0 1 0 6.337 6.337 6.344 6.344 0 0 0 -6.337-6.336z" fill="#38d997" transform="translate(-1676.651 -5211.04)"/><path d="m5.727 2.182v-.728a1.443 1.443 0 0 0 -1.427-1.454h-2.868a1.443 1.443 0 0 0 -1.432 1.454v.727" style="fill:none;stroke:#38d997;stroke-linecap:round;stroke-linejoin:round;stroke-miterlimit:10;stroke-width:.6" transform="translate(158.382 64.195)"/><ellipse cx="161.246" cy="61.286" rx="1.432" ry="1.454" style="fill:none;stroke:#38d997;stroke-linecap:round;stroke-linejoin:round;stroke-miterlimit:10;stroke-width:.6"/><path d="m1838.053 5281.647a6.99 6.99 0 1 1 6.99-6.99 7 7 0 0 1 -6.99 6.99zm0-13.327a6.337 6.337 0 1 0 6.337 6.337 6.344 6.344 0 0 0 -6.337-6.336z" fill="#38d997" transform="translate(-1676.651 -5186.04)"/><path d="m5.727 2.182v-.728a1.443 1.443 0 0 0 -1.427-1.454h-2.868a1.443 1.443 0 0 0 -1.432 1.454v.727" style="fill:none;stroke:#38d997;stroke-linecap:round;stroke-linejoin:round;stroke-miterlimit:10;stroke-width:.6" transform="translate(158.382 89.195)"/><ellipse cx="161.246" cy="86.286" rx="1.432" ry="1.454" style="fill:none;stroke:#38d997;stroke-linecap:round;stroke-linejoin:round;stroke-miterlimit:10;stroke-width:.6"/><path d="m1838.053 5281.647a6.99 6.99 0 1 1 6.99-6.99 7 7 0 0 1 -6.99 6.99zm0-13.327a6.337 6.337 0 1 0 6.337 6.337 6.344 6.344 0 0 0 -6.337-6.336z" fill="#ebebfb" transform="translate(-1676.651 -5162.04)"/><path d="m5.727 2.182v-.728a1.443 1.443 0 0 0 -1.427-1.454h-2.868a1.443 1.443 0 0 0 -1.432 1.454v.727" style="fill:none;stroke:#ededfb;stroke-linecap:round;stroke-linejoin:round;stroke-miterlimit:10;stroke-width:.6" transform="translate(158.382 113.195)"/><ellipse cx="161.246" cy="110.286" rx="1.432" ry="1.454" style="fill:none;stroke:#ededfb;stroke-linecap:round;stroke-linejoin:round;stroke-miterlimit:10;stroke-width:.6"/><path d="m1838.053 5281.647a6.99 6.99 0 1 1 6.99-6.99 7 7 0 0 1 -6.99 6.99zm0-13.327a6.337 6.337 0 1 0 6.337 6.337 6.344 6.344 0 0 0 -6.337-6.336z" fill="#ebebfb" transform="translate(-1676.651 -5140.04)"/><path d="m5.727 2.182v-.728a1.443 1.443 0 0 0 -1.427-1.454h-2.868a1.443 1.443 0 0 0 -1.432 1.454v.727" style="fill:none;stroke:#ededfb;stroke-linecap:round;stroke-linejoin:round;stroke-miterlimit:10;stroke-width:.6" transform="translate(158.382 135.195)"/><ellipse cx="161.246" cy="132.286" rx="1.432" ry="1.454" style="fill:none;stroke:#ededfb;stroke-linecap:round;stroke-linejoin:round;stroke-miterlimit:10;stroke-width:.6"/><g fill="#a0a9af"><path d="m3493.415 4406.25h-.09l-3.518-.041a5.591 5.591 0 0 1 -5.585-5.585v-4.045h14.878v3.987a5.684 5.684 0 0 1 -5.682 5.685zm-8.9-9.383v3.756a5.3 5.3 0 0 0 5.3 5.3l3.519.041a5.4 5.4 0 0 0 5.479-5.395v-3.7z" transform="translate(-3093.508 -4197.322)"/><path d="m3514.493 4169.822-.275-.092c.585-1.756 2.687-4.489 5-6.5a17.137 17.137 0 0 0 3.56-4.421c.557-.926.894-1.485 1.344-1.215 1.657.995 1.521 3.831 1.376 6.833-.054 1.126-.11 2.291-.068 3.362l-.29.011c-.043-1.084.014-2.255.068-3.387.14-2.914.273-5.666-1.236-6.571-.2-.121-.514.4-.946 1.115a17.4 17.4 0 0 1 -3.618 4.491c-2.278 1.982-4.344 4.661-4.915 6.374z" transform="translate(-3117.711 -4004.436)"/><path d="m3532.016 4275.8c-.692-4.271.76-6 2.3-7.835a8.93 8.93 0 0 0 2.6-5.652 35.718 35.718 0 0 1 1.751-8.648 45.416 45.416 0 0 0 1.48-5.981l.286.047a45.63 45.63 0 0 1 -1.488 6.018 35.437 35.437 0 0 0 -1.74 8.584 9.174 9.174 0 0 1 -2.663 5.819c-1.493 1.781-2.9 3.462-2.232 7.6z" transform="translate(-3131.928 -4077.177)"/><path d="m3447.651 4179.783c-1.875-2.572-1.234-7.121-.556-11.937.9-6.393 1.922-13.639-2.424-18.336-5.266-5.693-5.086-12.737-4.979-16.946.053-2.083.091-3.587-.531-3.82-.721-.27-2.631.562-4.458 2.375-2.225 2.209-6.965 8.541-2.923 19.6a13.174 13.174 0 0 1 .5 4.568c-.012 3.43-.025 7.317 4.859 11.043 1.259.96 1.962 2.738 2.776 4.8 1.08 2.73 2.3 5.824 5.189 7.961l-.173.233c-2.952-2.187-4.192-5.322-5.286-8.088-.8-2.018-1.487-3.761-2.682-4.672-5-3.813-4.985-7.777-4.973-11.275a12.98 12.98 0 0 0 -.481-4.468c-4.1-11.22.726-17.66 2.991-19.908 1.935-1.92 3.941-2.749 4.764-2.442s.778 1.814.719 4.1c-.106 4.165-.284 11.135 4.9 16.742 4.439 4.8 3.408 12.116 2.5 18.573-.67 4.756-1.3 9.249.5 11.727z" transform="translate(-3049.684 -3980.941)"/><path d="m3459.4 4179.159c-.014-.127-.028-.254-.044-.382l.288-.036c.016.129.031.258.045.387zm-.215-1.521q-.033-.188-.07-.377l.284-.056c.025.127.049.255.071.383zm-.322-1.5q-.047-.186-.1-.371l.28-.077q.051.188.1.376zm-.433-1.471q-.062-.182-.126-.363l.272-.1q.066.184.128.368zm-.55-1.432q-.076-.176-.156-.351l.263-.12q.081.178.158.356zm-.666-1.381q-.09-.168-.185-.335l.252-.142q.1.17.188.341zm-.781-1.318c-.07-.106-.14-.213-.213-.318l.239-.164c.073.107.146.216.216.324zm-.849-1.294c-.068-.111-.135-.222-.2-.333l.25-.147q.1.165.2.329zm-.767-1.353q-.09-.174-.176-.347l.26-.129c.056.114.115.228.174.342zm-.665-1.406c-.051-.12-.1-.24-.149-.359l.269-.109q.071.177.147.354zm-.555-1.453q-.063-.185-.121-.37l.276-.088q.058.182.12.364zm-.441-1.492c-.032-.126-.062-.253-.092-.378l.282-.065q.043.185.091.373zm-.323-1.522q-.033-.193-.062-.384l.286-.044c.019.125.04.252.062.378zm-.206-1.542c-.012-.13-.023-.259-.033-.388l.289-.021q.014.19.033.382zm-.089-1.553c0-.13 0-.26 0-.389h.29v.383zm.314-1.54-.29-.015q.01-.2.023-.388l.289.02c-.008.127-.016.255-.022.383zm.132-1.529-.287-.035q.023-.194.05-.385l.287.04q-.027.189-.051.381zm.236-1.518-.284-.054q.037-.193.075-.381l.284.059q-.04.187-.076.377zm.334-1.5-.28-.072c.032-.127.066-.252.1-.375l.279.077q-.053.183-.1.372zm.429-1.475-.275-.09q.062-.189.124-.369l.274.095c-.042.12-.083.241-.124.366zm.524-1.444-.269-.108q.076-.189.148-.36l.267.113q-.072.17-.147.357zm.626-1.4-.259-.129c.115-.229.184-.35.184-.35l.252.143s-.068.121-.178.337z" transform="translate(-3067.938 -3996.777)"/><path d="m3538.979 4356.626-.129-.259c2.864-1.435 3.859-4.025 4.632-6.556l.277.084c-.759 2.479-1.813 5.246-4.78 6.731z" transform="translate(-3137.586 -4159.588)"/><path d="m3466.519 4339.425c-5.888-2.279-5.195-8.582-5.187-8.645l.288.035c-.007.061-.67 6.144 5 8.34z" transform="translate(-3075.014 -4144.231)"/></g><path d="m2406.559 5200.033h-42.424l-6.9 3.584v-3.584h-19.293v-25.054h68.62z" fill="#fff" transform="translate(-2049.216 -5080.192)"/><path d="m2356.48 5203.532v-3.747h-19.294v-25.557h69.124v25.557h-42.61zm-18.789-4.25h19.294v3.422l6.651-3.422h42.173v-24.55h-68.117z" fill="#191c3c" transform="translate(-2048.716 -5079.693)"/><path d="m2458.422 5203.8a278.753 278.753 0 0 1 -5.939-2.447 2.445 2.445 0 0 0 -1.762 4.142l3.5 3.48 3.587-3.556c.039-.045.14-.173.14-.173a2.435 2.435 0 0 0 .474-1.446z" fill="#59dfa7" transform="translate(-2123.747 -5097.727)"/><path d="m2480.136 5206.951v-1.6h3.613v.845l-2.025 4.157h-1.216l1.932-4.042h-1.259v.644z" transform="translate(-2143.76 -5100.384)"/><path d="m2495.81 5205.348v.966h-1.975v.837a1.824 1.824 0 0 1 .508-.064 1.878 1.878 0 0 1 1.245.437 1.455 1.455 0 0 1 .522 1.177 1.57 1.57 0 0 1 -.54 1.224 1.931 1.931 0 0 1 -1.334.483 2.194 2.194 0 0 1 -1.7-.751l.587-.816c.043.043.1.1.172.157a2.345 2.345 0 0 0 .394.247 1.2 1.2 0 0 0 .572.154.806.806 0 0 0 .508-.172.6.6 0 0 0 .222-.508.615.615 0 0 0 -.24-.519 1 1 0 0 0 -.619-.182 1.9 1.9 0 0 0 -.88.272l-.465-.5v-2.44z" transform="translate(-2152.007 -5100.384)"/><path d="m2507.482 5210.18a1.8 1.8 0 0 1 -1.552-.705 3.694 3.694 0 0 1 0-3.763 2.063 2.063 0 0 1 3.105 0 3.7 3.7 0 0 1 0 3.763 1.8 1.8 0 0 1 -1.553.705zm-.737-3.792a3.211 3.211 0 0 0 0 2.418.822.822 0 0 0 1.474 0 3.217 3.217 0 0 0 0-2.418.821.821 0 0 0 -1.474 0z" transform="translate(-2160.567 -5100.157)"/><path d="m2390.594 5206.45v-.917h2.951v.745l-.986 1.124a1.4 1.4 0 0 1 .9.486 1.384 1.384 0 0 1 .317.9 1.468 1.468 0 0 1 -.514 1.189 1.976 1.976 0 0 1 -1.314.431 2.851 2.851 0 0 1 -1.62-.565l.441-.854a2.2 2.2 0 0 0 1.22.482.862.862 0 0 0 .534-.159.538.538 0 0 0 .211-.458.559.559 0 0 0 -.242-.476 1.118 1.118 0 0 0 -.669-.176 2.3 2.3 0 0 0 -.641.131v-.793l.924-1.09z" fill="#191c3c" transform="translate(-2084.046 -5100.506)"/><path d="m2405.9 5205.533v.931h-1.9v.807a1.732 1.732 0 0 1 .489-.062 1.811 1.811 0 0 1 1.2.421 1.4 1.4 0 0 1 .5 1.134 1.514 1.514 0 0 1 -.521 1.18 1.86 1.86 0 0 1 -1.286.465 2.113 2.113 0 0 1 -1.634-.724l.565-.786c.042.042.1.092.166.151a2.252 2.252 0 0 0 .379.238 1.158 1.158 0 0 0 .552.148.776.776 0 0 0 .49-.166.58.58 0 0 0 .213-.489.591.591 0 0 0 -.231-.5.958.958 0 0 0 -.6-.176 1.837 1.837 0 0 0 -.849.262l-.448-.482v-2.352z" fill="#191c3c" transform="translate(-2092.309 -5100.506)"/><path d="m2416.686 5208.271v-.841h1.034v.841h.545v.931h-.545v1.151h-1.034v-1.153h-1.938v-.82l1.717-2.849h1.172l-1.635 2.738z" fill="#191c3c" transform="translate(-2100.284 -5100.506)"/><path d="m2366 5207.9-.456-2.466a4.692 4.692 0 1 0 -1.789 2.055z" fill="#3b86ff" transform="translate(-2061.62 -5096.063)"/><path d="m2458.422 5203.8a278.753 278.753 0 0 1 -5.939-2.447 2.445 2.445 0 0 0 -1.762 4.142l3.5 3.48 3.587-3.556c.039-.045.14-.173.14-.173a2.435 2.435 0 0 0 .474-1.446z" fill="#38d997" transform="translate(-2119.747 -5165.727)"/><path d="m172.018 33.586h88.934v2.165h-88.934z" fill="#9beccb" opacity=".3"/><path d="m172.018 58.586h88.934v2.165h-88.934z" fill="#9beccb" opacity=".3"/><path d="m172.018 83.586h88.934v2.165h-88.934z" fill="#9beccb" opacity=".3"/><path d="m172.018 107.586h88.934v2.165h-88.934z" fill="#f0f1fe" opacity=".6"/><path d="m172.018 129.586h88.934v2.165h-88.934z" fill="#f0f1fe" opacity=".6"/><path d="m172.018 37.589h88.934v2.165h-88.934z" fill="#9beccb" opacity=".3"/><path d="m172.018 62.589h88.934v2.165h-88.934z" fill="#9beccb" opacity=".3"/><path d="m172.018 87.589h88.934v2.165h-88.934z" fill="#9beccb" opacity=".3"/><path d="m172.018 111.589h88.934v2.165h-88.934z" fill="#f0f1fe" opacity=".6"/><path d="m172.018 133.589h88.934v2.165h-88.934z" fill="#f0f1fe" opacity=".6"/><path d="m172.018 41.593h12.423v2.165h-12.423z" fill="#9beccb" opacity=".3"/><path d="m172.018 66.593h12.423v2.165h-12.423z" fill="#9beccb" opacity=".3"/><path d="m172.018 91.593h12.423v2.165h-12.423z" fill="#9beccb" opacity=".3"/><path d="m172.018 115.593h12.423v2.165h-12.423z" fill="#f0f1fe" opacity=".6"/><path d="m172.018 137.593h12.423v2.165h-12.423z" fill="#f0f1fe" opacity=".6"/><path d="m60.449 127.538h25.021v3.619h-25.021z" fill="#38d997"/><path d="m60.449 133.441h59.021v3.619h-59.021z" fill="#f9f9fb"/><path d="m60.449 139.344h58.763v3.619h-58.763z" fill="#f9f9fb"/><rect fill="#fff" height="11" rx="5.5" width="40" x="302.227" y="57.672"/></svg>