<svg height="198.476" viewBox="0 0 404.727 198.476" width="404.727" xmlns="http://www.w3.org/2000/svg"><path d="m4029.845 4335.415-.307-.094.065-.217.307.091zm.408-1.462-.311-.078c.034-.139.068-.276.1-.413l.312.073q-.054.207-.101.418zm.363-1.68-.315-.057q.038-.212.072-.418l.316.051c-.023.141-.047.281-.073.423zm.245-1.7-.319-.034c.015-.141.028-.282.041-.422l.319.028c-.012.138-.025.281-.041.425zm.112-1.717-.32-.008c0-.143.005-.283.005-.423h.321c0 .14-.002.283-.005.428zm-.354-1.7c-.008-.142-.019-.283-.031-.423l.319-.028c.012.143.023.286.032.43zm-.183-1.683c-.022-.14-.045-.279-.07-.417l.315-.056c.025.14.049.282.071.424zm-.334-1.658c-.034-.138-.069-.275-.106-.411l.309-.084c.038.138.073.277.108.417zm-.476-1.627c-.045-.134-.092-.267-.14-.4l.3-.108c.048.134.095.27.142.406zm-.6-1.585c-.055-.13-.111-.26-.167-.389l.293-.129q.086.2.17.394zm-.706-1.544-.189-.382.287-.144c.063.127.127.255.19.384zm-.782-1.513c-.067-.125-.135-.25-.2-.374l.281-.154q.1.187.2.375zm-.827-1.492-.209-.372.279-.158.21.373zm-.837-1.491-.207-.375.281-.154c.068.124.136.249.206.374zm-.808-1.512c-.065-.128-.128-.257-.191-.385l.288-.141c.062.127.125.253.189.38zm-.727-1.559q-.083-.2-.162-.4l.3-.116c.051.131.1.262.159.392zm-.582-1.623c-.041-.139-.079-.278-.114-.417l.311-.08c.035.136.072.271.111.407zm-.364-1.691c-.019-.142-.035-.286-.049-.43l.319-.029c.013.14.029.278.047.417z" fill="#a0a9af" transform="translate(-3641.67 -4138.131)"/><path d="m4019.646 4325.4-.294-.125c4.827-11.392-.441-20.409-4.012-24.769-3.02-3.688-6.167-5.682-6.875-5.533-.639.13-2.311 2.873-3.1 7.436l-.316-.054c.718-4.159 2.36-7.493 3.35-7.7.9-.185 4.141 1.924 7.187 5.645 3.614 4.422 8.953 13.555 4.06 25.1z" fill="#a0a9af" transform="translate(-3627.281 -4127.859)"/><path d="m4075.588 4267.253-.24-.212c2.88-3.26 3.257-6.166 3.694-9.532a29.862 29.862 0 0 1 1.319-6.311c1.472-4.234.313-6.89-.809-9.458-1.051-2.409-2.139-4.9-1.035-8.623 1.526-5.149-.9-10.41-3.318-11.917a1.837 1.837 0 0 0 -2.343.023c-.654.6-.545 2.333-.431 4.167.122 1.931.246 3.926-.441 5.146-.322.571-.7 1.137-1.1 1.734-1.646 2.472-3.511 5.274-2.391 9.926l-.312.075c-1.152-4.788.754-7.651 2.437-10.18.395-.592.767-1.152 1.083-1.714.641-1.137.519-3.085.4-4.969-.12-1.911-.233-3.718.533-4.423a2.12 2.12 0 0 1 2.729-.059c2.5 1.56 5.025 6.985 3.456 12.279-1.07 3.612-.054 5.939 1.021 8.4 1.146 2.624 2.332 5.339.819 9.691a29.582 29.582 0 0 0 -1.305 6.246c-.419 3.284-.821 6.378-3.766 9.711z" fill="#a0a9af" transform="translate(-3676.653 -4069.52)"/><path d="m56.532 60.006h163.805v136.85h-163.805z" fill="#e0e4f0"/><path d="m3003.761 5959.415h-.484v-137.092h72.035v.484h-71.551z" fill="#191c3c" transform="translate(-2946.987 -5762.559)"/><path d="m62.862 78.073h157.475v119.395h-157.475z" fill="#fff"/><path d="m67.333 83.4h57.976v39.883h-57.976z" fill="#f7f7fe"/><path d="m67.333 127.904h57.976v39.883h-57.976z" fill="#e0e3fd"/><path d="m3044.907 5843.44a1.625 1.625 0 1 1 -1.625-1.625 1.626 1.626 0 0 1 1.625 1.625z" fill="#fff" transform="translate(-2970.829 -5774.667)"/><path d="m3069.811 5843.44a1.625 1.625 0 1 1 -1.625-1.625 1.625 1.625 0 0 1 1.625 1.625z" fill="#fff" transform="translate(-2986.3 -5774.667)"/><path d="m3094.715 5843.44a1.625 1.625 0 1 1 -1.625-1.625 1.625 1.625 0 0 1 1.625 1.625z" fill="#fff" transform="translate(-3001.772 -5774.667)"/><path d="m0 0h163.805v161.392h-163.805z" fill="#e0e4f0" transform="matrix(-1 0 0 -1 381.424 197.513)"/><path d="m3753.379 5920.893h-.484v-161.151h-65.93v-.484h66.414z" fill="#191c3c" transform="translate(-3371.712 -5723.379)"/><path d="m0 0h157.475v140.807h-157.475z" fill="#fff" transform="matrix(-1 0 0 -1 375.094 198.235)"/><path d="m0 0h57.976v129.328h-57.976z" fill="#f3f4fe" transform="matrix(-1 0 0 -1 370.623 194.314)"/><path d="m3815.342 5785.483a1.625 1.625 0 1 0 1.625-1.625 1.626 1.626 0 0 0 -1.625 1.625z" fill="#fff" transform="translate(-3451.464 -5738.661)"/><path d="m3790.437 5785.483a1.625 1.625 0 1 0 1.625-1.625 1.625 1.625 0 0 0 -1.625 1.625z" fill="#fff" transform="translate(-3435.992 -5738.661)"/><path d="m3765.533 5785.483a1.625 1.625 0 1 0 1.625-1.625 1.625 1.625 0 0 0 -1.625 1.625z" fill="#fff" transform="translate(-3420.521 -5738.661)"/><path d="m224.589 35.738h93.463v161.118h-93.463z" fill="#231f20" opacity=".1"/><path d="m126.875 60.005h93.463v136.85h-93.463z" fill="#231f20" opacity=".1"/><path d="m130.743.242h183.3v197.991h-183.3z" fill="#e0e4f0"/><path d="m3382.987 5862.771h-.483v-197.749h-182.816v197.265h-.484v-197.748h183.783z" fill="#191c3c" transform="translate(-3068.703 -5664.539)"/><path d="m136.291 20.634h172.301v96.486h-172.301z" fill="#fff"/><path d="m136.291 122.642h172.301v69.932h-172.301z" fill="#fff"/><path d="m3502.149 5779.024a1.672 1.672 0 0 1 -1.671 1.671h-58.378a1.672 1.672 0 0 1 -1.671-1.671 1.672 1.672 0 0 1 1.671-1.672h58.382a1.672 1.672 0 0 1 1.671 1.672z" fill="#53dbaa" transform="translate(-3218.556 -5734.622)"/><path d="m3489.64 5800.152a1.672 1.672 0 0 1 -1.672 1.672h-45.868a1.672 1.672 0 0 1 -1.671-1.672 1.671 1.671 0 0 1 1.671-1.671h45.873a1.671 1.671 0 0 1 1.672 1.671z" fill="#b2b8fa" transform="translate(-3218.556 -5747.747)"/><path d="m3480.4 5821.281a1.671 1.671 0 0 1 -1.672 1.67h-36.628a1.671 1.671 0 0 1 -1.671-1.67 1.671 1.671 0 0 1 1.671-1.672h36.628a1.671 1.671 0 0 1 1.672 1.672z" fill="#b2b8fa" transform="translate(-3218.556 -5760.873)"/><path d="m3472.6 5842.408a1.671 1.671 0 0 1 -1.671 1.671h-28.829a1.671 1.671 0 0 1 -1.671-1.671 1.671 1.671 0 0 1 1.671-1.671h28.83a1.671 1.671 0 0 1 1.671 1.671z" fill="#b2b8fa" transform="translate(-3218.556 -5773.997)"/><path d="m3462.922 5863.536a1.672 1.672 0 0 1 -1.671 1.672h-19.151a1.672 1.672 0 0 1 -1.671-1.672 1.671 1.671 0 0 1 1.671-1.671h19.155a1.671 1.671 0 0 1 1.671 1.671z" fill="#b2b8fa" transform="translate(-3218.556 -5787.123)"/><path d="m3425.97 5779.859a.748.748 0 1 1 -.748-.748.748.748 0 0 1 .748.748z" fill="#b2b8fa" transform="translate(-3208.648 -5735.715)"/><path d="m3425.97 5801.47a.748.748 0 1 1 -.748-.748.748.748 0 0 1 .748.748z" fill="#b2b8fa" transform="translate(-3208.648 -5749.139)"/><path d="m3425.97 5823.08a.748.748 0 1 1 -.748-.748.748.748 0 0 1 .748.748z" fill="#b2b8fa" transform="translate(-3208.648 -5762.564)"/><path d="m3425.97 5844.688a.748.748 0 1 1 -.748-.748.748.748 0 0 1 .748.748z" fill="#b2b8fa" transform="translate(-3208.648 -5775.987)"/><path d="m3425.97 5866.3a.748.748 0 1 1 -.748-.748.748.748 0 0 1 .748.748z" fill="#b2b8fa" transform="translate(-3208.648 -5789.412)"/><g fill="#f0f1fe"><path d="m246.162 75.705h8.937v1.384h-8.937z"/><path d="m255.163 67.719h8.937v1.384h-8.937z"/><path d="m263.02 59.999h8.937v1.384h-8.937z"/><path d="m271.769 51.713h8.937v1.384h-8.937z"/><path d="m284.503 43.71h8.937v1.384h-8.937z"/><path d="m215.492 82.294h2.166v2.166h-2.166z"/><path d="m226.614 82.294h2.166v2.166h-2.166z"/><path d="m237.735 82.294h2.166v2.166h-2.166z"/><path d="m248.857 82.294h2.166v2.166h-2.166z"/><path d="m259.979 82.294h2.166v2.166h-2.166z"/><path d="m271.1 82.294h2.166v2.166h-2.166z"/><path d="m282.222 82.294h2.166v2.166h-2.166z"/><path d="m293.343 82.294h2.166v2.166h-2.166z"/></g><path d="m161.015 35.058h1.795v1.795h-1.795z" fill="#3b86ff"/><path d="m161.015 54.358h1.795v1.795h-1.795z" fill="#3b86ff"/><path d="m161.015 73.657h1.795v1.795h-1.795z" fill="#3b86ff"/><path d="m198.62 31.501h1.075v54.096h-1.075z" fill="#b2b8fa"/><path d="m166.079 34.446h21.543v2.912h-21.543z" fill="#f0f1fe"/><path d="m166.079 39.126h21.543v1.456h-21.543z" fill="#f0f1fe"/><path d="m166.079 42.003h21.543v1.456h-21.543z" fill="#f0f1fe"/><path d="m166.079 44.879h10.444v1.456h-10.444z" fill="#f0f1fe"/><path d="m166.079 53.823h21.543v2.912h-21.543z" fill="#f0f1fe"/><path d="m166.079 58.503h21.543v1.456h-21.543z" fill="#f0f1fe"/><path d="m166.079 61.38h21.543v1.456h-21.543z" fill="#f0f1fe"/><path d="m166.079 64.257h10.444v1.456h-10.444z" fill="#f0f1fe"/><path d="m166.079 73.2h21.543v2.912h-21.543z" fill="#f0f1fe"/><path d="m166.079 77.88h21.543v1.456h-21.543z" fill="#f0f1fe"/><path d="m166.079 80.757h21.543v1.456h-21.543z" fill="#f0f1fe"/><path d="m166.079 83.634h10.444v1.456h-10.444z" fill="#f0f1fe"/><path d="m3233.564 6083.25h160.454c-.246 0 .383-36.094-.086-39.726-5.524 2.9-9.734 8.463-15.595 11.362-4.713 2.33-10.414 3.752-15.684 2.866-4.945-.832-8.969-4.561-14.046-4.9-6.593-.442-11.057 4.928-15.767 8.616-6.611 5.175-15 11.452-23.513 12.75-5.495.838-9.929-1.622-13.343-5.756-4.424-5.357-6.684-10.225-14.186-11.255a23.5 23.5 0 0 0 -17.082 4.3c-5.749 4.48-9.18 11.844-15.781 14.934a14.978 14.978 0 0 1 -7.545 1.328c-1.683-.138-5.991-2.424-7.482-1.12-1.095.96-.344 5.133-.344 6.601z" fill="#53dbaa" transform="translate(-3089.893 -5899.974)"/><path d="m3239.692 5689.977a2.417 2.417 0 1 1 -2.417-2.417 2.417 2.417 0 0 1 2.417 2.417z" fill="#fff" transform="translate(-3090.852 -5678.841)"/><path d="m3269.342 5689.977a2.417 2.417 0 1 1 -2.417-2.417 2.416 2.416 0 0 1 2.417 2.417z" fill="#fff" transform="translate(-3109.272 -5678.841)"/><path d="m3298.992 5689.977a2.417 2.417 0 1 1 -2.416-2.417 2.416 2.416 0 0 1 2.416 2.417z" fill="#fff" transform="translate(-3127.692 -5678.841)"/><path d="m172.004 174.759h65.969v23.476h-65.969z" fill="#3b86ff"/><path d="m174.612 177.307h18.817v18.38h-18.817z" fill="#fff"/><path d="m196 179.817h39.883v3.086h-39.883z" fill="#fff"/><path d="m196.075 185.017h39.883v3.086h-39.883z" fill="#fff"/><path d="m196.15 190.218h21.471v3.086h-21.471z" fill="#fff"/><path d="m150.325 130.746h53.633v24.398h-53.633z" fill="#ffc200"/><path d="m155.547 134.618h28.801v3.872h-28.801z" fill="#fff"/><path d="m155.659 141.124h45.162v1.282h-45.162z" fill="#fff"/><path d="m155.659 144.349h45.162v1.282h-45.162z" fill="#fff"/><path d="m155.659 147.573h45.162v1.282h-45.162z" fill="#fff"/><path d="m155.659 150.799h28.282v1.282h-28.282z" fill="#fff"/><path d="m133.989 186.346h4.712v6.964h-4.712z" fill="#3b86ff"/><path d="m3117.456 6082.389s35.6-2.514 38.955 0c0 0 4.817 1.361 3.665 9.32l-2.827 21.676h-5.969s-2.932-17.068.314-21.99l-25.132 5.934z" fill="#2e35a8" transform="translate(-3017.919 -5923.426)"/><path d="m3202.242 6169.095-1.571 3.979v3.141h19.268v-.869a1.682 1.682 0 0 0 -1.293-1.638l-3.1-.739-6.493-3.875h-1.153l-.523 1.151h-3.351l-.315-1.151z" fill="#b2b8fa" transform="translate(-3069.614 -5977.984)"/><path d="m3200.671 6183.471v1.675h19.268v-.869a1.676 1.676 0 0 0 -.206-.806z" fill="#191c3c" transform="translate(-3069.614 -5986.915)"/><path d="m3083.568 6146.726-4.817-2.513v4.607l4.817 2.409z" fill="#3b86ff" transform="translate(-2993.874 -5962.527)"/><path d="m3132.507 6082.161-11 .78a14.211 14.211 0 0 0 -.9 1.983l7.81 12.957 7.683-1.813z" fill="#231f20" opacity=".15" transform="translate(-3019.88 -5923.978)"/><path d="m3098.22 6084.221s-4.225 7.173-.4 14.38a14.209 14.209 0 0 1 .691 1.446l5.57 14.124-17.593-6.493v6.073l14.43 8.158a14.983 14.983 0 0 0 6.7 1.581h3.538a5.617 5.617 0 0 0 4.651-2.467 2.457 2.457 0 0 0 .4-1.712l-5.422-35.09z" fill="#2e35a8" transform="translate(-2998.683 -5925.258)"/><path d="m3067.847 6141.293-6.388-1.779h-2.094l-1.353 13.042a2.984 2.984 0 0 0 .512 2l1.47 3.1h4.607l.153-.4a5.773 5.773 0 0 0 -.021-2.893l-.55-1.346 3.665-4.711.419-1.2-1.151-1.623.117-3.472z" fill="#b2b8fa" transform="translate(-2980.981 -5959.608)"/><path d="m3061.669 6156.4-1.469-3.1a2.978 2.978 0 0 1 -.512-2l1.223-11.786h-1.545l-1.353 13.042a2.984 2.984 0 0 0 .512 2l1.47 3.1h4.607l.153-.4a2.634 2.634 0 0 0 .165-.862z" fill="#191c3c" transform="translate(-2980.981 -5959.608)"/><path d="m3108.391 6028.8s8.268-16.4 8.748-31.349a16.7 16.7 0 0 1 1.464-6.443l2.055-4.483a1.526 1.526 0 0 1 1.751-.846l8.72 2.148s4.119 7.813 4.7 13.724a3.034 3.034 0 0 1 -.17 1.294c-1.193 3.425-4.527 20.877-4.527 20.877-5.132.169-13.632 9.203-22.741 5.078z" fill="#b2b8fa" transform="translate(-3012.288 -5864.016)"/><path d="m3160.447 5956.065a5.8 5.8 0 0 1 -1.706.99 9.029 9.029 0 0 1 -3.682.381h-4.579v-2.923a8.256 8.256 0 0 0 -1.038-4.727 6.438 6.438 0 0 1 -.852-1.833 5.222 5.222 0 0 1 .962-3.429c.4-.725.748-1.856 1.511-2.095a5.068 5.068 0 0 1 1.293 0h4.634a5.321 5.321 0 0 1 4.729 3.338c.416 1.1.111 2.7.054 3.847q-.108 2.208-.385 4.4a4.507 4.507 0 0 1 -.2.976 2.651 2.651 0 0 1 -.741 1.075z" fill="#3b86ff" transform="translate(-3037.227 -5837.144)"/><path d="m3145.4 5980.614s2.825-.762 3.132-3.135h7.4v1.642s-1.964 2.11-1.811 3.64z" fill="#3b86ff" transform="translate(-3035.278 -5858.948)"/><path d="m3161.771 5933.529a1.789 1.789 0 0 1 -1.073 1.421 5.561 5.561 0 0 1 -2.993.794c-1.629-.072-3.087-1-4.665-1.41a7.546 7.546 0 0 0 -3.612-.043 2.888 2.888 0 0 0 -1.205.53 2.735 2.735 0 0 1 -.5.4 1.577 1.577 0 0 1 -.553.116 4.938 4.938 0 0 0 -3.012.964c-1.027.946-1.086 2.55-.817 3.92a11.39 11.39 0 0 0 .948 2.818c.382.779.851 1.511 1.26 2.275a16.672 16.672 0 0 1 1.449 3.717l.237-.062 1.232-3.907a4.685 4.685 0 0 1 1.026-2.025 1.613 1.613 0 0 1 2.076-.254c.938.791.328 2.664 1.385 3.287-.359-1.373.939-2.567 1.44-3.9a4.1 4.1 0 0 1 .66-1.485 2.955 2.955 0 0 1 2.116-.558 5.153 5.153 0 0 0 2.878-.8 4.338 4.338 0 0 0 1.579-2.654 12.894 12.894 0 0 0 .144-3.144z" fill="#191c3c" transform="translate(-3033.914 -5831.644)"/><path d="m3159.3 6020.948 8.084 6.57a14.574 14.574 0 0 0 10.091 3.238l16.006-.985 1.073.466a3.889 3.889 0 0 0 1.549.321 3.891 3.891 0 0 0 1.887-.488l1.532-.848a3.515 3.515 0 0 0 .775-.583l1.456-1.454a2.727 2.727 0 0 0 .8-1.927v-1.47l-1.99.355-3.506 1.179a2.567 2.567 0 0 1 -2.226.322l-.14-.044 1.694-2.6h-1.127a1.979 1.979 0 0 0 -1.226.426l-1.3 1.023a2.155 2.155 0 0 0 -.676.917l-.392 1.019-11.839-1.027a16.013 16.013 0 0 1 -8.659-3.482l-7.678-6.186z" fill="#3b86ff" transform="translate(-3043.914 -5882.687)"/><path d="m3153.149 6004.471-5.878 7.367-4.575-3.651a4.712 4.712 0 0 1 -.744-6.622 4.714 4.714 0 0 1 6.623-.745z" fill="#b2b8fa" transform="translate(-3032.496 -5872.808)"/><path d="m3717.34 5862.548v22.158l.011.011 15.634 15.676a22.086 22.086 0 0 0 6.509-15.623c0-.022 0-.043 0-.065a22.158 22.158 0 0 0 -22.154-22.157z" fill="#53dbaa" transform="translate(-3390.582 -5787.546)"/><path d="m3662.517 5869.018a22.086 22.086 0 0 0 -6.51 15.645l22.155.054v-22.169a22.084 22.084 0 0 0 -15.645 6.47z" fill="#b2b8fa" transform="translate(-3352.48 -5787.546)"/><path d="m3678.17 5923.829h-.011l-22.155-.054v.042a22.155 22.155 0 0 0 37.8 15.688z" fill="#2e35a8" transform="translate(-3352.476 -5825.582)"/><path d="m328.654 186.346h3.336v3.654h-3.336z" fill="#3b86ff"/><path d="m0 0h3.336v3.654h-3.336z" fill="#3b86ff" transform="matrix(.89728919 -.44144321 .44144321 .89728919 361.276 185.443)"/><path d="m3747.171 5992.717-5.561 12.074-11.61 17.476-5.228 33.681h-6.831l1.7-24.274a65.591 65.591 0 0 1 2.746-14.728l4.771-15.491 1.748-8.737z" fill="#ffc200" transform="translate(-3390.954 -5868.411)"/><path d="m3757.521 6008.261-15.855-2.436-.755 3.772-.826 2.683a53.762 53.762 0 0 1 3.727 18.046l11.556-17.392z" fill="#191c3c" opacity=".15" transform="translate(-3404.711 -5876.553)"/><path d="m3801.385 5882.23h-6.985v-8.1c.7 0 7.853-.158 7.873.037.03.234.126.457.145.691.055.661-.489 1.2-.812 1.774-.592 1.061-.218 2.262-.218 3.406z" fill="#3b86ff" transform="translate(-3438.451 -5794.702)"/><path d="m3763.562 5884.922 9.374 2.383v1.748s3.092 4.952 3.495 7.467c.85 5.3-8.545 14.511-11.279 29.232h-18.272s7.309-19.224 7.785-21.289c0 0 2.224-10.327 6.2-13.5a8.968 8.968 0 0 1 2.355-2.594 3.384 3.384 0 0 0 .342-3.447z" fill="#2e35a8" transform="translate(-3408.932 -5801.446)"/><path d="m3782.812 5920.262-5.406-7.065 6.563-5.022a3.386 3.386 0 0 1 4.748.631l1.292 1.688a3.386 3.386 0 0 1 -.631 4.747z" fill="#2e35a8" transform="translate(-3427.896 -5815.457)"/><path d="m3701.273 5946.838 17.211-8.1 10.511-8.468-4.094-5.352-8.587 9.583-15.6 9.748.609.738-3.142.137c-1.342.06-4.96-.455-6.391 1.027l6.3.688z" fill="#3b86ff" transform="translate(-3374.711 -5826.291)"/><path d="m3762.538 5992.717s1.112 5.4 0 8.9a19.215 19.215 0 0 1 -2.7 5.533l1.025 10.048a65.948 65.948 0 0 0 5.616 20.689l7.032 15.4-6.524 1.944-13.116-23.56a24.348 24.348 0 0 1 -1.717-3.825l-9.478-27.166 1.592-7.964z" fill="#ffc200" transform="translate(-3406.321 -5868.411)"/><path d="m3795.712 5850.77h-10.1a2.872 2.872 0 0 1 -2.872-2.872l-1.089-2.527a1.956 1.956 0 0 1 -.589-2.548 48.755 48.755 0 0 0 2.832-5.7c.811-2.595-1.153-3.511-1.153-3.511h12.972z" fill="#3b86ff" transform="translate(-3430.015 -5769.569)"/><path d="m337.1 123.353h20.124v2.836h-20.124z" fill="#191c3c"/><path d="m3710.375 5974.439-2.087-2.016a.738.738 0 0 1 -.325-.993.739.739 0 0 1 .993-.326l2.723 1.38a.741.741 0 0 1 .326.994c-.186.365-1.266 1.146-1.63.961z" fill="#3b86ff" transform="translate(-3384.706 -5854.935)"/><path d="m3701.243 6162.993h-6.079l-2.535 2.866h-3.757a8.723 8.723 0 0 0 -7.776 4.771h20.147z" fill="#2e35a8" transform="translate(-3368.066 -5974.19)"/><ellipse cx="330.083" cy="192.621" fill="#fff" rx="1.906" ry="1.906"/><path d="m312.663 196.439h21.366v1.795h-21.366z" fill="#53dbaa"/><path d="m3797.487 6155.318-5.605 2.352-1.229 3.622-3.209.068a9.277 9.277 0 0 0 -4.131 1.01c-1.233.648-1.656 1.378-1.82 3.629h10.276l8.673-3.639z" fill="#2e35a8" transform="translate(-3430.434 -5969.423)"/><path d="m3818.719 6163.908a1.907 1.907 0 1 1 -2.5-1.02 1.908 1.908 0 0 1 2.5 1.02z" fill="#fff" transform="translate(-3451.283 -5974.033)"/><path d="m350.593 196.314h11.715v1.795h-11.715z" fill="#53dbaa"/><path d="m0 0h9.476v1.795h-9.476z" fill="#53dbaa" transform="matrix(.9192247 -.39373335 .39373335 .9192247 361.598 196.459)"/><path d="m3783.6 5839.067c2.09.046 3.192 1.332 4.642 1.947.687.292 2.071.649 2.486.029.555-.834.122-2.891.042-3.871a17.351 17.351 0 0 0 -.643-4.095 4.735 4.735 0 0 0 -2.1-2.208 2.45 2.45 0 0 0 -1.412-.226c-.72.109-1.06.4-1.824.125a3.93 3.93 0 0 1 -1.852-1.636 2.246 2.246 0 0 1 -.4-1.384 1.952 1.952 0 0 1 1.085-1.423c1.364-.725 2.474-.443 3.842.012a1.96 1.96 0 0 0 1.9-.187 4.822 4.822 0 0 0 .473-.568 2.529 2.529 0 0 1 3.506-.235c.98.9 1.256 1.631 2.55 2.063a4.684 4.684 0 0 1 2.433 1.449c.882 1.288-.18 1.969-.4 3.174-.1.557.327 1.05.639 1.522a8.742 8.742 0 0 1 .637 4.59 2.134 2.134 0 0 1 -.725 1.342c-.968.722-.849 1.811-.856 2.969-.007.963.829 1.4.868 2.254.072 1.625-2.158 1.683-3.128.949a4.4 4.4 0 0 1 -1.287-2.976 4.45 4.45 0 0 1 -.076-1.186 9.165 9.165 0 0 1 .726-1.972 1.885 1.885 0 0 0 -.136-1.825 1.377 1.377 0 0 0 -1.782-.269c-.672.454-.616 1.183-.581 1.844.054 1.022.062 2.11.139 3.157.114 1.573.7 3.679-.99 4.688-1.48.846-2.831.356-4.431.324a3.189 3.189 0 0 1 -3.7-2.956c-.2-.641-.394-1.285-.591-1.926a5.792 5.792 0 0 1 -.355-1.864c.018-.636.663-1.645 1.301-1.631z" fill="#2e35a8" transform="translate(-3430.933 -5764.065)"/><path d="m265.549 186.198h4.136v5.684h-4.136z" fill="#3b86ff"/><path d="m3547.111 6172.315a3.4 3.4 0 0 0 -3.068 3.353 3.052 3.052 0 0 1 2.674-1.9h4.6l.395-1.451z" fill="#e66333" transform="translate(-3282.926 -5979.981)"/><path d="m1.081 0h4.969a1.081 1.081 0 0 1 1.081 1.081v5.479a0 0 0 0 1 0 0h-7.131a0 0 0 0 1 0 0v-5.479a1.081 1.081 0 0 1 1.081-1.081z" fill="#ffc200" transform="translate(263.585 190.911)"/><path d="m3553.273 6185.386h-9.5a.765.765 0 0 1 -.765-.765.765.765 0 0 1 .765-.765h9.5a.764.764 0 0 1 .765.765.765.765 0 0 1 -.765.765z" fill="#191c3c" transform="translate(-3282.283 -5987.15)"/><path d="m260.425 186.198h4.136v5.684h-4.136z" fill="#3b86ff"/><path d="m3562.674 5964.285s5.036-.328.675 18.76a119.565 119.565 0 0 0 -3.2 20.5c-.016.369-.04.729-.075 1.1l-3.067 32.236h-6.591l1.2-33.043v-43.352z" fill="#2e35a8" transform="translate(-3286.888 -5848.384)"/><path d="m3524.762 5964.285s-5.036-.328-.676 18.76a119.454 119.454 0 0 1 3.2 20.5c.016.369.041.729.076 1.1l3.066 32.236h4.563s1.1-25.456 1.014-33.719c-.115-10.837-1.84-42.676-1.84-42.676z" fill="#231f20" opacity=".15" transform="translate(-3269.425 -5848.384)"/><path d="m3522.084 5964.285s-5.036-.328-.676 18.76c2.67 11.692 3.122 18.7 3.2 20.5.016.369.041.729.075 1.1l3.066 32.236h5.07l.317-33.043v-43.352z" fill="#2e35a8" transform="translate(-3267.761 -5848.384)"/><path d="m3598.714 5991.773v3.163a7.8 7.8 0 0 1 -2.45 5.674l-1.987 1.874a4.974 4.974 0 0 1 1.365-4.47l.6-.6.065-1.525-1.187 1.464a.38.38 0 0 1 -.695-.212l-.021-5.367z" fill="#3b86ff" transform="translate(-3314.076 -5867.823)"/><path d="m3517.859 5826.51-5.557-1.431a8.193 8.193 0 0 1 -5.915-5.993l-2.895-11.879h-3.718l1.831 16.087a8.887 8.887 0 0 0 2.714 5.445l11.511 10.918z" fill="#53dbaa" transform="translate(-3255.426 -5753.165)"/><path d="m3581.006 5866.776 2.994 2.312a10.878 10.878 0 0 1 4.231 8.611l-.507 37.121h-4.817l-1.4-19.639-.5-12.56-4.817-6.971z" fill="#53dbaa" transform="translate(-3302.897 -5790.172)"/><path d="m3546.7 5892.626s-5.324 10.648-.634 24.465h-25.1a86.814 86.814 0 0 0 4.035-34.211l16.88 2.774z" fill="#53dbaa" transform="translate(-3268.593 -5800.176)"/><path d="m3550.05 5819.415-.4.182a2.965 2.965 0 0 0 -2.569 1.819 25.43 25.43 0 0 0 -1.032 3.163c-.256.736-.61 1.438-.831 2.186a6.635 6.635 0 0 0 2.417 7.068.88.88 0 0 0 .861.211.923.923 0 0 0 .331-.364l1.872-2.994a11.359 11.359 0 0 0 1.5-3.04c.749-2.815-.725-5.691-2.149-8.231z" fill="#3b86ff" transform="translate(-3283.506 -5760.75)"/><path d="m3559.263 5836.851a5.514 5.514 0 0 0 -.167-1.94 6.308 6.308 0 0 0 -.923-1.46c-1.554-2.167-2.007-4.91-2.418-7.544-.36-2.311-1.2-6.384-1.2-6.384-.681-3.266-3.462-6.2-7.186-5.776a5.079 5.079 0 0 0 -2.107.725c-3.158 1.975-2.333 5.646-3.546 8.53-.938 2.231-3.121 4.177-2.735 6.565a15.264 15.264 0 0 1 .574 2.436c-.011 1.765-1.911 2.878-2.64 4.484-1.083 2.39.629 5.072.777 7.69a13.152 13.152 0 0 0 .158 2.848c.259.918 1.148 1.774 2.073 1.541.907-.23 1.354-1.352 2.252-1.621 1.165-.347 2.156.9 2.647 2.011s1.119 2.459 2.33 2.558c1.063.087 1.9-.882 2.4-1.823a5.445 5.445 0 0 1 1.875-2.522c1.512-.8 3.851.174 4.806-1.244a4.593 4.593 0 0 0 .465-1.341 4.747 4.747 0 0 1 1.884-2.571 2.37 2.37 0 0 0 .921-2.419 14.246 14.246 0 0 1 -.24-2.743z" fill="#191c3c" transform="translate(-3278.276 -5757.203)"/><path d="m3498.279 5786.1-.618-2.9a1.13 1.13 0 0 1 .388-1.108l1.5-1.23h1.139a21.26 21.26 0 0 1 -.359-4.986h.359l1.988 6.652v3.827l-.655 1.389h-3.148z" fill="#3b86ff" transform="translate(-3254.098 -5733.702)"/><path d="m3.938 0h3.77a0 0 0 0 1 0 0v5.367a0 0 0 0 1 0 0h-7.708a0 0 0 0 1 0 0v-1.429a3.938 3.938 0 0 1 3.938-3.938z" fill="#ffc200" transform="translate(255.273 192.103)"/><path d="m3531.785 6172.315a3.4 3.4 0 0 0 -3.068 3.353 3.051 3.051 0 0 1 2.673-1.9h4.6l.394-1.451z" fill="#ffc200" transform="translate(-3273.405 -5979.981)"/><path d="m3539.225 6174.352h-.276v-4.752a1.045 1.045 0 0 0 -1.045-1.045h-5.04a1.046 1.046 0 0 0 -1.046 1.045v4.749h-2.1a.765.765 0 0 0 0 1.529h9.5a.765.765 0 0 0 0-1.529z" fill="#191c3c" opacity=".3" transform="translate(-3273.555 -5977.647)"/><path d="m1.081 0h4.969a1.081 1.081 0 0 1 1.081 1.081v5.479a0 0 0 0 1 0 0h-7.131a0 0 0 0 1 0 0v-5.479a1.081 1.081 0 0 1 1.081-1.081z" fill="#ffc200" transform="translate(257.78 190.911)"/><path d="m3537.948 6185.386h-9.5a.765.765 0 0 1 -.765-.765.764.764 0 0 1 .765-.765h9.5a.764.764 0 0 1 .765.765.765.765 0 0 1 -.765.765z" fill="#191c3c" transform="translate(-3272.762 -5987.15)"/><path d="m2986.823 6167.827h10.972l-3.977-2.754-.883-2.548h-6.112z" fill="#3b86ff" transform="translate(-2936.765 -5973.899)"/><path d="m2885.539 6153.974 9.54 4.755-1.9-4.447.607-2.627-5.175-3.252z" fill="#3b86ff" transform="translate(-2873.844 -5965.126)"/><path d="m2882.086 6157.568-2.172 4.167a1.5 1.5 0 0 0 .85 2.12l13.685 4.647h6.192a3.008 3.008 0 0 0 .884-1.436l-7.075-3.314-3.2-4.418-2.995 2.1-4.255-1.434z" fill="#2e35a8" transform="translate(-2870.245 -5970.82)"/><path d="m2878.4 6167.19-.7 1.225a.881.881 0 0 0 .415 1.246l13.454 5.372h6.627a1.988 1.988 0 0 0 1.988-1.988h-9.284z" fill="#191c3c" transform="translate(-2868.902 -5976.797)"/><path d="m2984.393 6164.458v4.832a1.629 1.629 0 0 0 1.63 1.629h15.269l6.406-1.1a3.341 3.341 0 0 0 -2.093-1.938l-6.632-2.093-4.97-3.258-1.887 3.977h-5.51z" fill="#2e35a8" transform="translate(-2935.256 -5973.9)"/><path d="m2985.223 6184.091h19.431a2.319 2.319 0 0 0 2.319-2.32h-23.746v.324a2 2 0 0 0 1.996 1.996z" fill="#191c3c" transform="translate(-2934.531 -5985.856)"/><path d="m2896.469 6004.768-.638 4.762a35.635 35.635 0 0 0 .326 11.467l2.55 13.251a14.871 14.871 0 0 1 -.953 8.713l-8.5 18.2 6.879 3.172 11.783-21.269a6.174 6.174 0 0 0 .742-2.334l3.776-34.877z" fill="#191c3c" transform="translate(-2876.153 -5875.896)"/><path d="m2948.458 6011.636a175.258 175.258 0 0 1 5.684 23.945c2.078 13.01 2.591 27.848 4.232 33.015h-7.245s-4.911-15.52-5.333-27.232a10.342 10.342 0 0 0 -1.969-5.683c-4.253-5.891-13.888-19.812-13.51-24.53z" fill="#191c3c" transform="translate(-2901.656 -5879.862)"/><path d="m2929.368 5883.819-11.005.049 1.754-28.794h6.542a23.654 23.654 0 0 1 2.424-.209 2.5 2.5 0 0 0 -1.111 1.708 15.622 15.622 0 0 0 -.089 3.084c.04.869 2.634 4.8 2.634 5.6-.001.943-1.149 17.615-1.149 18.562z" fill="#3b86ff" transform="translate(-2894.236 -5782.762)"/><path d="m2919.688 5873.984c-.519 8.523-1.326 21.772-1.326 21.772l11.005-.05c0-.948 1.148-17.617 1.148-18.565a8.061 8.061 0 0 0 -.968-2.161c-3.825 1.787-7.84.125-9.859-.996z" fill="#fff" transform="translate(-2894.236 -5794.65)"/><path d="m0 100.814h75.585v33.016h-75.585z" fill="#fff"/><path d="m2932 5835.266a4.256 4.256 0 0 1 -2.86 1.551c-2.526.189-5.133 0-7.669 0v-13.424h12.335c-.167 0 .191 6.3.158 6.931a8.544 8.544 0 0 1 -1.964 4.942z" fill="#3b86ff" transform="translate(-2896.167 -5763.221)"/><path d="m2929.7 5815.994a2.879 2.879 0 0 0 -2.54-.81 7.2 7.2 0 0 1 -2.759-.033c-.913-.3-1.678-1.115-2.639-1.084-1.3.04-2.124 1.59-3.414 1.773-.965.137-1.98-.534-2.883-.165a2.35 2.35 0 0 0 -1.071 2.413 5.9 5.9 0 0 1 -.124 2.785c-.312.68-.982 1.19-1.122 1.925-.26 1.369 1.417 2.374 1.615 3.753a8.2 8.2 0 0 1 -.478 2.486 1.705 1.705 0 0 0 .787 1.851h-.015a1.662 1.662 0 0 0 2.16-.284 4.843 4.843 0 0 0 1.021-2.142 7.046 7.046 0 0 0 .368-1.986c-.011-1.269-.676-2.659.014-3.724.468-.256 1.052.164 1.252.658s.173 1.053.331 1.562.638 1.006 1.155.872c.637-.166.7-1.04.593-1.689s-.136-1.5.466-1.767c.465-.206 1.081.091 1.484-.219.36-.277.291-.827.417-1.266a2.088 2.088 0 0 1 1.685-1.27c.725-.148 1.484-.115 2.193-.326 1.361-.407 2.367-2.182 1.504-3.313z" fill="#2e35a8" transform="translate(-2890.977 -5757.427)"/><path d="m2898.806 5860.345-1.085.564-.675 1.143a7.341 7.341 0 0 1 -3.3 2.957l-1.154.52a9.126 9.126 0 0 0 -5.118 6.161l-2.088 8.576a46.616 46.616 0 0 0 -.793 18.042l2.163 14.2h5.885l.374-21.143a20.186 20.186 0 0 1 .336-3.321l.139-.744 13.744-.068s-1.361-17.229-4.344-19.486l1.224-.937-2.725-1.158a2.756 2.756 0 0 1 -1.626-2.013 9.372 9.372 0 0 0 -.219-.948z" fill="#2e35a8" transform="translate(-2872.926 -5786.176)"/><path d="m2943.494 5867.547 1.2.578 4.379 2.793a12.077 12.077 0 0 1 3.812 3.875c2.4 3.919 6.687 11.687 6.425 16.671l-15.157.242s-.948-11.6.555-16.6a6.4 6.4 0 0 0 -.016-3.781z" fill="#2e35a8" transform="translate(-2909.848 -5790.651)"/><path d="m2949.461 5927.283.131-1.354a1.569 1.569 0 0 1 1.623-1.382l.3.544 5.594-.095a1.188 1.188 0 0 1 1.173 1.472l-.256 1.044a1.19 1.19 0 0 1 -1.155.905h-.459a1.589 1.589 0 0 1 -1.59 1.6h-2.081a1.589 1.589 0 0 1 -1.59-1.589v-1.282z" fill="#3b86ff" transform="translate(-2913.554 -5826.06)"/><path d="m6.619 105.048h2.419v24.549h-2.419z" fill="#f5f7f9"/><path d="m10.931 105.048h2.419v24.549h-2.419z" fill="#f5f7f9"/><path d="m15.243 105.048h2.419v24.549h-2.419z" fill="#e6e7e8"/><path d="m19.555 105.048h2.419v24.549h-2.419z" fill="#f5f7f9"/><path d="m23.866 105.048h2.419v24.549h-2.419z" fill="#f5f7f9"/><path d="m28.178 105.048h2.419v24.549h-2.419z" fill="#f5f7f9"/><path d="m32.49 105.048h2.419v24.549h-2.419z" fill="#f5f7f9"/><path d="m36.802 105.048h2.419v24.549h-2.419z" fill="#f5f7f9"/><path d="m41.113 105.048h2.419v24.549h-2.419z" fill="#f5f7f9"/><path d="m45.425 105.048h2.419v24.549h-2.419z" fill="#f5f7f9"/><path d="m49.737 105.048h2.419v24.549h-2.419z" fill="#f5f7f9"/><path d="m6.619 123.459h2.419v6.137h-2.419z" fill="#b2b8fa"/><path d="m10.931 117.322h2.419v12.275h-2.419z" fill="#b2b8fa"/><path d="m15.243 117.322h2.419v12.275h-2.419z" fill="#e03c00"/><path d="m19.555 109.525h2.419v20.072h-2.419z" fill="#b2b8fa"/><path d="m23.866 113.634h2.419v15.963h-2.419z" fill="#b2b8fa"/><path d="m28.178 124.034h2.419v5.563h-2.419z" fill="#b2b8fa"/><path d="m32.49 113.634h2.419v15.963h-2.419z" fill="#b2b8fa"/><path d="m36.802 122.22h2.419v7.377h-2.419z" fill="#b2b8fa"/><path d="m41.113 117.322h2.419v12.275h-2.419z" fill="#b2b8fa"/><path d="m45.425 112.666h2.419v16.931h-2.419z" fill="#b2b8fa"/><path d="m49.737 110.368h2.419v19.228h-2.419z" fill="#b2b8fa"/><path d="m2898.806 5860.345-1.085.564-1.858 3.145-3.273 1.475a9.126 9.126 0 0 0 -5.118 6.161l-2.088 8.576a46.616 46.616 0 0 0 -.793 18.042l2.163 14.2h5.885l.374-21.143c.02-1.113 1.1-7.438 1.1-7.438z" fill="#2e35a8" transform="translate(-2872.926 -5786.176)"/><path d="m2893.224 5998.062-.564 7.822a2.239 2.239 0 0 0 1.638 1.717l.217.056 4.478.315a2.109 2.109 0 0 0 1.923-.962l.33-.515a2.8 2.8 0 0 0 .445-1.515v-.964a3.956 3.956 0 0 0 -1.306-2.938l-2.806-2.531v-.484z" fill="#3b86ff" transform="translate(-2878.268 -5871.731)"/><path d="m55.026 106.377h15.722v2.419h-15.722z" fill="#53dbaa"/><path d="m55.026 113.15h15.722v1.209h-15.722z" fill="#f0f1fe"/><path d="m55.026 116.113h15.722v1.209h-15.722z" fill="#f0f1fe"/><path d="m55.026 119.076h15.722v1.209h-15.722z" fill="#f0f1fe"/><path d="m55.026 122.039h7.861v1.209h-7.861z" fill="#f0f1fe"/><path d="m14.688 197.992h142.966v.484h-142.966z" fill="#191c3c"/><path d="m9.2 197.992h3.554v.484h-3.554z" fill="#191c3c"/><path d="m249.94 197.992h152.796v.484h-152.796z" fill="#191c3c"/></svg>