<svg viewBox="0 0 20 20" width="20" height="20" xmlns="http://www.w3.org/2000/svg"><g fill="currentColor" stroke="currentColor" stroke-width=".3" transform="translate(1 1)"><path d="m17.622 16.8792632h-.814v-11.19505267c0-.52321714-.4477153-.94736842-1-.94736842h-1.816c-.5522847 0-1 .42415128-1 .94736842v11.19599997h-2.065v-6.1228421c0-.5232171-.4477153-.9473684-1-.9473684h-1.816c-.55228475 0-1 .4241513-1 .9473684v6.1228421h-2.065v-3.1708421c0-.5232171-.44771525-.9473684-1-.9473684h-1.817c-.55228475 0-1 .4241513-1 .9473684v3.1708421h-.858c-.20489764 0-.371.1573602-.371.3514737 0 .1941136.16610236.3514737.371.3514737h17.251c.2048976 0 .371-.1573601.371-.3514737 0-.1941135-.1661024-.3514737-.371-.3514737zm-13.318 0h-2.33v-3.1708421c.00054817-.1332047.11439508-.2410597.255-.241579h1.819c.14060492.0005193.25445183.1083743.255.241579zm5.881 0h-2.33v-6.1228421c.00054817-.1332047.11439508-.2410597.255-.241579h1.819c.1406049.0005193.2544518.1083743.255.241579zm5.881 0h-2.33v-11.19505267c.0005482-.13320467.1143951-.24105963.255-.24157895h1.819c.1406049.00051932.2544518.10837428.255.24157895z"/><path d="m15.6227311.35799883c.005828-.09619815-.0332453-.19012941-.1074656-.258344-.0742202-.06821459-.1765833-.10427524-.2815344-.09917947h-2.263c-.2048977 0-.371.15227049-.371.34010566 0 .18783518.1661023.34010567.371.34010567h1.383l-3.669 3.36347086-1.38300004-1.26783325c-.06958924-.06387386-.16402459-.09976452-.2625-.09976452s-.19291076.03589066-.2625.09976452l-6.668 6.11640162c-.14497475.13290225-.14497475.34837936 0 .48128161.14497475.13290224.38002525.13290224.525 0l6.409-5.87530247 1.38300004 1.26874998c.0695892.06387386.1640245.09976452.2625.09976452.0984754 0 .1929107-.03589066.2625-.09976452l3.931-3.60365329v1.14865875c0 .18783518.1661023.34010567.371.34010567.2048976 0 .371-.15227049.371-.34010567v-1.93796058c0-.00733382-.001-.00733382-.001-.01650109z"/></g></svg>