<svg height="17" viewBox="0 0 17 17" width="17" xmlns="http://www.w3.org/2000/svg"><g fill="currentColor"><path d="m.585 7.5h6.325c.15564305.00162141.30538402-.05949153.41544624-.16955376.11006223-.11006222.17117517-.25980319.16955376-.41544624v-6.33c.00162141-.15564305-.05949153-.30538402-.16955376-.41544624-.11006222-.11006223-.25980319-.17117517-.41544624-.16955376h-6.325c-.15564305-.00162141-.30538402.05949153-.41544624.16955376-.11006223.11006222-.17117517.25980319-.16955376.41544624v6.325c.00526304.32170845.26334799.58199926.585.59zm.585-6.325h5.154v5.154h-5.153v-5.158z"/><path d="m16.594.585c.0016505-.15652321-.0601441-.30704563-.1712989-.41725841-.1111547-.11021277-.2621976-.17072413-.4187011-.16774159h-6.325c-.15564305-.00162141-.30538402.05949153-.41544624.16955376-.11006223.11006222-.17117517.25980319-.16955376.41544624v6.325c-.00162141.15564305.05949153.30538402.16955376.41544624.11006222.11006223.25980319.17117517.41544624.16955376h6.325c.155643.00162141.305384-.05949153.4154462-.16955376.1100623-.11006222.1711752-.25980319.1695538-.41544624zm-1.171 5.739h-5.158v-5.153h5.154z"/><path d="m.585 16.594h6.325c.15564305.0016214.30538402-.0594915.41544624-.1695538.11006223-.1100622.17117517-.2598032.16955376-.4154462v-6.33c.00162141-.15564305-.05949153-.30538402-.16955376-.41544624-.11006222-.11006223-.25980319-.17117517-.41544624-.16955376h-6.325c-.15564305-.00162141-.30538402.05949153-.41544624.16955376-.11006223.11006222-.17117517.25980319-.16955376.41544624v6.325c.00526304.3217085.26334799.5819993.585.59zm.585-6.325h5.154v5.154h-5.153v-5.158z"/><path d="m16.004 9.094h-6.325c-.15564305-.00162141-.30538402.05949153-.41544624.16955376-.11006223.11006222-.17117517.25980319-.16955376.41544624v6.325c-.00162141.155643.05949153.305384.16955376.4154462.11006222.1100623.25980319.1711752.41544624.1695538h6.325c.155643.0016214.305384-.0594915.4154462-.1695538.1100623-.1100622.1711752-.2598032.1695538-.4154462v-6.325c-.0078988-.31975763-.2652424-.57710117-.585-.585zm-.585 6.325h-5.154v-5.154h5.154z"/></g></svg>