<svg height="20" viewBox="0 0 21 20" width="21" xmlns="http://www.w3.org/2000/svg"><g fill="currentColor"><path d="m10 18.33h-7.5c-.4600532 0-.833-.3729468-.833-.833v-15c.0011027-.45927195.37372672-.83100132.833-.831h7.5c.4600532 0 .833-.3729468.833-.833s-.3729468-.833-.833-.833h-7.5c-1.38071187 0-2.5 1.11928813-2.5 2.5v15c0 .6630412.2633921 1.298926.73223305 1.767767.46884094.4688409 1.10472573.732233 1.76776695.732233h7.5c.4600532 0 .833-.3729468.833-.833s-.3729468-.833-.833-.833z"/><path d="m19.816 9.401-5.066-5c-.2115406-.21063642-.5196236-.29196931-.8075676-.21319512-.287944.07877418-.5117199.30561023-.586576.59459754-.0748562.28898731.0106535.59593734.2241436.80459758l3.62 3.573h-9.7c-.46005314.00000008-.83299986.37294686-.83299986.833 0 .4600531.37294672.8329999.83299986.833h9.7l-3.62 3.573c-.2134901.2086602-.2989998.5156103-.2241436.8045976.0748561.2889873.298632.5158233.586576.5945975s.596027-.0025587.8075676-.2131951l5.066-5c.1586671-.15653.2479872-.3701169.2479872-.593s-.0893201-.43647003-.2479872-.593z"/></g></svg>