<svg height="21" viewBox="0 0 22 21" width="22" xmlns="http://www.w3.org/2000/svg"><g fill="currentColor" stroke="currentColor" stroke-width=".2" transform="translate(1)"><path d="m18.541 7.489-.873-.1c-.0952712-.26895409-.2047588-.53265878-.328-.79l.544-.691c.5350169-.60692546.5350169-1.51707454 0-2.124l-1.525-1.526c-.6069255-.53501691-1.5170745-.53501691-2.124 0l-.691.545c-.2573243-.12327916-.521031-.23276752-.79-.328l-.1-.873c-.0516576-.8060612-.6939388-1.44834239-1.5-1.5h-2.161c-.8060612.05165761-1.44834239.6939388-1.5 1.5l-.1.873c-.27024205.09379812-.53528564.20195193-.794.324l-.691-.545c-.60692546-.53501691-1.51707454-.53501691-2.124 0l-1.526 1.526c-.53501691.60692546-.53501691 1.51707454 0 2.124l.541.695c-.12327052.25732815-.23275869.52103441-.328.79l-.873.1c-.80709597.05235923-1.44932869.69673415-1.499 1.504v2.153c.05165761.8060612.6939388 1.4483424 1.5 1.5l.873.1c.09523425.2689683.20472257.5326749.328.79l-.545.691c-.53501691.6069255-.53501691 1.5170745 0 2.124l1.522 1.522c.60692546.5350169 1.51707454.5350169 2.124 0l.691-.544c.25732969.1232671.52103576.2327552.79.328l.1.873c.05165761.8060612.6939388 1.4483424 1.5 1.5h2.153c.8060612-.0516576 1.4483424-.6939388 1.5-1.5l.1-.873c.2693161-.0951781.5333586-.2046673.791-.328l.691.544c.6069255.5350169 1.5170745.5350169 2.124 0l1.522-1.522c.5350169-.6069255.5350169-1.5170745 0-2.124l-.545-.691c.1232774-.2573251.2327658-.5210317.328-.79l.873-.1c.8060612-.0516576 1.4483424-.6939388 1.5-1.5v-2.153c-.0484602-.79985562-.679111-1.44160038-1.478-1.504zm.721 3.657c-.0515732.4115057-.3973562.7227956-.812.731l-1.118.132c-.1517717.0180337-.2789193.1232727-.325.269-.1242918.3909424-.2815222.7706369-.47 1.135-.0703381.1357004-.054689.3000164.04.42l.7.884c.2875788.2988038.3122773.7633899.058 1.091l-1.522 1.522c-.3277468.2538406-.792014.2291591-1.091-.058l-.884-.7c-.1199836-.094689-.2842996-.1103381-.42-.04-.3643652.1884735-.7440593.3457036-1.135.47-.1457273.0460807-.2509663.1732283-.269.325l-.132 1.118c-.0086299.4144755-.3197062.7600212-.731.812h-2.158c-.41150573-.0515732-.72279563-.3973562-.731-.812l-.132-1.118c-.01803371-.1517717-.12327274-.2789193-.269-.325-.39093905-.1243009-.77063281-.2815309-1.135-.47-.13570042-.0703381-.30001644-.054689-.42.04l-.884.7c-.29880385.2875788-.76338987.3122773-1.091.058l-1.522-1.522c-.25427727-.3276101-.22957884-.7921962.058-1.091l.7-.884c.09468897-.1199836.11033811-.2842996.04-.42-.18846039-.3643712-.34569009-.7440642-.47-1.135-.04608075-.1457273-.17322828-.2509663-.325-.269l-1.118-.132c-.41447546-.0086299-.76002123-.3197062-.812-.731v-2.153c.0515732-.41150573.39735624-.72279563.812-.731l1.118-.132c.15177172-.01803371.27891925-.12327274.325-.269.12433572-.39060391.28156551-.7699626.47-1.134.07033811-.13570042.05468897-.30001644-.04-.42l-.7-.884c-.28814856-.29895131-.31285997-.76420758-.058-1.092l1.522-1.522c.32761013-.25427727.79219615-.22957884 1.091.058l.884.7c.11998356.09468897.28429958.11033811.42.04.3640374-.18843449.74339609-.34566428 1.134-.47.14572726-.04608075.25096629-.17322828.269-.325l.132-1.118c.00673383-.41634049.31883282-.76425412.732-.816h2.153c.4112938.05197877.7223701.39752454.731.812l.132 1.118c.0180337.15177172.1232727.27891925.269.325.3906105.12431766.7699707.28154807 1.134.47.1357004.07033811.3000164.05468897.42-.04l.884-.7c.298986-.28715909.7632532-.31184057 1.091-.058l1.522 1.522c.2538406.32774675.2291591.792014-.058 1.091l-.7.884c-.094689.11998356-.1103381.28429958-.04.42.1884388.36403538.3456688.74339444.47 1.134.0460807.14572726.1732283.25096629.325.269l1.118.132c.4144755.0086299.7600212.3197062.812.731z"/><path d="m10.07 6.161c-2.15888109 0-3.909 1.75011891-3.909 3.909 0 2.1588811 1.75011891 3.909 3.909 3.909 2.1588811 0 3.909-1.7501189 3.909-3.909-.0022048-2.15796716-1.7510328-3.90679518-3.909-3.909zm0 7.038c-1.72865127 0-3.13-1.4013487-3.13-3.13 0-1.72865127 1.40134873-3.13 3.13-3.13 1.7286513 0 3.13 1.40134873 3.13 3.13-.0016538 1.7279658-1.4020342 3.1283462-3.13 3.13z"/></g></svg>