<svg height="30" viewBox="0 0 33 30" width="33" xmlns="http://www.w3.org/2000/svg"><g fill="currentColor" transform="translate(-1)"><path d="m28.751 4.488c-2.7834434-2.78464324-6.5664366-4.33814374-10.5035903-4.31333922-3.9371538.02480452-7.700273 1.62584639-10.4484097 4.44533922-.30651804.31369774-.30069774.81648196.013 1.123s.81648196.30069774 1.123-.013c4.38634-4.49717911 11.3430037-5.25889943 16.5985829-1.81746285s7.3385996 10.12248535 4.9700818 15.94096645c-2.3685178 5.818481-8.5254285 9.145317-14.6903742 7.9378226-6.16494577-1.2074944-10.6118448-6.6112409-10.6102905-12.8933262v-.165l1.308 1.308c.14941679.1476715.35092354.2306448.561.231.20992765-.0011006.41116399-.0839626.561-.231.14918447-.1487781.23302969-.3508085.23302969-.5615s-.08384522-.4127219-.23302969-.5615l-2.654-2.662c-.14877805-.1491845-.35080848-.2330297-.5615-.2330297s-.41272195.0838452-.5615.2330297l-2.662 2.662c-.31010787.3101079-.31010786.8128921.00000002 1.123s.81289209.3101079 1.12299998 0l1.308-1.308v.165c-.00159809 5.9562351 3.58593298 11.3265842 9.0889063 13.6056243 5.5029733 2.2790401 11.8370079 1.0176781 16.0470937-3.1956243 5.745123-5.7521392 5.7419896-15.0717253-.007-20.82z"/><path d="m22.555 9.541-9.736 9.729c-.2270197.2268056-.294969.568076-.1721358.8645396.1228332.2964637.4122329.4896744.7331358.4894604.2099277-.0011006.411164-.0839626.561-.231l9.736-9.736c.209962-.1984178.2952357-.4954158.2225162-.77499677-.0727195-.279581-.2918957-.49739102-.5719259-.56836096s-.5764892.01615918-.7735903.22735773z"/><path d="m20.005 16.093c-.9569081.9576417-1.1041877 2.4578396-.3517839 3.5832903.7524037 1.1254507 2.1949833 1.5627714 3.4456661 1.0445601 1.2506829-.5182112 1.9612154-1.847658 1.6971388-3.1754434-.2640765-1.3277855-1.4292298-2.2841865-2.783021-2.284407-.7531339.0003167-1.4753472.2995605-2.008.832zm2.893 2.893c-.2341328.2351618-.5531715.3660218-.885.363-.5063445.0020608-.9637487-.3020268-1.1577973-.769717-.1940487-.4676902-.0862763-1.0062744.2727973-1.363283.2341328-.2351618.5531715-.3660218.885-.363.5063445-.0020608.9637487.3020268 1.1577973.769717.1940487.4676902.0862763 1.0062744-.2727973 1.363283z"/><path d="m14.695 8.834c-1.355456-.00037254-2.5223928.95685151-2.7870851 2.2862119-.2646922 1.3293604.4465906 2.6605614 1.6988115 3.17941 1.2522209.5188485 2.6965717.0808183 3.449654-1.0461813.7530824-1.1269995.605124-2.6290407-.3533804-3.5874406-.5314622-.53421887-1.2544493-.83378327-2.008-.832zm.885 3.725c-.2341328.2351618-.5531715.3660218-.885.363-.3312468.0000348-.6491838-.1303733-.885-.363-.2351618-.2341328-.3660218-.5531715-.363-.885-.0000348-.3312468.1303733-.6491838.363-.885.2341328-.2351618.5531715-.3660218.885-.363.3312468-.0000348.6491838.1303733.885.363.4841739.4906676.4841739 1.2793324 0 1.77z"/></g></svg>