<svg height="18" viewBox="0 0 22 18" width="22" xmlns="http://www.w3.org/2000/svg"><path d="m20.917.104h-19.834c-.27255089.00026487-.53381886.10885795-.72625998.30186177-.19244113.19300382-.30027092.45458773-.29974002.72713823v12.994c.00055126.5664157.45958434 1.0254487 1.026 1.026h5.818v1.025h-1.716c-.27237737-.0002653-.53370427.1076817-.7264917.3000941-.19278743.1924123-.30124321.4535285-.3015083.7259059v.342c0 .1888814.15311862.342.342.342h13c.1888814 0 .342-.1531186.342-.342v-.342c-.0005513-.5664157-.4595843-1.0254487-1.026-1.026h-1.7v-1.025h5.8c.5664157-.0005513 1.0254487-.4595843 1.026-1.026v-12.994c.0011062-.56680734-.457194-1.02734536-1.024-1.029zm-19.834.687h19.834c.1888814 0 .342.15311862.342.342v11.971h-20.518v-11.971c0-.18888138.15311862-.342.342-.342zm4.1 16.07h11.633c.1888814 0 .342.1531186.342.342h-12.315c0-.1888814.15311862-.342.342-.342zm9.247-.684h-6.845v-1.024h6.847zm6.486-1.708h-19.833c-.18888138 0-.342-.1531186-.342-.342v-.342h10.267c-.1854271.0038175-.3335848.1555345-.333.341-.0010486.1886372.1504273.3427173.3390551.3448839.1886277.0021667.3436029-.1483932.3468876-.3370048.0032847-.1886115-.1463539-.3444764-.3349427-.3488791h10.231v.342c.0000032.1881031-.1519001.3409-.34.342z" fill="currentColor"/></svg>