<svg height="22" viewBox="0 0 14 22" width="14" xmlns="http://www.w3.org/2000/svg"><g fill="currentColor"><path d="m3.068 21.865h7.865c1.2480306-.0016527 2.2593473-1.0129694 2.261-2.261v-17.206c-.0016513-1.24764094-1.0123599-2.25879678-2.26-2.261h-7.865c-1.24842113.00110175-2.26034622 1.01257948-2.262 2.261v17.206c.00165266 1.2480306 1.01296937 2.2593473 2.261 2.261zm0-21.138h7.865c.9224109.00110205 1.669898.74858905 1.671 1.671v.688h-.688c-.162924 0-.295.132076-.295.295s.132076.295.295.295h.688v14.061h-11.207v-14.061h8.01c.162924 0 .295-.132076.295-.295s-.132076-.295-.295-.295h-8.01v-.688c.00110205-.92241095.74858905-1.66989795 1.671-1.671zm-1.671 17.6h11.21v1.278c-.001102.9224109-.7485891 1.669898-1.671 1.671h-7.865c-.92241095-.001102-1.66989795-.7485891-1.671-1.671z"/><path d="m10.378 3.677h.546c.162924 0 .295-.132076.295-.295s-.132076-.295-.295-.295h-.546c-.162924 0-.295.132076-.295.295s.132076.295.295.295z"/><path d="m7.001 20.833c.56982763-.0000003 1.03181559-.4618394 1.03199946-1.031667.00018388-.5698276-.46150593-1.0319648-1.03133344-1.0323328s-1.03211386.4611724-1.03266602 1.0309998c0 .2737034.10872826.5361967.3022658.7297342s.45603078.3022658.7297342.3022658zm0-1.475c.24410986 0 .442.1978901.442.442s-.19789014.442-.442.442-.442-.1978901-.442-.442.19789014-.442.442-.442z"/></g></svg>