<svg height="28" viewBox="0 0 22 28" width="22" xmlns="http://www.w3.org/2000/svg"><g fill="currentColor"><path d="m21.442 22.577-1.18-14.867c-.0778927-.96179083-.879069-1.70387819-1.844-1.708h-2.332v-.1c0-2.82051822-2.2864818-5.107-5.107-5.107-2.82051822 0-5.107 2.28648178-5.107 5.107v.1h-2.33c-.96422346.00403413-1.76512617.74499944-1.844 1.706l-1.18 14.871c-.09223787 1.1946997.31821263 2.373701 1.13242271 3.2528352.81421008.8791343 1.95832236 1.3786549 3.15657729 1.3781648h12.345c1.1986308.0005334 2.3430849-.4992585 3.157361-1.3788438.8142762-.8795854 1.2244633-2.0591249 1.131639-3.2541562zm-14.021-16.68c0-1.96585757 1.59364243-3.5595 3.5595-3.5595 1.9658576 0 3.5595 1.59364243 3.5595 3.5595v.1h-7.119zm11.752 18.883c-.5192097.5658752-1.2530278.8864894-2.021.883h-12.344c-.7667122-.0000162-1.49871133-.3196513-2.01987527-.8819997s-.78431022-1.3164991-.72612473-2.0810003l1.18-14.871c.01104691-.15743263.14218074-.2793871.3-.279h2.33v1.905c0 .4274684.3465316.774.774.774s.774-.3465316.774-.774v-1.906h7.119v1.906c0 .4274684.3465316.774.774.774s.774-.3465316.774-.774v-1.906h2.33c.1585404-.00031826.2899594.1227775.3.281l1.18 14.867c.062819.7653143-.2000578 1.5216296-.724 2.083z"/><path d="m14.146 13.921c-.1314366-.1325189-.3103537-.2070588-.497-.2070588s-.3655634.0745399-.497.2070588l-3.139 3.139-1.207-1.207c-.27448552-.2744855-.71951448-.2744855-.994 0s-.27448552.7195145 0 .994l1.7 1.7c.13143662.1325189.31035372.2070588.497.2070588.1866463 0 .3655634-.0745399.497-.2070588l3.636-3.636c.1318227-.1307463.2063027-.3085071.2070529-.4941715.0007501-.1856644-.072291-.3640213-.2030529-.4958285z"/></g></svg>