<svg height="28" viewBox="0 0 28 28" width="28" xmlns="http://www.w3.org/2000/svg"><g fill="currentColor"><path d="m4.55 18.5c-2.013 0-4.05.618-4.05 1.8v5.4c0 1.182 2.037 1.8 4.05 1.8s4.05-.618 4.05-1.8v-5.4c0-1.182-2.037-1.8-4.05-1.8zm0 .9c2.046 0 3.15.639 3.15.9s-1.1.9-3.15.9-3.15-.639-3.15-.9 1.1-.9 3.15-.9zm0 7.2c-2.05 0-3.15-.639-3.15-.9v-.63c.9884823.4466456 2.06576802.6621028 3.15.63 1.08423198.0321028 2.1615177-.1833544 3.15-.63v.63c0 .261-1.1.9-3.15.9zm0-1.8c-2.05 0-3.15-.639-3.15-.9v-.63c.9884823.4466456 2.06576802.6621028 3.15.63 1.08423198.0321028 2.1615177-.1833544 3.15-.63v.63c0 .261-1.1.9-3.15.9zm0-1.8c-2.05 0-3.15-.639-3.15-.9v-.63c.9884823.4466456 2.06576802.6621028 3.15.63 1.08423198.0321028 2.1615177-.1833544 3.15-.63v.63c0 .261-1.1.9-3.15.9z"/><path d="m14 14.9c-2.013 0-4.05.618-4.05 1.8v9c0 1.182 2.037 1.8 4.05 1.8s4.05-.618 4.05-1.8v-9c0-1.182-2.037-1.8-4.05-1.8zm0 .9c2.046 0 3.15.639 3.15.9s-1.1.9-3.15.9-3.15-.639-3.15-.9 1.1-.9 3.15-.9zm0 10.8c-2.046 0-3.15-.639-3.15-.9v-.63c2.016.84 4.284.84 6.3 0v.63c0 .261-1.1.9-3.15.9zm0-1.8c-2.046 0-3.15-.639-3.15-.9v-.63c2.0160222.8398889 4.2839778.8398889 6.3 0v.63c0 .261-1.1.9-3.15.9zm0-1.8c-2.046 0-3.15-.639-3.15-.9v-.63c2.016.84 4.284.84 6.3 0v.63c0 .261-1.1.9-3.15.9zm0-1.8c-2.046 0-3.15-.639-3.15-.9v-.63c2.016.84 4.284.84 6.3 0v.63c0 .261-1.1.9-3.15.9zm0-1.8c-2.046 0-3.15-.639-3.15-.9v-.63c2.016.84 4.284.84 6.3 0v.63c0 .261-1.1.9-3.15.9z"/><path d="m23.45 9.5c-2.013 0-4.05.618-4.05 1.8v14.4c0 1.182 2.037 1.8 4.05 1.8s4.05-.618 4.05-1.8v-14.4c0-1.182-2.037-1.8-4.05-1.8zm0 .9c2.046 0 3.15.639 3.15.9s-1.1.9-3.15.9-3.15-.639-3.15-.9 1.1-.9 3.15-.9zm0 16.2c-2.046 0-3.15-.639-3.15-.9v-.63c2.0160222.8398889 4.2839778.8398889 6.3 0v.63c0 .261-1.1.9-3.15.9zm0-1.8c-2.046 0-3.15-.639-3.15-.9v-.63c2.0160222.8398889 4.2839778.8398889 6.3 0v.63c0 .261-1.1.9-3.15.9zm0-1.8c-2.046 0-3.15-.639-3.15-.9v-.63c2.0160222.8398889 4.2839778.8398889 6.3 0v.63c0 .261-1.1.9-3.15.9zm0-1.8c-2.046 0-3.15-.639-3.15-.9v-.63c2.0160222.8398889 4.2839778.8398889 6.3 0v.63c0 .261-1.1.9-3.15.9zm0-1.8c-2.046 0-3.15-.639-3.15-.9v-.63c2.0160222.8398889 4.2839778.8398889 6.3 0v.63c0 .261-1.1.9-3.15.9zm0-1.8c-2.046 0-3.15-.639-3.15-.9v-.63c2.0160222.8398889 4.2839778.8398889 6.3 0v.63c0 .261-1.1.9-3.15.9zm0-1.8c-2.046 0-3.15-.639-3.15-.9v-.63c2.0160222.8398889 4.2839778.8398889 6.3 0v.63c0 .261-1.1.9-3.15.9zm0-1.8c-2.046 0-3.15-.639-3.15-.9v-.63c2.0160222.8398889 4.2839778.8398889 6.3 0v.63c0 .261-1.1.9-3.15.9z"/><path d="m22.55.5v.9h3.414l-8.55 8.55h-9.433l-7.328 6.411.593.678 7.073-6.189h9.467l8.814-8.814v3.414h.9v-4.95z"/></g></svg>