<svg height="13" viewBox="0 0 25 13" width="25" xmlns="http://www.w3.org/2000/svg"><g fill="currentColor"><path d="m20.626 3.539c-3.4558085-3.45502298-8.6524782-4.48834965-13.16716308-2.61821158-4.51468491 1.87013807-7.45845582 6.27551576-7.45883692 11.16221158 0 .3959882.32101183.717.717.717h22.731c.3959882 0 .717-.3210118.717-.717.0092072-3.20643818-1.2652138-6.28319778-3.539-8.544zm-8.151 7.827-2.991-4.684c-.21318191-.33385613-.65664387-.43168191-.9905-.2185s-.43168191.65664387-.2185.9905l2.5 3.912h-9.317c.37972104-5.58818337 5.02343033-9.92705765 10.6245-9.92705765 5.6010697 0 10.244779 4.33887428 10.6245 9.92705765z"/><path d="m4.043 8.44c-.39598817 0-.717.32101183-.717.717s.32101183.717.717.717.717-.32101183.717-.717c-.00432612-.39418232-.32281768-.71267388-.717-.717z"/><path d="m5.528 5.866c-.39598817 0-.717.32101183-.717.717s.32101183.717.717.717.717-.32101183.717-.717c-.00485427-.39395994-.32304006-.71214573-.717-.717z"/><path d="m7.804 3.956c-.39598817 0-.717.32101183-.717.717s.32101183.717.717.717.717-.32101183.717-.717c-.00432612-.39418232-.32281768-.71267388-.717-.717z"/><path d="m10.596 2.944c-.2899994 0-.5514436.17469144-.66242162.44261598-.11097798.26792454-.04963451.57631902.15542602.78137958.2050606.20506057.5134551.26640404.7813796.15542606.2679246-.11097797.442616-.37242219.442616-.66242162-.0048543-.39395994-.3230401-.71214573-.717-.717z"/><path d="m14.281 3.658c0-.39598817-.3210118-.717-.717-.717s-.717.32101183-.717.717.3210118.717.717.717c.3930777-.00693985.7100602-.3239223.717-.717z"/><path d="m16.36 5.391c.2899994 0 .5514436-.17469144.6624216-.44261598s.0496345-.57631902-.155426-.78137958c-.2050606-.20506057-.5134551-.26640404-.7813796-.15542606-.2679246.11097797-.442616.37242219-.442616.66242162.0043261.39418232.3228177.71267388.717.717z"/><path d="m18.636 5.866c-.3959882 0-.717.32101183-.717.717s.3210118.717.717.717.717-.32101183.717-.717c-.0048543-.39395994-.3230401-.71214573-.717-.717z"/><path d="m20.121 9.874c.3959882 0 .717-.32101183.717-.717s-.3210118-.717-.717-.717-.717.32101183-.717.717c.0043261.39418232.3228177.71267388.717.717z"/><path d="m16.437 7.421h-2.391c-.3962643 0-.7175.32123569-.7175.7175s.3212357.7175.7175.7175h2.391c.3962643 0 .7175-.32123569.7175-.7175s-.3212357-.7175-.7175-.7175z"/></g></svg>