<svg height="19" viewBox="0 0 15 19" width="15" xmlns="http://www.w3.org/2000/svg"><g fill="currentColor"><path d="m14.572 5.1-4.917-4.92c-.11544982-.11522612-.2718874-.17995891-.435-.18h-8.605c-.33965512 0-.615.27534488-.615.615v17.62c0 .3396551.27534488.615.615.615h13.522c.3396551 0 .615-.2753449.615-.615v-12.703c-.0011543-.16200701-.0657782-.31710446-.18-.432zm-4.737-3 2.819 2.819h-2.819zm3.688 15.52h-12.294v-16.391h7.376v4.3c0 .33965512.27534488.615.615.615h4.3z"/><path d="m11.678 9.015h-6.147c-.22545264-.00909668-.43778384.10599615-.5532183.2998686-.11543447.19387245-.11543447.43539035 0 .6292628.11543446.1938724.32776566.3089653.5532183.2998686h6.147c.2254526.0090967.4377838-.1059962.5532183-.2998686.1154345-.19387245.1154345-.43539035 0-.6292628s-.3277657-.30896528-.5532183-.2998686z"/><path d="m11.678 11.474h-6.147c-.22545264-.0090967-.43778384.1059962-.5532183.2998686-.11543447.1938724-.11543447.4353904 0 .6292628.11543446.1938724.32776566.3089653.5532183.2998686h6.147c.2254526.0090967.4377838-.1059962.5532183-.2998686s.1154345-.4353904 0-.6292628-.3277657-.3089653-.5532183-.2998686z"/><path d="m11.678 13.932h-6.147c-.22545264-.0090967-.43778384.1059962-.5532183.2998686-.11543447.1938724-.11543447.4353904 0 .6292628.11543446.1938724.32776566.3089653.5532183.2998686h6.147c.2254526.0090967.4377838-.1059962.5532183-.2998686s.1154345-.4353904 0-.6292628-.3277657-.3089653-.5532183-.2998686z"/><circle cx="3.074" cy="9.63" r="1"/><circle cx="3.074" cy="12.089" r="1"/><circle cx="3.074" cy="14.547" r="1"/></g></svg>