<svg height="18" viewBox="0 0 18 18" width="18" xmlns="http://www.w3.org/2000/svg"><path d="m15.761 0h-14.328c-.79119548.00055155-1.43244845.64180452-1.433 1.433v14.328c.00055155.7911955.64180452 1.4324485 1.433 1.433h14.328c.7911955-.0005515 1.4324485-.6418045 1.433-1.433v-14.328c-.0005515-.79119548-.6418045-1.43244845-1.433-1.433zm-8.955 11.462v-2.862h3.582v2.866zm3.582 1.438v2.866h-3.582v-2.866zm0-8.6v2.866h-3.582v-2.866zm5.373 0v2.866h-3.941v-2.866zm-10.388 2.864h-3.941v-2.864h3.941zm-3.941 1.436h3.941v2.866h-3.941zm10.388 0h3.94v2.866h-3.94zm-10.387-7.167h14.328v1.433h-14.329v-1.433zm0 11.462h3.94v2.866h-3.94zm10.387 2.866v-2.861h3.94v2.866z" fill="currentColor"/></svg>