<svg height="20" viewBox="0 0 20 20" width="20" xmlns="http://www.w3.org/2000/svg"><path d="m19.6813894 18.3248929-4.2771267-4.2723419c2.8734597-3.5784402 2.4480508-8.77575974-.9691598-11.84044986-3.4172107-3.06469012-8.63595204-2.92926854-11.88925272.30851527-3.25330069 3.2377838-3.40798223 8.45015609-.352393 11.87474289s8.25713692 3.8685477 11.85008232 1.0114247l4.2771268 4.272342c.2372433.2653858.6018864.3780843.9477193.2929071s.6162285-.3542831.7027668-.6994149c.0865383-.3451319-.0249504-.7097773-.289763-.9477253zm-11.04095514-2.9499031c-3.7171718-.0005487-6.73019228-3.0107916-6.73000917-6.72380508.00018312-3.71301344 3.0135005-6.72295983 6.73067234-6.72314275 3.71717187-.00018291 6.73078607 3.00946692 6.73133547 6.72248032.0002638 1.78352051-.7089135 3.49406821-1.9714654 4.75520771-1.2625518 1.2611394-2.9750153 1.9695234-4.76053324 1.9692598z" fill="currentColor"/></svg>