<svg height="20" viewBox="0 0 20 20" width="20" xmlns="http://www.w3.org/2000/svg"><g fill="currentColor"><path d="m10.17 9.628v-9.073c0-.30651804-.24848196-.555-.555-.555s-.555.24848196-.555.555v9.073c-1.31589061.26504595-2.26237737 1.4211821-2.26237737 2.7635s.94648676 2.498454 2.26237737 2.7635v4.039c0 .306518.24848196.555.555.555s.555-.248482.555-.555v-4.039c1.3158906-.265046 2.2623774-1.4211821 2.2623774-2.7635s-.9464868-2.49845405-2.2623774-2.7635zm-.555 4.47c-.94275007 0-1.707-.7642499-1.707-1.707s.76424993-1.707 1.707-1.707c.9427501 0 1.707.7642499 1.707 1.707.0002653.4529898-.1794298.8875317-.4995544 1.2080314-.3201246.3204996-.7544558.5007035-1.2074456.5009686z"/><path d="m3.372 4.972v-4.417c.00000001-.19828241-.10578239-.38150292-.27749999-.48064413s-.38328242-.09914121-.55500002 0-.2775.28236172-.27749999.48064413v4.417c-1.31589061.26504595-2.26237737 1.42118206-2.26237737 2.7635s.94648676 2.498454 2.26237737 2.7635v8.694c-.00000001.1982824.10578239.3815029.27749999.4806441s.38328242.0991412.55500002 0 .2775-.2823617.27749999-.4806441v-8.693c1.31486482-.2649362 2.26057682-1.42020933 2.26057682-2.7615s-.945712-2.49656382-2.26057682-2.7615zm-.555 4.47c-.94275007 0-1.707-.76424993-1.707-1.707s.76424993-1.707 1.707-1.707 1.707.76424993 1.707 1.707c.00000016.94291197-.7640882 1.70744794-1.707 1.708z"/><path d="m16.927 4.972v-4.417c0-.30651804-.248482-.555-.555-.555s-.555.24848196-.555.555v4.417c-1.3158906.26504595-2.2623774 1.42118206-2.2623774 2.7635s.9464868 2.498454 2.2623774 2.7635v8.7c0 .306518.248482.555.555.555s.555-.248482.555-.555v-8.699c1.3148648-.2649362 2.2605768-1.42020933 2.2605768-2.7615s-.945712-2.49656382-2.2605768-2.7615zm-.555 4.47c-.9427501 0-1.707-.76424993-1.707-1.707s.7642499-1.707 1.707-1.707 1.707.76424993 1.707 1.707c.0000002.94291197-.7640882 1.70744794-1.707 1.708z"/></g></svg>