<svg height="22" viewBox="0 0 20 22" width="20" xmlns="http://www.w3.org/2000/svg"><path d="m15.251 12.315h-1.615-.013-.013c-.5432197.0005512-.9834488.4407803-.984.984v7.217c.0005512.5432197.4407803.9834488.984.984h.013.013 1.615c1.5119486-.0030785 2.7780301-1.1462186 2.935-2.65.7702892-.150071 1.3267107-.8242293 1.328-1.609v-7.227c-.1061863-5.17842123-4.3344902-9.32091028-9.514-9.32091028-5.17950982 0-9.40781367 4.14248905-9.514 9.32091028v7.227c.00119555.7844609.55710827 1.4585104 1.327 1.609.15709116 1.5049206 1.42490345 2.6484545 2.938 2.65h1.615.013.013c.54321971-.0005512.98344879-.4407803.984-.984v-7.216c-.00055121-.5432197-.44078029-.9834488-.984-.984h-.013-.013-1.615c-.89377618-.0009493-1.73972258.4036337-2.3 1.1v-3.4c-.00201174-1.88927814.70737779-3.71005649 1.987-5.1l.92.92c.06151753.06155414.14497518.09613797.232.09613797s.17048247-.03458383.232-.09613797c2.30799342-2.30234863 6.0440066-2.30234863 8.352 0 .0615175.06155414.1449752.09613797.232.09613797s.1704825-.03458383.232-.09613797l.92-.92c1.2793432 1.39004263 1.9883825 3.21083828 1.986 5.1v3.4c-.5601848-.6964832-1.4061909-1.1010948-2.3-1.1zm-1.965.985c.0005491-.1803692.1466308-.3264509.327-.327h.013.013 1.287v7.872h-1.29-.013-.013c-.1803692-.0005491-.3264509-.1466308-.327-.327zm2.3 7.519v-7.819c1.1286082.1641272 1.9664916 1.1305229 1.969 2.271v3.279c-.0049957 1.1412579-.8461101 2.1062409-1.976 2.267zm-8.859-.3c-.00054907.1803692-.14663081.3264509-.327.327h-.013-.013-1.295v-7.875h1.287.013.013c.18036919.0005491.32645093.1466308.327.327zm-2.304-7.519v7.82c-1.1286082-.1641272-1.96649165-1.1305229-1.969-2.271v-3.281c.00399257-1.1393375.84151473-2.1040405 1.969-2.268zm1.182-7.845-.7-.7c2.88133434-2.64803366 7.3106657-2.64803366 10.192 0l-.7.7c-2.4969251-2.25490756-6.29507493-2.25490756-8.792 0zm12.6 4.861c.0013198-2.16844525-.8587352-4.24862024-2.391-5.783 0-.006-.007-.012-.011-.017s-.017-.008-.017-.016c-3.1962807-3.18801978-8.36971928-3.18801978-11.566 0-.006 0-.012.007-.017.011s-.007.012-.011.017c-1.53459077 1.5351137-2.39585098 3.61739191-2.394 5.788v8.149c-.39245095-.1379564-.65557348-.50801-.657-.924v-7.225c-.00000005-3.16519453 1.6886111-6.0899549 4.42974996-7.67255217 2.74113886-1.58259728 6.11836124-1.58259728 8.85950004 0 2.7411389 1.58259727 4.42975 4.50735764 4.42975 7.67255217v7.225c-.0011277.4160859-.2643603.7862944-.657.924z" fill="currentColor"/></svg>