<svg height="30" viewBox="0 0 30 30" width="30" xmlns="http://www.w3.org/2000/svg"><g fill="currentColor" fill-rule="evenodd"><path d="m10.983 6.54c0 3.5180539 2.8519461 6.37 6.37 6.37s6.37-2.8519461 6.37-6.37c0-3.51805386-2.8519461-6.37-6.37-6.37-3.5162265.00440769-6.3655923 2.85377348-6.37 6.37zm11.582 0c0 2.87850812-2.3334919 5.212-5.212 5.212s-5.212-2.33349188-5.212-5.212 2.3334919-5.212 5.212-5.212c2.8771374.00330642 5.2086936 2.33486256 5.212 5.212z" fill-rule="nonzero"/><path d="m6.766 29.658c.22590269.2248965.59109731.2248965.817 0l2.808-2.766c.468468-.4728258.6281516-1.1704724.412-1.8l.6-.582c.3231772-.3132893.7558971-.4880277 1.206-.487h7.7c1.3583607.0028215 2.663583-.5275261 3.635-1.477.04-.039-.306.368 5.252-6.274.8038845-.9756824.6772908-2.4156532-.2844994-3.236108s-2.4037156-.7185086-3.2405006.229108l-3.417 3.512c-.4400747-.5431043-1.1009848-.8596068-1.8-.862h-6.46c-.9184315-.3843003-1.9044105-.5811561-2.9-.579-2.70054349-.0969319-5.22591295 1.3337627-6.531 3.7-.5639912-.106896-1.14427782.0729216-1.549.48l-2.75 2.773c-.22489652.2259027-.22489652.5910973 0 .817zm4.328-13.157c.8776433-.0019194 1.7460723.1789182 2.55.531.073116.0321908.1521114.0488752.232.049h6.576c.6395457 0 1.158.5184543 1.158 1.158s-.5184543 1.158-1.158 1.158h-4.721c-.3197729 0-.579.2592271-.579.579s.2592271.579.579.579h4.725c.6680784.0021178 1.3044416-.2847357 1.745285-.786722.4408433-.5019864.6431027-1.170069.554715-1.832278 3.306-3.4 3.772-3.876 3.792-3.9.2679492-.3160015.6841292-.4650497 1.0917691-.3909996s.7448094.3599485.8845.7500001c.1396907.3900515.0606801.8249981-.2072691 1.1409995l-5.194 6.21c-.7537031.7263388-1.7602758 1.1311912-2.807 1.129h-7.7c-.7502047-.001553-1.4713853.2897896-2.01.812l-.492.475-4.537-4.537c1.09214464-2.012422 3.23765835-3.2243946 5.525-3.121zm-7.26 3.843c.19073034-.1911836.4884247-.2248143.717-.081.1.061-.188-.2 5.016 5 .22368941.2260102.22368941.5899898 0 .816l-2.394 2.358-5.679-5.738z" fill-rule="nonzero"/><text font-family="Nunito-Black, Nunito" font-size="7" font-weight="700" transform="translate(15 2)"><tspan x="0" y="7">$</tspan></text></g></svg>