<svg height="25.088" viewBox="0 0 19.197 25.088" width="19.197" xmlns="http://www.w3.org/2000/svg"><g transform="translate(-60.115)"><g fill="currentColor"><path d="m77.162 0h-14.9a2.153 2.153 0 0 0 -2.151 2.151v1.293a.367.367 0 1 0 .735 0v-1.293a1.417 1.417 0 0 1 1.42-1.416h14.9a1.417 1.417 0 0 1 1.416 1.416v20.786a1.417 1.417 0 0 1 -1.416 1.416h-14.9a1.417 1.417 0 0 1 -1.416-1.416v-19.929a.367.367 0 1 0 -.735 0v19.929a2.153 2.153 0 0 0 2.151 2.151h14.9a2.153 2.153 0 0 0 2.151-2.151v-20.786a2.153 2.153 0 0 0 -2.155-2.151z"/><path d="m89.979 54.305v15.388a.367.367 0 1 0 .735 0v-15.021h14.8v6.738a.367.367 0 1 0 .735 0v-7.105a.367.367 0 0 0 -.367-.367h-15.536a.367.367 0 0 0 -.367.367z" transform="translate(-28.401 -51.295)"/><path d="m89.979 205.939a.367.367 0 0 0 .367.367h15.537a.367.367 0 0 0 .367-.367v-11.28a.367.367 0 1 0 -.735 0v10.912h-14.8v-2.435a.367.367 0 0 0 -.735 0z" transform="translate(-28.401 -184.773)"/><path d="m248.806 27.552a.367.367 0 0 0 0-.735h-1.675a.367.367 0 0 0 0 .735z" transform="translate(-177.505 -25.503)"/><circle cx="68.224" cy="1.679" r=".367"/></g><g fill="none" stroke="currentColor" stroke-width=".4"><circle cx="69.785" cy="23" r="1" stroke="none"/><circle cx="69.785" cy="23" fill="none" r=".8"/></g></g></svg>