<svg height="24" viewBox="0 0 17 24" width="17" xmlns="http://www.w3.org/2000/svg"><g fill="currentColor"><path d="m11.951 4.258h-8.352c-1.46822935.0022061-2.65745011 1.1927691-2.658 2.661v10.246c.00054989 1.4682309 1.18977065 2.6587939 2.658 2.661h8.352c1.4682294-.0022061 2.6574501-1.1927691 2.658-2.661v-10.246c-.0005499-1.4682309-1.1897706-2.6587939-2.658-2.661zm1.899 12.907c0 1.049341-.850659 1.9-1.9 1.9h-8.351c-.50391133 0-.98718377-.200178-1.34350288-.5564971-.35631912-.3563191-.55649712-.8395916-.55649712-1.3435029v-10.246c0-1.04934102.85065898-1.9 1.9-1.9h8.352c1.049341 0 1.9.85065898 1.9 1.9z"/><path d="m12.705 4.57-.556-3.057c-.1659982-.81936413-.8781639-1.41394349-1.714-1.431h-5.32c-.83659151.01613075-1.5498368.61091747-1.716 1.431l-.556 3.057c-.02016853.11088722.00992693.22500604.0821558.31152619.07222887.08652014.17913775.13651347.2918442.13647381h9.112c.1127064.00003966.2196153-.04995367.2918442-.13647381.0722289-.08652015.1023243-.20063897.0821558-.31152619zm-9.031-.312.474-2.609c.10233742-.45713373.49895576-.78853767.967-.808h5.32c.4680442.01946233.8646626.35086627.967.808l.474 2.609z"/><path d="m12.622 19.201c-.0720437-.0862292-.1786356-.1360453-.291-.136h-9.112c-.11270645-.0000397-.21961533.0499537-.2918442.1364738-.07222887.0865202-.10232433.200639-.0821558.3115262l.556 3.057c.16599822.8193641.87816386 1.4139435 1.714 1.431h5.32c.8358361-.0170565 1.5480018-.6116359 1.714-1.431l.556-3.057c.0202278-.1111729-.0102056-.2255734-.083-.312zm-1.221 3.23c-.1023374.4571337-.4989558.7885377-.967.808h-5.32c-.46804424-.0194623-.86466258-.3508663-.967-.808l-.474-2.609h8.2z"/><path d="m15.045 8.055h-.816c-.2098682 0-.38.1701318-.38.38v3.417c0 .2098682.1701318.38.38.38h.816c.5978959-.0005513 1.0824487-.4851041 1.083-1.083v-2.011c-.0005513-.59789587-.4851041-1.08244869-1.083-1.083zm.323 3.094c-.000549.1781601-.1448399.322451-.323.323h-.436v-2.658h.436c.1781601.00054903.322451.14483994.323.323z"/><path d="m3.87 5.889c-.14835323-.14813199-.38864677-.14813199-.537 0l-.949.949c-.10220544.09459701-.14447706.23752365-.1101684.37249573.03430867.13497208.13970059.240364.27467267.27467267.13497208.03430866.27789872-.00796296.37249573-.1101684l.949-.949c.14813199-.14835323.14813199-.38864677 0-.537z"/><path d="m5.385 5.889c-.14835323-.14813199-.38864677-.14813199-.537 0l-2.088 2.088c-.10220544.09459701-.14447706.23752365-.1101684.37249573.03430867.13497208.13970059.240364.27467267.27467267.13497208.03430866.27789872-.00796296.37249573-.1101684l2.088-2.088c.14813199-.14835323.14813199-.38864677 0-.537z"/></g></svg>